<?xml version="1.0" encoding="UTF-8"?>
<svg width="32px" height="32px" viewBox="0 0 32 32" version="1.1" xmlns="http://www.w3.org/2000/svg" xmlns:xlink="http://www.w3.org/1999/xlink">
    <title>Arbiscan</title>
    <g id="Arbiscan" stroke="none" stroke-width="1" fill="none" fill-rule="evenodd">
        <path d="M17.3116494,0.352660024 C21.2040864,2.60072725 25.0924897,4.85417263 28.978204,7.1143407 C29.8615653,7.62795414 30.1573637,8.4440886 30.1439183,9.43097935 C30.1170275,11.3039205 30.1143385,13.1768617 30.1089603,15.0498029 C30.1008931,17.525097 30.080725,20.0003911 30.1049267,22.4756852 C30.115683,23.5472819 29.690809,24.2988785 28.765767,24.8245928 C24.9755149,26.9812315 21.1946746,29.1540046 17.405767,31.3146768 C17.0642544,31.5096348 16.693162,31.6494667 16.3355149,31.8148449 L15.7990443,31.8148449 C12.6245906,30.0306432 9.44879224,28.2491306 6.27837207,26.4582062 C5.27131325,25.8894667 4.28038888,25.2911474 3.27467459,24.7183743 C2.45181745,24.2491306 1.99601913,23.5661054 2.0000262,22.6047609 C2.01349812,18.0104751 2.02022081,13.417534 2.05383426,8.82324826 C2.05921241,8.0568617 2.48543089,7.46392053 3.14156535,7.08744994 C7.09585106,4.81249196 11.0514813,2.54156759 15.0192124,0.290811284 C15.76812,-0.134062665 16.56812,-0.0762475393 17.3116494,0.352660024 Z M15.485767,2.12879448 C11.823246,4.24106339 8.15400232,6.34123145 4.47400232,8.42123145 C3.99803594,8.69013902 3.83803594,9.00744994 3.84475863,9.54123145 C3.87164938,11.6373659 3.85551493,13.7335004 3.85551493,15.8296348 L3.83131325,15.8309794 C3.83131325,17.9714836 3.84206955,20.1119878 3.82181619,22.252492 C3.81786787,22.7069457 3.95635526,22.9946768 4.35433846,23.2245928 C8.05585106,25.3583743 11.7519855,27.5015676 15.4413973,29.6541726 C15.8286242,29.880055 16.1553469,29.9096348 16.5560191,29.6783743 C20.2776998,27.5365256 24.0047586,25.4054331 27.7398847,23.285097 C28.1419015,23.0565256 28.285767,22.7755172 28.285767,22.3197188 C28.2790443,18.0387104 28.2844225,13.7563575 28.3073095,9.4753491 C28.3099687,9.0061054 28.1311452,8.74526507 27.7439183,8.52207179 C24.0625738,6.39904658 20.3852628,4.26929868 16.7160191,2.12341633 C16.2750107,1.86526507 15.9254309,1.87467683 15.485767,2.12879448 Z M17.5536662,7.34829028 C17.8035261,7.38974686 18.0636569,7.36771138 18.400974,7.35921465 L18.61,7.356 L18.2527761,8.34527752 C17.6605569,9.98212781 17.0969715,11.5445928 16.5277838,13.1042567 C15.4615653,16.0259373 14.3724897,18.9395508 13.3358511,21.8706432 C13.1086242,22.5119878 12.818204,22.8521558 12.1042544,22.7419037 C11.7815653,22.6921558 11.4454309,22.7338365 11.0138343,22.7338365 C11.538204,21.277702 12.0208931,19.9237525 12.5143385,18.572492 C13.7701368,15.1291306 15.0474477,11.695181 16.2750107,8.24240792 C16.5116494,7.5768617 16.8128259,7.22324826 17.5536662,7.34829028 Z M14.9815653,7.3563575 C15.1334981,7.35366843 15.2867754,7.37787011 15.5812292,7.39938271 C15.2598847,8.30694574 14.9775317,9.11904658 14.683078,9.92576927 C13.20812,13.9755172 11.7224057,18.0198869 10.2635822,22.0763575 C10.0820695,22.5805592 9.82257375,22.7903071 9.29282585,22.7405592 C8.90559896,22.7029121 8.51030484,22.7338365 8.01148131,22.7338365 C8.56274182,21.2064415 9.06022081,19.8108113 9.5684561,18.4178701 C10.7637502,15.1412315 11.9523217,11.8632483 13.1677838,8.59333229 C13.7284561,7.08476086 13.3587082,7.38997095 14.9815653,7.3563575 Z M18.9869435,9.11770204 L19.1603889,9.12308019 C20.7993805,13.6138365 22.4397166,18.1072819 24.123078,22.717702 C23.483078,22.717702 22.9533301,22.7486264 22.4329939,22.6988785 C22.2703048,22.6827441 22.0524897,22.4756852 21.990641,22.3089625 C20.7119855,18.8521558 19.450809,15.3872819 18.1936662,11.9224079 C18.1358511,11.7637525 18.0955149,11.5593827 18.1466074,11.410139 C18.4087922,10.6397188 18.703246,9.88005498 18.9869435,9.11770204 Z M17.5698006,12.9913155 C18.7892964,16.3244247 19.9388763,19.4679541 21.0924897,22.6235844 C20.9580359,22.6854331 20.9392124,22.700223 20.9176998,22.7015676 C19.7730499,22.8180942 19.0003889,22.3371978 18.5997166,21.2588785 C18.00812,19.657534 17.4434141,18.0454331 16.8262712,16.4548449 C16.6272796,15.9412315 16.6084561,15.4894667 16.8276158,14.9852651 C17.0817334,14.4030802 17.2753469,13.7940046 17.5698006,12.9913155 Z" id="形状结合" fill="#1B4ADD" fill-rule="nonzero"></path>
    </g>
</svg>