<?xml version="1.0" encoding="UTF-8"?>
<svg width="32px" height="32px" viewBox="0 0 32 32" version="1.1" xmlns="http://www.w3.org/2000/svg" xmlns:xlink="http://www.w3.org/1999/xlink">
    <title>Binance</title>
    <g id="Binance" stroke="none" stroke-width="1" fill="none" fill-rule="evenodd">
        <path d="M9.7856,13.4464 L16,7.232 L22.21824,13.44896 L25.83424,9.83296 L16,0 L6.1696,9.8304 L9.7856,13.4464 M0,16 L3.616,12.384 L7.232,16 L3.616,19.616 L0,16 Z M9.7856,18.5536 L16,24.768 L22.21696,18.55104 L25.83552,22.16448 L25.83424,22.16704 L16,32 L6.1696,22.1696 L6.16448,22.16448 L9.7856,18.5536 M24.768,16.00128 L28.384,12.38528 L32,16.00128 L28.384,19.61728 L24.768,16.00128 Z" id="形状" fill="#F3BA2F" fill-rule="nonzero"></path>
        <polyline id="路径" fill="#F3BA2F" fill-rule="nonzero" points="19.6672 15.99872 19.66848 15.99872 16 12.32896 13.28768 15.04 13.28768 15.04 12.97664 15.35104 12.33408 15.9936 12.32896 15.99872 12.33408 16.00384 16 19.67104 19.66976 16.00128 19.67104 15.99872 19.6672 15.99872"></polyline>
    </g>
</svg>