<?xml version="1.0" encoding="UTF-8"?>
<svg width="32px" height="32px" viewBox="0 0 32 32" version="1.1" xmlns="http://www.w3.org/2000/svg" xmlns:xlink="http://www.w3.org/1999/xlink">
    <title>bybit</title>
    <g id="bybit" stroke="none" stroke-width="1" fill="none" fill-rule="evenodd">
        <rect id="矩形" fill="#000000" fill-rule="nonzero" x="0" y="0" width="32" height="32" rx="8"></rect>
        <g id="Layer_x0020_1_0" transform="translate(4.8, 12.2624)" fill-rule="nonzero">
            <g id="_3036754161648">
                <polygon id="路径" fill="#F7A600" points="15.9616 5.76 15.9616 0 17.1264 0 17.1264 5.76"></polygon>
                <path d="M2.4832,7.4752 L0,7.4752 L0,1.7152 L2.3808,1.7152 C3.5328,1.7152 4.2112,2.3424 4.2112,3.328 C4.2112,3.968 3.776,4.3776 3.4816,4.5184 C3.84,4.6848 4.3008,5.0432 4.3008,5.8112 C4.3008,6.8864 3.5456,7.4624 2.4832,7.4624 L2.4832,7.4624 L2.4832,7.4752 Z M2.2912,2.7264 L1.152,2.7264 L1.152,4.0576 L2.2912,4.0576 C2.7776,4.0576 3.0592,3.7888 3.0592,3.392 C3.0592,2.9952 2.7776,2.7264 2.2912,2.7264 L2.2912,2.7264 Z M2.368,5.0688 L1.1648,5.0688 L1.1648,6.4896 L2.368,6.4896 C2.8928,6.4896 3.1488,6.1696 3.1488,5.7728 C3.1488,5.3888 2.8928,5.0688 2.3808,5.0688 L2.368,5.0688 Z" id="形状" fill="#FFFFFF"></path>
                <polygon id="路径" fill="#FFFFFF" points="7.8208 5.1072 7.8208 7.4752 6.6688 7.4752 6.6688 5.1072 4.8896 1.7152 6.1568 1.7152 7.2576 4.032 8.3456 1.7152 9.6 1.7152"></polygon>
                <path d="M12.8896,7.4752 L10.4064,7.4752 L10.4064,1.7152 L12.7872,1.7152 C13.9392,1.7152 14.6176,2.3424 14.6176,3.328 C14.6176,3.968 14.1824,4.3776 13.888,4.5184 C14.2464,4.6848 14.7072,5.0432 14.7072,5.8112 C14.7072,6.8864 13.952,7.4624 12.8896,7.4624 L12.8896,7.4624 L12.8896,7.4752 Z M12.6976,2.7264 L11.5712,2.7264 L11.5712,4.0576 L12.6976,4.0576 C13.184,4.0576 13.4656,3.7888 13.4656,3.392 C13.4656,2.9952 13.184,2.7264 12.6976,2.7264 Z M12.7744,5.0688 L11.5712,5.0688 L11.5712,6.4896 L12.7744,6.4896 C13.2992,6.4896 13.5552,6.1696 13.5552,5.7728 C13.5552,5.3888 13.2992,5.0688 12.7744,5.0688 L12.7744,5.0688 Z" id="形状" fill="#FFFFFF"></path>
                <polygon id="路径" fill="#FFFFFF" points="20.8512 2.7136 20.8512 7.4752 19.6992 7.4752 19.6992 2.7136 18.1504 2.7136 18.1504 1.7152 22.4 1.7152 22.4 2.7136"></polygon>
            </g>
        </g>
    </g>
</svg>