<?xml version="1.0" encoding="UTF-8"?>
<svg width="32px" height="32px" viewBox="0 0 32 32" version="1.1" xmlns="http://www.w3.org/2000/svg" xmlns:xlink="http://www.w3.org/1999/xlink">
    <title>CoinGecko</title>
    <g id="CoinGecko" stroke="none" stroke-width="1" fill="none" fill-rule="evenodd">
        <path d="M13.390666,14.9643419 C13.3067646,14.6455165 13.1012061,14.4105926 12.6984793,14.4105926 C12.1027792,14.4105926 11.8552701,14.9349764 11.8552701,15.4677504 C11.8552701,16.0005244 12.1027792,16.5249082 12.6984793,16.5249082 C13.1305716,16.5249082 13.3696906,16.2018878 13.4074463,15.799161 L13.8814893,15.799161 C13.8437336,16.4661772 13.3696906,16.92344 12.6984793,16.92344 C11.8636602,16.92344 11.3644468,16.2606188 11.3644468,15.4677504 C11.3644468,14.674882 11.8636602,14.0120608 12.6984793,14.0120608 C13.3235448,14.0162559 13.8185632,14.3644468 13.8772942,14.9601468 L13.390666,14.9601468 L13.390666,14.9643419 Z" id="路径" fill="#4C4C4C" fill-rule="nonzero"></path>
        <path d="M14.1709491,15.8536969 C14.1709491,15.2370215 14.5401154,14.7965391 15.1861563,14.7965391 C15.8321972,14.7965391 16.2013634,15.2412166 16.2013634,15.8536969 C16.2013634,16.4703723 15.8321972,16.9150498 15.1861563,16.9150498 C14.5401154,16.9150498 14.1709491,16.4703723 14.1709491,15.8536969 Z M15.7566859,15.8536969 C15.7566859,15.505506 15.5804929,15.1447299 15.1861563,15.1447299 C14.7918196,15.1447299 14.6156266,15.505506 14.6156266,15.8536969 C14.6156266,16.2018878 14.7918196,16.5668589 15.1861563,16.5668589 C15.5804929,16.5668589 15.7566859,16.2018878 15.7566859,15.8536969 Z" id="形状" fill="#4C4C4C" fill-rule="nonzero"></path>
        <path d="M16.5831148,14.079182 L17.5831148,14.079182 L17.5831148,14.498689 L16.5831148,14.498689 L16.5831148,14.079182 Z M16.5831148,14.8468799 L17.5831148,14.8468799 L17.5831148,16.8605139 L16.5831148,16.8605139 L16.5831148,14.8468799 Z" id="形状" fill="#4C4C4C" fill-rule="nonzero"></path>
        <path d="M17.5102255,14.8468799 L17.9297326,14.8468799 L17.9297326,15.1447299 L17.9381227,15.1531201 C18.0681699,14.9307813 18.3072889,14.792344 18.5631883,14.7965391 C18.9994756,14.7965391 19.2763503,15.031463 19.2763503,15.4803356 L19.2763503,16.864709 L18.8316728,16.864709 L18.8316728,15.5977976 C18.8232826,15.2831673 18.6974305,15.1447299 18.4373361,15.1447299 C18.1436812,15.1447299 17.9507079,15.3796539 17.9507079,15.6733089 L17.9507079,16.8605139 L17.5060304,16.8605139 L17.5060304,14.8468799 L17.5102255,14.8468799 Z" id="路径" fill="#4C4C4C" fill-rule="nonzero"></path>
        <path d="M22.2338752,16.8605139 L21.92344,16.8605139 L21.8479287,16.5332984 C21.5878343,16.8269533 21.3487153,16.927635 21.0089145,16.927635 C20.1740954,16.927635 19.674882,16.2648138 19.674882,15.4719455 C19.674882,14.6790771 20.1740954,14.0120608 21.0089145,14.0120608 C21.6171998,14.0120608 22.1248034,14.3350813 22.2003146,14.9601468 L21.7262716,14.9601468 C21.6801259,14.5951757 21.3613005,14.4063975 21.0089145,14.4063975 C20.4132145,14.4063975 20.1615102,14.9307813 20.1615102,15.4635553 C20.1615102,15.9963293 20.4132145,16.5207132 21.0089145,16.5207132 C21.5081279,16.5291033 21.7808076,16.2270582 21.7891977,15.7572103 L21.0508652,15.7572103 L21.0508652,15.3964342 L22.2338752,15.3964342 L22.2338752,16.8605139 Z" id="路径" fill="#4C4C4C" fill-rule="nonzero"></path>
        <path d="M23.0477189,15.9669638 C23.0477189,16.2815941 23.2197168,16.5626639 23.5888831,16.5626639 C23.8447824,16.5626639 24,16.449397 24.0797063,16.2270582 L24.4992134,16.2270582 C24.4027268,16.6675406 24.0293655,16.9108547 23.5888831,16.9108547 C22.9596224,16.9108547 22.6030414,16.4703723 22.6030414,15.8536969 C22.6030414,15.2831673 22.9764027,14.792344 23.5762979,14.792344 C24.2097535,14.792344 24.5998951,15.3670687 24.5285789,15.9669638 L23.0477189,15.9669638 Z M24.0839014,15.6733089 C24.0671211,15.3922391 23.8783429,15.1405349 23.5762979,15.1405349 C23.2700577,15.1405349 23.0603041,15.3754588 23.0477189,15.6733089 L24.0839014,15.6733089 Z" id="形状" fill="#4C4C4C" fill-rule="nonzero"></path>
        <path d="M26.2275826,15.5222863 C26.194022,15.2747771 26.013634,15.1447299 25.7661248,15.1447299 C25.5353959,15.1447299 25.2123755,15.266387 25.2123755,15.8788673 C25.2123755,16.214473 25.3592029,16.5668589 25.7451494,16.5668589 C26.0010488,16.5668589 26.1814368,16.394861 26.2233875,16.1054012 L26.668065,16.1054012 C26.5841636,16.6255899 26.2611432,16.9150498 25.7451494,16.9150498 C25.1158888,16.9150498 24.767698,16.4661772 24.767698,15.8746723 C24.767698,15.266387 25.0991085,14.792344 25.7619297,14.792344 C26.2275826,14.792344 26.6261143,15.027268 26.668065,15.5222863 L26.2275826,15.5222863 L26.2275826,15.5222863 Z" id="路径" fill="#4C4C4C" fill-rule="nonzero"></path>
        <polygon id="路径" fill="#4C4C4C" fill-rule="nonzero" points="27.0414263 14.079182 27.4861038 14.079182 27.4861038 15.6607236 28.2915574 14.8468799 28.8369166 14.8468799 28.0650236 15.5852124 28.9124279 16.8563188 28.3670687 16.8563188 27.7503933 15.8788673 27.4861038 16.1347666 27.4861038 16.8563188 27.0414263 16.8563188 27.0414263 14.079182"></polygon>
        <path d="M29.0298899,15.8536969 C29.0298899,15.2370215 29.3990561,14.7965391 30.045097,14.7965391 C30.6911379,14.7965391 31.0603041,15.2412166 31.0603041,15.8536969 C31.0603041,16.4703723 30.6911379,16.9150498 30.045097,16.9150498 C29.3990561,16.9150498 29.0298899,16.4703723 29.0298899,15.8536969 Z M30.6198217,15.8536969 C30.6198217,15.505506 30.4436287,15.1447299 30.045097,15.1447299 C29.6465653,15.1447299 29.4745674,15.505506 29.4745674,15.8536969 C29.4745674,16.2018878 29.6507604,16.5668589 30.045097,16.5668589 C30.4394337,16.5668589 30.6198217,16.2018878 30.6198217,15.8536969 Z" id="形状" fill="#4C4C4C" fill-rule="nonzero"></path>
        <path d="M8.90196985,15.8033561 C8.91033036,18.0015732 7.13581542,19.7928684 4.93759832,19.8012882 C2.73938123,19.8096487 0.948085999,18.0351337 0.939666227,15.8369166 C0.931305716,13.6386995 2.70582066,11.8474043 4.90403776,11.8389845 C7.10225485,11.830624 8.89355008,13.605139 8.90196985,15.8033561 Z" id="路径" fill="#8DC63F" fill-rule="nonzero"></path>
        <path d="M8.59992717,15.8033561 C8.60828526,17.8379654 6.96801259,19.4908233 4.93340325,19.5034803 C2.89879392,19.5159937 1.24593603,17.871526 1.23751384,15.8369166 C1.22915574,13.8023073 2.86942842,12.1494494 4.90403776,12.1368321 C6.93445202,12.128474 8.59150498,13.7687467 8.59992717,15.8033561 C8.59992717,15.8033561 8.59992717,15.8033561 8.59992717,15.8033561 Z" id="_Clipping_Path_" fill="#F9E988" fill-rule="nonzero"></path>
        <path d="M4.98793917,12.3759832 C5.22286314,12.3340325 5.46198217,12.3340325 5.69690614,12.3759832 C5.9318301,12.4137389 6.16255899,12.4892501 6.37231253,12.602517 C6.58206607,12.719979 6.76245412,12.8751966 6.94284216,13.0220241 C7.1232302,13.1688516 7.30361825,13.3198741 7.47561615,13.4834819 C7.65180912,13.6470897 7.80283167,13.8274777 7.9286838,14.0288411 C8.05873099,14.2302045 8.16360776,14.4441531 8.24750918,14.6664919 C8.40692187,15.1153644 8.44887257,15.5977976 8.37755637,16.0676455 L8.35238595,16.0676455 C8.28526481,15.6187729 8.16780283,15.1782905 8.00839014,14.7503933 C7.93287887,14.5406397 7.84058731,14.3350813 7.73990561,14.137913 C7.63083377,13.9407446 7.51337179,13.7477714 7.38332459,13.5631883 C7.24908233,13.3744101 7.08966964,13.2108023 6.90089145,13.07656 C6.71630834,12.9423178 6.49816466,12.8584164 6.29260619,12.7745149 C6.08704772,12.6906135 5.87729418,12.6109072 5.6591505,12.5479811 C5.44100682,12.4850551 5.22286314,12.4389093 4.99213424,12.3927635 L4.98793917,12.3759832 Z" id="_Path_" fill="#FFFFFF" fill-rule="nonzero"></path>
        <path d="M6.78762454,14.5028841 C6.51914001,14.4231778 6.24226534,14.3141059 5.9611956,14.2050341 C5.94441531,14.1337179 5.88148925,14.0456214 5.75563713,13.9407446 C5.57105401,13.7813319 5.22705821,13.785527 4.92920818,13.8568432 C4.60199266,13.7813319 4.27477714,13.7519664 3.9643419,13.8274777 C1.41793393,14.5280545 2.86523335,16.2396434 1.92973256,17.9596224 C2.06397483,18.2406922 3.49449397,19.889355 5.57105401,19.4446775 C5.57105401,19.4446775 4.86208705,17.7414788 6.46040902,16.92344 C7.76088096,16.2564237 8.70057682,15.027268 6.78762454,14.5028841 Z" id="路径" fill="#8BC53F" fill-rule="nonzero"></path>
        <path d="M7.10225485,15.622968 C7.10225485,15.7068694 7.03513372,15.7781856 6.9512323,15.7781856 C6.86733089,15.7781856 6.79601468,15.7110645 6.79601468,15.6271631 C6.79601468,15.5432617 6.86313582,15.4719455 6.94703723,15.4719455 C6.94703723,15.4719455 6.94703723,15.4719455 6.94703723,15.4719455 C7.03093865,15.4677504 7.10225485,15.5390666 7.10225485,15.622968 C7.10225485,15.622968 7.10225485,15.622968 7.10225485,15.622968 Z" id="路径" fill="#FFFFFF" fill-rule="nonzero"></path>
        <path d="M4.93340325,13.8568432 C5.11798637,13.8694284 5.78919769,14.0875721 5.9611956,14.2050341 C5.81856319,13.785527 5.33193498,13.7309911 4.93340325,13.8568432 Z" id="路径" fill="#009345" fill-rule="nonzero"></path>
        <path d="M5.10959622,14.914001 C5.10959622,15.3083377 4.79077084,15.6271631 4.39643419,15.6271631 C4.00209754,15.6271631 3.68327216,15.3083377 3.68327216,14.914001 C3.68327216,14.5196644 4.00209754,14.200839 4.39643419,14.200839 L4.39643419,14.200839 C4.79077084,14.200839 5.10959622,14.5196644 5.10959622,14.914001 Z" id="路径" fill="#FFFFFF" fill-rule="nonzero"></path>
        <path d="M4.89984268,14.9181961 C4.89984268,15.1950708 4.67750393,15.4174095 4.40062926,15.4216046 C4.12375459,15.4216046 3.90141584,15.1992659 3.90141584,14.9223912 C3.90141584,14.6455165 4.12375459,14.4231778 4.40062926,14.4231778 C4.40062926,14.4231778 4.40062926,14.4231778 4.40062926,14.4231778 C4.67330886,14.4189827 4.89984268,14.6413214 4.89984268,14.9181961 Z" id="路径" fill="#58595B" fill-rule="nonzero"></path>
        <path d="M7.67697955,15.9375983 C7.09805978,16.3445202 6.44362874,16.6507604 5.51232302,16.6507604 C5.07603566,16.6507604 4.98793917,16.1893026 4.70267436,16.4158364 C4.55165181,16.5332984 4.03146303,16.7933928 3.61615102,16.7766125 C3.20083901,16.7598322 2.52543262,16.512323 2.33665443,15.6271631 C2.26114316,16.5165181 2.22338752,17.1667541 1.89197693,17.9176717 C2.55479811,18.9790246 4.1363398,19.8012585 5.57524908,19.4488726 C5.42003146,18.3707394 6.36392239,17.3177766 6.89250131,16.7766125 C7.08966964,16.5668589 7.47981122,16.2312533 7.67697955,15.9375983 L7.67697955,15.9375983 Z" id="路径" fill="#8BC53F" fill-rule="nonzero"></path>
        <path d="M7.6560042,15.9627687 C7.47142108,16.1221814 7.26586261,16.2522286 7.04771893,16.3529103 C6.82957525,16.4577871 6.59884636,16.5416885 6.36392239,16.6004195 C6.12899843,16.6633456 5.88148925,16.7052963 5.63398007,16.6843209 C5.3864709,16.6633456 5.13057158,16.5752491 4.96696382,16.390666 L4.97535396,16.3822758 C5.17671736,16.512323 5.41164132,16.5584688 5.64237021,16.5668589 C5.87729418,16.5752491 6.11221814,16.5542737 6.34294704,16.5081279 C6.577871,16.4577871 6.80440482,16.390666 7.02254851,16.2983744 C7.24488726,16.214473 7.4546408,16.097011 7.64761405,15.9543786 L7.6560042,15.9627687 Z" id="路径" fill="#58595B" fill-rule="nonzero"></path>
        <rect id="矩形" x="0" y="11" width="32" height="9.64027268"></rect>
    </g>
</svg>