<?xml version="1.0" encoding="UTF-8"?>
<svg width="32px" height="32px" viewBox="0 0 32 32" version="1.1" xmlns="http://www.w3.org/2000/svg" xmlns:xlink="http://www.w3.org/1999/xlink">
    <title>Coinbase</title>
    <g id="Coinbase" stroke="none" stroke-width="1" fill="none" fill-rule="evenodd">
        <path d="M16,0 L16,0 C24.8364425,0 32,7.16355748 32,16 L32,16 C32,24.8364425 24.8364425,32 16,32 L16,32 C7.16355748,32 0,24.8364425 0,16 L0,16 C0,7.16355748 7.16355748,0 16,0 Z" id="路径" fill="#0052FF" fill-rule="nonzero"></path>
        <path d="M16.0069414,21.6225597 C12.89718,21.6225597 10.3843818,19.10282 10.3843818,16 C10.3843818,12.89718 12.9041215,10.3774403 16.0069414,10.3774403 C18.7904555,10.3774403 21.1019523,12.4043384 21.5462039,15.0629067 L27.2104121,15.0629067 C26.7314534,9.28763557 21.9002169,4.74793926 16,4.74793926 C9.78741866,4.74793926 4.74793926,9.78741866 4.74793926,16 C4.74793926,22.2125813 9.78741866,27.2520607 16,27.2520607 C21.9002169,27.2520607 26.7314534,22.7123644 27.2104121,16.9370933 L21.5392625,16.9370933 C21.0950108,19.5956616 18.7904555,21.6225597 16.0069414,21.6225597 Z" id="路径" fill="#FFFFFF" fill-rule="nonzero"></path>
    </g>
</svg>