<?xml version="1.0" encoding="UTF-8"?>
<svg width="32px" height="32px" viewBox="0 0 32 32" version="1.1" xmlns="http://www.w3.org/2000/svg" xmlns:xlink="http://www.w3.org/1999/xlink">
    <title>CoinGecko</title>
    <g id="CoinGecko" stroke="none" stroke-width="1" fill="none" fill-rule="evenodd">
        <g id="编组" fill-rule="nonzero">
            <path d="M32,15.9325611 C32.0336004,24.767058 24.9019359,31.9661615 16.0674389,32 C7.23294196,32.0336004 0.0338385351,24.9019359 0,16.0674389 C-0.0336003729,7.23294196 7.09806415,0.0338385351 15.9325611,0 C24.767058,-0.0336003729 31.9661615,7.09806415 32,15.9325611 Z" id="路径" fill="#8DC63F"></path>
            <path d="M30.7861094,15.9325611 C30.8197,24.1095287 24.2275468,30.7522611 16.0505792,30.8031287 C7.87361159,30.8534195 1.23087915,24.2444065 1.19703091,16.0674389 C1.16344024,7.89047132 7.7555935,1.24773888 15.9325611,1.19703091 C24.092669,1.16344024 30.7522611,7.7555935 30.7861094,15.9325611 C30.7861094,15.9325611 30.7861094,15.9325611 30.7861094,15.9325611 Z" id="_Clipping_Path_" fill="#F9E988"></path>
            <path d="M16.2697556,2.15816414 C17.2139003,1.98956687 18.1749048,1.98956687 19.1190495,2.15816414 C20.0631942,2.30990168 20.9904792,2.61337677 21.8334655,3.06858939 C22.6764519,3.54066175 23.4014202,4.16447165 24.1263884,4.75456209 C24.8513567,5.34465254 25.5763249,5.95160271 26.2675737,6.60913206 C26.9756823,7.26666142 27.5826324,7.99162968 28.0884243,8.80089657 C28.6110758,9.61016347 29.032569,10.4700095 29.3697635,11.3635751 C30.0104331,13.1675659 30.1790304,15.1064345 29.892415,16.9947239 L29.7912567,16.9947239 C29.5215011,15.1907331 29.0494287,13.4204618 28.4087591,11.7007696 C28.105284,10.8577833 27.73437,10.0316566 27.3297365,9.23924947 C26.8913836,8.44684231 26.4193113,7.67129486 25.8966597,6.92946688 C25.3571485,6.17077916 24.7164789,5.51324981 23.9577911,4.97373854 C23.2159632,4.43422728 22.3392574,4.09703274 21.5131307,3.7598382 C20.6870041,3.42264366 19.8440178,3.10230885 18.967312,2.84941294 C18.0906061,2.59651704 17.2139003,2.41106004 16.2866154,2.22560304 L16.2697556,2.15816414 Z" id="_Path_" fill="#FFFFFF"></path>
            <path d="M23.5025785,10.7060457 C22.423556,10.3857109 21.310814,9.94735801 20.1812123,9.50900511 C20.1137734,9.22238975 19.8608775,8.86833548 19.3550857,8.44684231 C18.6132577,7.80617268 17.2307601,7.82303241 16.0337195,8.10964777 C14.7186607,7.80617268 13.403602,7.68815459 12.1559822,7.99162968 C1.92212796,10.8072041 7.73873377,17.6859727 3.97901465,24.5984608 C4.51852592,25.7280625 10.2676928,32.3539352 18.6132577,30.5668041 C18.6132577,30.5668041 15.7639638,23.721755 22.1875198,20.4341082 C27.4140352,17.7534116 31.190614,12.8135116 23.5025785,10.7060457 Z" id="路径" fill="#8BC53F"></path>
            <path d="M24.767058,15.2075928 C24.767058,15.5447874 24.4973024,15.8314027 24.1601079,15.8314027 C23.8229133,15.8314027 23.536298,15.5616471 23.536298,15.2244526 C23.536298,14.887258 23.8060536,14.6006427 24.1432481,14.6006427 C24.1432481,14.6006427 24.1432481,14.6006427 24.1432481,14.6006427 C24.4804427,14.5837829 24.767058,14.8703983 24.767058,15.2075928 C24.767058,15.2075928 24.767058,15.2075928 24.767058,15.2075928 Z" id="路径" fill="#FFFFFF"></path>
            <path d="M16.0505792,8.10964777 C16.7924072,8.16022695 19.4899635,9.03693275 20.1812123,9.50900511 C19.6079816,7.82303241 17.6522532,7.60385596 16.0505792,8.10964777 Z" id="路径" fill="#009345"></path>
            <path d="M16.7586877,12.358299 C16.7586877,13.9431133 15.4773485,15.2244526 13.8925341,15.2244526 C12.3077198,15.2244526 11.0263805,13.9431133 11.0263805,12.358299 C11.0263805,10.7734846 12.3077198,9.49214538 13.8925341,9.49214538 L13.8925341,9.49214538 C15.4773485,9.49214538 16.7586877,10.7734846 16.7586877,12.358299 Z" id="路径" fill="#FFFFFF"></path>
            <path d="M15.9157014,12.3751587 C15.9157014,13.4879007 15.0221358,14.3814662 13.9093939,14.3983259 C12.7966519,14.3983259 11.9030863,13.5047604 11.9030863,12.3920184 C11.9030863,11.2792764 12.7966519,10.3857109 13.9093939,10.3857109 C13.9093939,10.3857109 13.9093939,10.3857109 13.9093939,10.3857109 C15.0052761,10.3688512 15.9157014,11.2624167 15.9157014,12.3751587 Z" id="路径" fill="#58595B"></path>
            <path d="M27.0768406,16.4720724 C24.7501983,18.1074659 22.1200809,19.3382259 18.3772215,19.3382259 C16.6238099,19.3382259 16.2697556,17.483656 15.1232942,18.3940812 C14.516344,18.8661536 12.4257379,19.9114567 10.7566249,19.8440178 C9.08751193,19.7765788 6.37309589,18.781855 5.61440817,15.2244526 C5.31093308,18.7987147 5.15919554,21.4119724 3.82727711,24.4298635 C6.49111397,28.6953744 12.8472311,31.9998809 18.6301174,30.5836639 C18.0063075,26.250714 21.7997461,22.0189225 23.9240717,19.8440178 C24.7164789,19.0010314 26.2844335,17.6522532 27.0768406,16.4720724 L27.0768406,16.4720724 Z" id="路径" fill="#8BC53F"></path>
            <path d="M26.992542,16.5732307 C26.250714,17.2139003 25.4245874,17.7365519 24.5478816,18.1411853 C23.6711758,18.5626785 22.7438908,18.899873 21.7997461,19.1359092 C20.8556014,19.3888051 19.8608775,19.5574024 18.8661536,19.4731038 C17.8714297,19.3888051 16.8429863,19.0347509 16.185457,18.2929229 L16.2191765,18.2592034 C17.0284433,18.781855 17.9725881,18.967312 18.899873,19.0010314 C19.8440178,19.0347509 20.7881625,18.9504522 21.7154475,18.7649952 C22.6595922,18.5626785 23.5700174,18.2929229 24.4467232,17.9220089 C25.3402888,17.5848143 26.1832751,17.112742 26.9588225,16.5395113 L26.992542,16.5732307 Z" id="路径" fill="#58595B"></path>
        </g>
    </g>
</svg>