<?xml version="1.0" encoding="UTF-8"?>
<svg width="32px" height="32px" viewBox="0 0 32 32" version="1.1" xmlns="http://www.w3.org/2000/svg" xmlns:xlink="http://www.w3.org/1999/xlink">
    <title>coindesk</title>
    <g id="coindesk" stroke="none" stroke-width="1" fill="none" fill-rule="evenodd">
        <path d="M0,24 L0,8 C-5.41083001e-16,3.581722 3.581722,8.11624501e-16 8,0 L24,0 C28.418278,-8.11624501e-16 32,3.581722 32,8 L32,24 C32,28.418278 28.418278,32 24,32 L8,32 C3.581722,32 5.41083001e-16,28.418278 0,24 Z" id="路径" fill="#000000" fill-rule="nonzero"></path>
        <path d="M18.0058757,6.26259887 C19.0888136,7.26056497 20.520678,7.28045198 21.7084746,6.3620339 C22.1523164,6.01943503 22.6350282,5.66960452 23.1575141,5.49785311 C24.3525424,5.10553672 25.6705085,5.71389831 26.2580791,6.82214689 C26.8745763,7.98553672 26.6115254,9.37581921 25.6171751,10.2128814 C24.640904,11.0345763 23.2108475,11.0625989 22.1911864,10.2978531 C21.7274576,9.95073446 21.279096,9.54124294 20.7557062,9.32429379 C19.7532203,8.91028249 18.8266667,9.20316384 18.0574011,9.93175141 C16.7548023,11.1647458 15.2135593,11.1755932 13.9362712,9.93355932 C13.1480226,9.1679096 12.0433898,8.94644068 11.0562712,9.35683616 C9.97514124,9.80700565 9.2420339,10.8917514 9.24564972,12.0361582 C9.22937853,12.8388701 9.58915254,13.4752542 10.1098305,14.0528814 C10.8420339,14.8655367 11.099661,15.8083616 10.7082486,16.8470056 C10.559096,17.2411299 10.2960452,17.6144633 10.0131073,17.9326554 C9.20587571,18.8420339 8.99887006,20.0253107 9.51864407,21.0657627 C10.079096,22.1875706 11.140339,22.8058757 12.3462147,22.6901695 C13.0684746,22.620565 13.6334463,22.2309605 14.1622599,21.7636158 C15.1665537,20.8759322 16.5378531,20.8135593 17.6144633,21.5891525 C18.8646328,22.4894915 19.1023729,24.2829379 18.1342373,25.5050847 C17.2022599,26.6811299 15.4160452,26.8637288 14.2580791,25.9055367 C13.9353672,25.6379661 13.6316384,25.3279096 13.2682486,25.1344633 C12.1943503,24.5622599 11.0571751,24.7810169 10.1288136,25.679548 C8.65084746,27.1105085 6.32316384,26.659435 5.59457627,24.7755932 C5.18418079,23.7134463 5.39841808,22.7254237 6.17491525,21.8946893 C7.41966102,20.5622599 7.4259887,19.1548023 6.16045198,17.840452 C5.1100565,16.7484746 5.15344633,15.1132203 6.26983051,13.9525424 C7.04723164,13.1435028 7.33559322,12.2061017 6.92248588,11.1457627 C6.76429379,10.7389831 6.48587571,10.3538983 6.18214689,10.0338983 C5.15706215,8.95367232 5.14079096,7.28949153 6.1839548,6.2119774 C7.20723164,5.15435028 8.88677966,5.10282486 9.97514124,6.09446328 C11.3527684,7.3500565 12.6219209,7.37084746 14.0763842,6.16045198 C15.3780791,5.07751412 16.7584181,5.11367232 18.0058757,6.26259887 Z M23.8472316,22.9053053 C24.3444068,22.9080226 24.800904,23.3672316 24.7954802,23.859887 C24.7918644,24.3588701 24.3425989,24.8135593 23.8472316,24.820791 C23.3554802,24.8280226 22.9080226,24.3715254 22.9071173,23.8616949 C22.9062147,23.3509605 23.3464407,22.9035028 23.8472316,22.9053053 Z M16.0162712,15.299435 C16.5369492,15.3048588 16.9428249,15.7242938 16.9374011,16.2512994 C16.9319774,16.7674576 16.500791,17.1787571 15.9764972,17.1679096 C15.4540113,17.1579661 15.0508475,16.7385311 15.059887,16.2142373 C15.0680226,15.6935593 15.4874576,15.2931073 16.0162712,15.299435 Z M23.8743503,15.2298305 C24.3615819,15.239774 24.7981921,15.68 24.7981921,16.16 C24.7981921,16.6779661 24.3697175,17.1019209 23.8472316,17.1019209 C23.3120904,17.1019209 22.9143503,16.6978531 22.9152527,16.1536723 C22.9152527,15.6266667 23.340113,15.2180791 23.8743503,15.2298305 Z" id="形状结合" fill="#F8C11E" fill-rule="nonzero"></path>
    </g>
</svg>