<?xml version="1.0" encoding="UTF-8"?>
<svg width="32px" height="32px" viewBox="0 0 32 32" version="1.1" xmlns="http://www.w3.org/2000/svg" xmlns:xlink="http://www.w3.org/1999/xlink">
    <title>CoinMarketCap</title>
    <g id="CoinMarketCap" stroke="none" stroke-width="1" fill="none" fill-rule="evenodd">
        <path d="M24.0000001,32.0034415 L8.00000008,31.9999562 C3.58217582,31.9993146 0.00116184035,28.4177806 0.00116184035,23.9999563 L-8.8817842e-16,8 C-1.42926142e-15,3.581722 3.581722,-9.64732338e-16 8,-1.77635684e-15 L24,0 C28.418278,-8.11624501e-16 32,3.581722 32,8 L32.0011617,24.0046033 C32.0011617,28.4228813 28.4194397,32.0046033 24.0011617,32.0046033 C24.0007744,32.0046033 24.0003872,32.0046033 23.9999999,32.0046032 Z" id="路径" fill="#2B6AFF" fill-rule="nonzero"></path>
        <path d="M19.6364799,14.67266 C19.4615451,14.943809 19.2866102,15.2193314 19.1160488,15.4904804 C18.4644165,16.5182226 17.8390244,17.5590849 17.2048856,18.5955739 C17.0037105,18.9235767 16.7631751,19.2209659 16.4482924,19.4527546 C15.4861508,20.1612407 14.4933955,19.4440079 14.3796879,18.6043206 C14.3009672,18.0620226 14.2528601,17.5153512 14.2441134,16.9686798 C14.23974,16.334541 14.2441134,15.7004022 14.2441134,15.0706368 C14.2441134,14.978796 14.2353666,14.8869552 14.2309933,14.7951144 C14.1872596,14.7951144 14.1828862,14.8301014 14.1697661,14.8475949 C12.9714624,16.828732 11.7119315,18.7748821 10.4873876,20.7385257 C10.4130403,20.8566067 10.3430664,20.9790611 10.2643457,21.0971421 C10.2293587,21.1496226 10.2293587,21.1846096 10.2774658,21.23709 C11.5151298,22.5184877 12.9845825,23.3844152 14.7601712,23.6555642 C16.9162431,23.9879404 18.8755134,23.5024962 20.6292352,22.1992317 C20.8435303,22.0417903 21.0359587,21.8581087 21.2458805,21.6919206 C21.5039094,21.4907455 21.7881785,21.3682911 22.1293014,21.4470118 C22.1774085,21.4557586 22.2167689,21.4776254 22.2517558,21.508239 C22.3304765,21.5869597 22.4091972,21.6569336 22.4966646,21.7269076 C22.7590669,21.9193359 22.772187,22.1773648 22.7022131,22.4616339 C22.6147456,22.7983835 22.382957,23.0301722 22.1249281,23.240094 C20.9353711,24.2284758 19.5971196,24.9325886 18.0751864,25.2518447 C15.1625213,25.86849 12.5078851,25.2824583 10.1681315,23.441269 C8.38379611,22.0374169 7.251093,20.2006011 6.7525287,17.9789286 C6.4944998,16.828732 6.46825958,15.6654152 6.64319442,14.4977252 C7.17674569,10.8678272 9.76578138,8.11697674 12.6653264,7.01488723 C13.6012278,6.6562708 14.5852363,6.4594691 15.5867383,6.4288555 C16.6800811,6.39386853 17.751557,6.4900827 18.8011661,6.82683227 C20.2006448,7.26854275 21.4776692,8.02950932 22.5316516,9.04850479 C23.9879842,10.4567303 24.9063921,12.1579716 25.2912487,14.1478555 C25.4793037,15.1187439 25.5230374,16.098379 25.3655961,17.0736407 C25.1775411,18.2500776 24.2241462,19.4177676 22.9340017,19.6626764 C21.6569774,19.9075852 20.4674204,19.2472062 19.9513626,18.0007954 C19.7283207,17.4628708 19.6670935,16.8987059 19.6670935,16.3257943 C19.6670935,15.7966164 19.6670935,15.2718118 19.6670935,14.7426339 C19.6670935,14.7251405 19.6670935,14.707647 19.6627202,14.6901535 L19.6364799,14.67266 Z" id="路径" fill="#FEFEFE" fill-rule="nonzero"></path>
        <path d="M15.971595,17.2223354 L15.971595,16.4307552 C15.971595,15.3417858 15.9759683,14.248443 15.9628482,13.1594736 C15.9584748,12.7177631 15.8578873,12.2979195 15.5342578,11.9655433 C15.241242,11.6725274 14.7995315,11.5894334 14.4190482,11.7512481 C14.156646,11.8649558 13.933604,12.0530107 13.7717893,12.2935461 C13.3869326,12.8402175 13.0633032,13.4262492 12.7003134,13.9860407 C11.5282499,15.7747495 10.4349072,17.6115654 9.28033719,19.4090209 C9.18849639,19.5533421 9.10977571,19.5577155 9.03105503,19.3959008 C8.93484087,19.2034725 8.85174682,19.0066708 8.77302614,18.8054957 C8.43627657,17.9570617 8.26134172,17.0561473 8.24822161,16.1421127 C8.22198138,14.2353229 8.75553266,12.5078413 9.95820971,11.0208951 C11.1390199,9.5601892 12.6565797,8.61116768 14.510889,8.27004473 C17.1917655,7.78022717 19.5183989,8.52807363 21.4558023,10.4217433 C22.6628527,11.5981801 23.3625921,13.0588861 23.6424878,14.7251405 C23.7474488,15.3374124 23.7693156,15.9628045 23.7080884,16.5794498 C23.6599813,17.0342804 23.4762997,17.4322572 23.1133099,17.725273 C22.8115473,17.9658084 22.4704244,18.1013829 22.0899411,17.948315 C21.687591,17.7908736 21.4820425,17.4628708 21.4120686,17.0430271 C21.3114811,16.4307552 21.3246012,15.8141099 21.3377213,15.1974645 C21.346468,14.67266 21.381455,14.1391087 21.2677473,13.6186776 C21.1321728,13.0151524 20.7823032,12.586562 20.1569111,12.4291206 C19.8551485,12.3547733 19.5752527,12.4553609 19.3128505,12.5953087 C18.9148737,12.8096039 18.6131111,13.1332334 18.3594556,13.4962232 C17.904625,14.1391087 17.5110216,14.825728 17.091178,15.4948538 C16.7413083,16.0546453 16.3914386,16.6144368 16.0415689,17.1742283 C16.0284488,17.1917218 16.0153287,17.2135886 16.0022086,17.2310821 L15.971595,17.2223354 Z" id="路径" fill="#2B6AFF" fill-rule="nonzero"></path>
    </g>
</svg>