<?xml version="1.0" encoding="UTF-8"?>
<svg width="32px" height="32px" viewBox="0 0 32 32" version="1.1" xmlns="http://www.w3.org/2000/svg" xmlns:xlink="http://www.w3.org/1999/xlink">
    <title>CryptoZombiespng</title>
    <g id="CryptoZombiespng" stroke="none" stroke-width="1" fill="none" fill-rule="evenodd">
        <circle id="椭圆形" fill="#FFFFFF" cx="15" cy="17" r="13"></circle>
        <path d="M12.6629894,21.3571659 C13.5381304,21.3571659 16.464129,23.2297385 16.7487625,23.6420428 C17.0333961,24.0543471 16.0768556,26.1904974 16.7487625,27.7343064 C17.2403308,28.8637597 17.5009645,29.4132466 17.511305,29.7571665 C16.6980225,29.9167373 15.8587348,30 15,30 C12.7303937,30 10.5966302,29.4183878 8.7396236,28.3960776 C8.86153917,26.9836415 9.11157464,25.777899 9.48903117,24.7772112 C10.3557634,22.4793879 11.7878484,21.3571659 12.6629894,21.3571659 Z" id="形状结合" fill="#2D2F12"></path>
        <path d="M12.6629894,21.2197312 C13.4701063,21.2197312 16.4724657,22.9999029 16.8618639,23.5639634 C16.996401,23.7588463 16.992033,23.7977009 16.7891638,24.9803251 C16.6836881,25.5951945 16.635273,26.0300473 16.6421979,26.4702226 C16.6494022,26.9281538 16.7227319,27.3301082 16.8747794,27.6794605 C17.3853148,28.8524937 17.4659902,29.0350582 17.5064698,29.1534372 L17.5118561,29.1695091 C17.5135915,29.1747903 17.5152795,29.1800259 17.5169586,29.1853069 L17.520316,29.1959565 C17.5298589,29.2264547 17.5399329,29.2603606 17.5575089,29.3142453 C17.610401,29.4764025 17.640973,29.6125859 17.647737,29.7313823 C17.5595349,29.7484103 17.4722952,29.765519 17.3847475,29.7817504 C17.3857785,29.5573949 17.2009023,29.1175555 16.6227457,27.7891523 C16.4548275,27.4033344 16.3750989,26.9663047 16.3673624,26.4745464 C16.3601078,26.0134142 16.4101243,25.564178 16.5182514,24.9338524 L16.5480559,24.7594637 L16.5973147,24.4654536 C16.6895463,23.9024219 16.6895248,23.7981461 16.6356611,23.7201222 C16.2948831,23.2264902 13.3739544,21.4946007 12.6629894,21.4946007 C11.7095491,21.4946007 10.3792847,22.8064461 9.61762221,24.8257153 C9.23960288,25.8278952 8.99044848,27.0413309 8.87077139,28.4657082 C8.78239822,28.419959 8.69497223,28.3718201 8.60816705,28.3227119 C8.73301601,26.9244431 8.98382034,25.7271765 9.36044012,24.728707 C10.1580453,22.6141488 11.5720413,21.2197312 12.6629894,21.2197312 Z" id="形状结合" fill="#161616"></path>
        <path d="M25.3798374,23.9169123 C25.6004007,23.9169123 25.8824108,24.2398051 25.5413635,24.2398051 C25.4355474,24.2398051 25.3387027,24.2643672 25.24638,24.306753 C25.551113,24.3881308 25.7776439,24.5908642 25.9132331,24.9160921 C25.9635157,25.0367012 25.921469,25.1826022 25.8193194,25.2419712 C25.774921,25.2677754 25.7264759,25.2729855 25.6817606,25.2607258 C25.6865782,25.3257606 25.6780443,25.3996505 25.6571184,25.4794239 C25.6282299,25.5895526 25.5155341,25.6554108 25.4054053,25.6265222 C25.2952766,25.5976337 25.2294184,25.4849379 25.258307,25.3748091 C25.2977866,25.2243054 25.2631121,25.1898298 25.0117166,25.1898298 C24.7622674,25.1898298 24.5570317,25.3002131 24.3854453,25.5365223 C24.3851944,25.550124 24.3850074,25.5614013 24.3849572,25.5726325 C24.6341252,25.397995 24.9319274,25.4535261 25.2505801,25.737286 C25.3468731,25.8230348 25.3756864,26.0027314 25.3149366,26.1386494 C25.3010509,26.1697164 25.2836878,26.1958072 25.2640127,26.2165495 C25.5730027,26.2198624 25.8489035,26.2127051 25.8489035,26.3041706 C25.8489035,26.4602175 25.4780859,26.5533712 24.9524613,26.5533712 C24.4268367,26.5533712 24.4917366,27.1029031 22.167722,27.517068 C20.618379,27.793178 18.938034,27.3239757 17.1266871,26.1094612 L17.6815501,24.3292166 C19.6459991,25.9293946 21.0726147,26.6999556 21.9613971,26.6408995 C23.2945707,26.5523153 22.9327644,26.0199099 23.9426128,24.9684111 C24.8562853,24.0170551 25.1125974,23.9264497 25.3164879,23.9178206 Z" id="形状结合" fill="#9FB748"></path>
        <path d="M25.7844925,24.0005506 C25.8816423,24.1419999 25.8427557,24.283163 25.7074043,24.3449039 L25.6962937,24.3495569 L25.7007754,24.3526556 C25.8305465,24.4461969 25.9367793,24.5684571 26.0170211,24.7180832 L26.0365387,24.756059 C26.1203429,24.9263085 26.0502652,25.1322597 25.8800157,25.2160639 C25.8638531,25.2240198 25.8472654,25.2306245 25.8304004,25.2358873 L25.8198475,25.2386223 L25.820759,25.2495149 C25.8241825,25.3208382 25.8170804,25.3961843 25.7996377,25.4747488 L25.7900556,25.5142955 C25.7515375,25.6611338 25.623625,25.7607502 25.4800242,25.7700716 L25.4777724,25.7700825 L25.4798622,25.78033 C25.4914668,25.8527095 25.4800849,25.9290549 25.4430539,25.9976022 L25.4311725,26.0179207 C25.4185162,26.0379818 25.4041267,26.0562855 25.3883215,26.0727601 L25.3817055,26.0790358 L25.3999303,26.0793968 C25.5601164,26.0814656 25.6361725,26.0842445 25.7079213,26.0926264 L25.7232592,26.09451 C25.8856426,26.1154087 25.9863382,26.1634504 25.9863382,26.3041706 C25.9863382,26.5802988 25.5772845,26.690806 24.9524613,26.690806 C24.8746707,26.690806 24.8134452,26.7050958 24.7445041,26.7373117 C24.6846452,26.7652836 24.3936967,26.9486254 24.3007187,27.000333 C24.0385637,27.1461247 23.7348031,27.2727418 23.3276097,27.3927478 C23.0061057,27.4874999 22.6307849,27.5741452 22.1918345,27.652371 C20.603862,27.9353651 18.8888911,27.4564943 17.0501491,26.2236113 C16.9996154,26.1897283 16.9773737,26.1266519 16.9954777,26.0685661 L17.5503407,24.2883215 C17.5792885,24.195444 17.6929209,24.1612189 17.7683481,24.2226595 C19.7064868,25.8014059 21.1104041,26.5597068 21.9522852,26.5037671 C22.5773311,26.4622353 22.7932383,26.3459371 23.0215784,25.9989911 C23.0497573,25.9561755 23.2467708,25.6336037 23.3223013,25.5205116 C23.4722114,25.2960508 23.6357509,25.0895186 23.8434885,24.8732131 C24.6396554,24.0442089 24.9852731,23.7989735 25.2996168,23.7810549 L25.3200314,23.7801591 C25.3254038,23.7799935 25.3254038,23.7799935 25.3317577,23.7798451 L25.3519001,23.7795541 L25.379458,23.7794776 C25.5310194,23.7794776 25.7000906,23.8776619 25.7844925,24.0005506 Z M25.3802167,24.0543465 L25.3543338,24.0544078 L25.3369422,24.0546636 C25.3329373,24.0547608 25.3329373,24.0547608 25.3305986,24.0548206 L25.3135315,24.0555664 C25.0945374,24.0680575 24.7910276,24.283415 24.0417372,25.0636092 C23.8456983,25.2677335 23.6921478,25.4616508 23.5508798,25.6731718 C23.4793182,25.7803211 23.2829528,26.1018317 23.2511829,26.1501037 C22.9735504,26.5719458 22.6782583,26.7310047 21.970509,26.7780318 C21.0694804,26.8379016 19.6921634,26.1142109 17.8137208,24.6125004 L17.7524276,24.5634054 L17.2884478,26.0518237 L17.3675051,26.1036327 C19.0610096,27.2013412 20.628837,27.6290831 22.0737884,27.3936733 L22.1436096,27.381765 C22.572991,27.3052445 22.9385288,27.2208577 23.2499058,27.1290902 C23.6378476,27.0147578 23.9228546,26.8959578 24.1671253,26.7601122 C24.2467067,26.7158547 24.5495761,26.525001 24.6281369,26.4882898 C24.7326444,26.4394538 24.8334058,26.4159365 24.9524613,26.4159365 C25.2029176,26.4159365 25.4160303,26.3940303 25.5619481,26.3546101 L25.5507503,26.3573412 L25.5368622,26.3569495 C25.499044,26.3558202 25.4535483,26.354988 25.3966516,26.3542482 L25.3611156,26.3538138 C25.2466336,26.3524925 25.1993935,26.3517214 25.1360783,26.3497277 C24.906342,26.3424936 24.7396316,26.3230406 24.6058698,26.2790153 C24.4948517,26.2424757 24.4082589,26.163014 24.3484374,26.0524217 C24.3197252,25.9993414 24.3289991,25.9337407 24.3712999,25.8906994 C24.565163,25.6934426 24.8028261,25.7027557 25.1039169,25.8927097 C25.1360145,25.9129596 25.1784507,25.9033552 25.1987006,25.8712575 C25.2189506,25.8391599 25.2093462,25.7967237 25.1772485,25.7764738 C24.8968444,25.5995707 24.6484724,25.5661678 24.4464386,25.6663186 C24.3537165,25.7122822 24.2453802,25.6431488 24.2480082,25.5396928 L24.2481385,25.5341257 C24.2486001,25.5058794 24.257755,25.4784615 24.2743568,25.4556044 C24.4694334,25.1870279 24.7144196,25.052395 25.0117166,25.052395 C25.3360368,25.052395 25.4596633,25.1488538 25.3912441,25.4096807 C25.3816146,25.4463903 25.4035673,25.4839556 25.4402769,25.4935851 C25.4769865,25.5032146 25.5145518,25.4812619 25.5241813,25.4445523 C25.5554404,25.3253866 25.553468,25.2263884 25.5230544,25.1493399 C25.4787041,25.0369842 25.5904604,24.9261732 25.7024353,24.9714764 C25.720621,24.978834 25.7407211,24.9782648 25.758623,24.9694527 C25.7926729,24.9526919 25.8066884,24.9115017 25.7899276,24.8774518 C25.6750148,24.6440049 25.4866304,24.4976377 25.2241698,24.4365732 C25.0957949,24.4067052 25.079009,24.2307612 25.1994204,24.1771579 C25.3101376,24.1278702 25.4229402,24.1023704 25.5413635,24.1023704 L25.5037476,24.1034113 C25.4691882,24.0787523 25.4290459,24.0603305 25.3958151,24.0555585 L25.3798374,24.0543465 L25.3802167,24.0543465 Z M25.0117166,25.3272645 C24.9575267,25.3272645 24.9062447,25.3335033 24.8574483,25.3463383 L24.8462597,25.3495322 L24.8746642,25.3547739 C24.9476814,25.3695831 25.021909,25.3928632 25.0969244,25.4244545 L25.1141201,25.431993 L25.114042,25.4277795 C25.1140144,25.4060317 25.1160668,25.3840138 25.1203447,25.3619746 L25.1253699,25.3399376 L25.1273138,25.3316656 L25.1140157,25.3304619 C25.0931268,25.3287531 25.0674625,25.327732 25.0362133,25.327392 L25.0117166,25.3272645 Z M24.6616605,24.5788448 C24.6947305,24.5477077 24.7410489,24.5349211 24.7854094,24.5446827 C24.7917235,24.5460721 24.7982822,24.5465602 24.8050497,24.5460889 C25.1604756,24.5213385 25.41635,24.6017906 25.5791063,24.8009577 C25.6778079,24.9217401 25.5308679,25.0875064 25.3991162,25.0040085 C25.3086641,24.9466843 25.1769906,24.9149603 25.0117166,24.9149603 C24.875461,24.9149603 24.7489889,24.9393661 24.6322556,24.987666 C24.5052713,25.0402074 24.3883105,24.8944359 24.467122,24.7818554 C24.4942292,24.7431334 24.5234622,24.7088039 24.5548312,24.6793908 C24.5615994,24.6730445 24.5736609,24.6616998 24.5870089,24.6491365 L24.614233,24.6235051 C24.6319429,24.6068275 24.6471912,24.5924632 24.6504801,24.5893717 L24.6616605,24.5788448 Z" id="形状结合" fill="#000000" fill-rule="nonzero"></path>
        <path d="M16.4847853,26.4992129 C17.7500703,27.0407351 18.3827128,27.2595567 18.3827128,27.1556779 C18.3827128,27.0517991 18.2877239,26.4426734 18.0977463,25.3283007 L19.0181276,25.2815211 C18.4329563,23.8741216 17.688253,23.1704218 16.7840177,23.1704218 C15.8797824,23.1704218 15.175768,23.2254761 14.6719745,23.3355849 L16.4847853,26.4992129 Z" id="路径-28" fill="#3D4017"></path>
        <path d="M16.7840177,23.032987 C17.7549193,23.032987 18.5408536,23.7756476 19.1450303,25.2287573 L19.2199207,25.4088769 L19.0251039,25.4187787 L18.2591589,25.4576109 L18.2645382,25.4893494 C18.4333659,26.4849605 18.5168426,27.0244235 18.5200513,27.1487181 L18.5201475,27.1556779 C18.5201475,27.3213959 18.4047646,27.3383237 18.2395244,27.3083017 C18.1519965,27.292399 18.0275682,27.2561715 17.8633057,27.1993555 C17.5432214,27.088643 17.0661139,26.8975052 16.4307098,26.6255622 L16.3884138,26.6074601 L16.3655402,26.5675423 L14.5527293,23.4039143 L14.4595657,23.2413298 L14.6426295,23.2013195 C15.1576787,23.0887508 15.8707643,23.032987 16.7840177,23.032987 Z M16.7840177,23.3078565 C16.0122787,23.3078565 15.389376,23.3482437 14.9166749,23.428351 L14.8865101,23.4336093 L16.5810806,26.3909303 L16.6081972,26.4024853 C17.1805802,26.6465708 17.617442,26.8215898 17.9177719,26.9272409 L17.9531561,26.9395861 C18.0672001,26.9790322 18.1591683,27.0073694 18.2278228,27.0244866 L18.2320843,27.0254666 L18.2305158,27.0130905 C18.1977935,26.7659044 18.110947,26.2250855 17.9727288,25.4128254 L17.9622662,25.3513973 L17.9362678,25.1988959 L18.09077,25.1910431 L18.8137082,25.1542924 L18.8080755,25.141512 C18.2660131,23.9306984 17.6039255,23.3284431 16.8244406,23.3083755 L16.7840177,23.3078565 Z" id="路径-28" fill="#000000" fill-rule="nonzero"></path>
        <path d="M12.8757453,26.8639038 C11.5441378,25.3078534 10.9356943,24.2338997 11.0504148,23.6420428 C11.2224956,22.7542574 11.9730748,22.2045184 12.6947834,22.4793879 C13.1759224,22.6626343 14.1941199,23.5857877 15.7493757,25.2488483 L14.4004163,24.9836776 L15.3172987,26.0202118 L13.6597689,25.2488483 L13.6597689,26.8639038 L12.8757453,26.0202118 L12.8757453,26.8639038 Z" id="路径-22" fill="#3D4017"></path>
        <path d="M10.9154913,23.6158904 C11.104036,22.6431653 11.9405405,22.0450624 12.7436991,22.3509529 C13.2532791,22.5450312 14.2769437,23.4731415 15.8497558,25.1549752 C15.9408619,25.2523966 15.853746,25.4094298 15.7228669,25.3837023 L14.7725171,25.1967844 L15.4202394,25.929154 C15.5155477,26.0368998 15.4027145,26.196229 15.2732396,26.1505095 L15.2593124,26.1448147 L13.7971426,25.4643699 L13.7972036,26.8639038 C13.7972036,26.9835846 13.6565977,27.0438166 13.5700581,26.9681113 L13.559093,26.9574596 L13.0130774,26.3699275 L13.01318,26.8639038 C13.01318,26.9862346 12.8672841,27.045236 12.7820784,26.9645805 L12.7713258,26.9532619 C11.4109932,25.3636448 10.7893899,24.2664629 10.9154913,23.6158904 Z M12.6458677,22.607823 C12.0175384,22.3685179 11.3438967,22.8501734 11.1853384,23.6681952 C11.0892762,24.1637914 11.5969044,25.1066394 12.7154325,26.459929 L12.7382079,26.4872967 L12.7383105,26.0202118 C12.7383105,25.9005309 12.8789164,25.840299 12.965456,25.9160042 L12.9764212,25.926656 L13.5222731,26.5140965 L13.5223341,25.2488483 C13.5223341,25.1536507 13.6159591,25.0889438 13.7032777,25.1184453 L13.7177552,25.1242454 L14.7774647,25.6173348 L14.2974756,25.0747354 C14.2138649,24.9802137 14.2912154,24.8356062 14.4116543,24.8466214 L14.4269251,24.8488237 L15.3557902,25.031313 L15.3484657,25.023551 C13.9983217,23.5999541 13.0944902,22.7920317 12.6642742,22.6151173 L12.6458677,22.607823 Z" id="路径-22" fill="#000000" fill-rule="nonzero"></path>
        <path d="M13.6597689,25.2488483 C15.6084198,26.325552 16.9490135,26.8639038 17.6815501,26.8639038 C18.7803549,26.8639038 18.2732343,26.3990236 19.1487056,25.5175461 C20.0241769,24.6360685 21.068244,24.9670123 21.0645637,25.1139982 C21.0607648,25.2609842 20.718469,25.1755895 20.3810703,25.2815394 C20.1561377,25.3521726 19.8949725,25.4848791 19.5975747,25.6796589 C20.1998557,25.6325934 20.5009962,25.6817854 20.5009962,25.8272348 C20.5009962,26.0454088 19.8466227,26.1275705 19.5975747,26.1814664 C19.3485266,26.2353623 19.4223965,26.3892751 18.9025546,27.1029031 C18.3827128,27.8165311 16.845051,28.117803 15.2957517,27.4657234 C14.2628855,27.0310038 13.6907945,26.6232565 13.579479,26.2424816 L13.6597689,25.2488483 Z" id="路径-23" fill="#9FB748"></path>
        <path d="M20.4329464,24.7927049 C20.8360305,24.7828177 21.2071603,24.9095638 21.2020068,25.1175491 C21.1971787,25.302258 21.0993413,25.3329955 20.8193853,25.3531253 C20.6171453,25.367667 20.5413523,25.3770634 20.4347613,25.4088317 C20.4284941,25.4107159 20.4284941,25.4107159 20.4222451,25.4126612 C20.3376767,25.4392174 20.2468846,25.4755023 20.1499704,25.5215405 L20.1380028,25.5271762 L20.1398881,25.5273489 C20.4618825,25.5445206 20.6275595,25.6271215 20.6379132,25.8087415 L20.6384309,25.8272348 C20.6384309,26.0457432 20.4288251,26.1456536 20.0322319,26.235244 C19.9310991,26.2580899 19.6438897,26.3120596 19.6266437,26.3157918 C19.5725359,26.3275011 19.553174,26.3397281 19.5246906,26.3779235 C19.5423702,26.3542156 19.24808,26.8619907 19.0136409,27.1838238 C18.4093303,28.0134087 16.7512738,28.227445 15.242437,27.5923957 C14.17252,27.1420818 13.574724,26.7160138 13.4475655,26.2810451 C13.44286,26.264949 13.44114,26.2481277 13.4424907,26.2314123 L13.5227806,25.2377791 C13.5308193,25.1382952 13.6388758,25.0802854 13.7262355,25.128555 C15.6544723,26.193979 16.9804691,26.726469 17.6815501,26.726469 C18.1625535,26.726469 18.2781214,26.6634296 18.4018399,26.408645 C18.4179163,26.3755375 18.4782332,26.243955 18.487552,26.224137 C18.5275475,26.1390796 18.5643354,26.0672025 18.607066,25.9931142 C18.7192592,25.7985883 18.8600825,25.6131193 19.0511929,25.4206978 C19.4648976,25.0041548 19.9515549,24.804513 20.4329464,24.7927049 Z M20.4858295,25.0670793 L20.4396866,25.0674918 C20.0275325,25.0776015 19.6087105,25.2494152 19.2462183,25.6143944 C19.0720527,25.7897549 18.9456418,25.956242 18.8451716,26.1304421 C18.8067115,26.1971261 18.7732733,26.2624584 18.7362946,26.3411 C18.7281347,26.3584536 18.6667763,26.492308 18.6491002,26.5287099 C18.4763498,26.8844704 18.2620997,27.0013385 17.6815501,27.0013385 C16.9512635,27.0013385 15.6807922,26.5040845 13.8503312,25.5099643 L13.779584,25.4713777 L13.7185629,26.2261693 L13.7256749,26.2450656 C13.8504057,26.5560913 14.3713926,26.9211383 15.2874131,27.3128948 L15.3490663,27.3390512 C16.7519524,27.9295073 18.2734564,27.7330984 18.7914684,27.0219824 C19.0143253,26.7160492 19.3096487,26.2064914 19.3043439,26.213605 C19.3730169,26.1215164 19.4502775,26.0727265 19.5685056,26.0471411 C19.5798164,26.0446933 19.6568624,26.0300544 19.7429527,26.0133455 L19.7952386,26.0031528 C19.8651908,25.9894472 19.9336749,25.9757124 19.971665,25.9671304 C20.1644422,25.923582 20.2955085,25.871617 20.3433833,25.8439571 L20.3482779,25.8409397 L20.334187,25.8357444 C20.3186188,25.8305691 20.2994413,25.8256087 20.2767893,25.8211591 L20.2529842,25.8168908 C20.115525,25.7944365 19.8993827,25.7939277 19.6082819,25.8166759 C19.4665152,25.8277543 19.4033188,25.6425981 19.522275,25.5646881 C19.82944,25.3635114 20.1014514,25.2252936 20.3398954,25.1504175 C20.3480819,25.147869 20.3480819,25.147869 20.3562522,25.1454126 C20.4639558,25.1133128 20.542337,25.1000805 20.6874058,25.0876571 L20.7054709,25.0861481 L20.7008842,25.085316 C20.6347543,25.0740318 20.5620652,25.0675918 20.4858295,25.0670793 Z" id="路径-23" fill="#000000" fill-rule="nonzero"></path>
        <path d="M8.66259086,14.4105371 C8.55042741,15.7048577 9.27965757,17.2621073 10.8502813,19.0822859 C13.206217,21.8125538 16.39084,23.8337544 17.9848805,24.1916036 C19.5789211,24.5494527 21.0993937,24.7715448 22.0302029,24.4815742 C22.9610121,24.1916036 24.0589844,23.9643883 24.0589844,23.2514036 C24.0589844,22.5384188 24.1786359,21.2183419 25.0462179,20.0498193 C25.9138,18.8812968 27.4225708,18.2832283 27.4225708,17.7461955 C27.4225708,17.3881737 27.4915021,14.8156148 27.6293647,10.0285189 C22.2546598,9.60800314 18.3391143,9.80234377 15.8827282,10.6115408 C13.426342,11.4207378 11.0196296,12.6870699 8.66259086,14.4105371 Z" id="路径-7" fill="#507C3A"></path>
        <path d="M15.8397268,10.4810065 C18.3173594,9.66481038 22.248729,9.46968435 27.6400848,9.89150287 L27.7705084,9.90170719 L27.7667425,10.0324752 C27.6290027,14.8153081 27.5600056,17.3903232 27.5600056,17.7461955 C27.5600056,17.9749233 27.395142,18.1792569 27.0446264,18.4628922 C26.9945053,18.50345 26.7742895,18.6696024 26.5451298,18.8441748 L26.4726541,18.8994461 C26.2916617,19.0376408 26.1156672,19.1733959 26.0239657,19.2490549 C25.6653718,19.5449154 25.3825283,19.8274013 25.1565638,20.1317468 C24.4610942,21.0684558 24.1964192,22.1496617 24.1964192,23.2514036 C24.1964192,23.5973797 23.9888652,23.8602569 23.6085571,24.070287 C23.3366835,24.2204327 23.0573179,24.3183152 22.4441277,24.5004024 C22.4187795,24.507928 22.4187795,24.507928 22.3934631,24.5154433 C22.26691,24.5530161 22.189463,24.5762352 22.1154447,24.5990427 L22.0710797,24.6127893 C21.2111223,24.8806878 19.8824484,24.7584475 17.9547768,24.3257008 C16.136187,23.9174422 12.9282205,21.7007573 10.7462294,19.1720718 C9.15373362,17.3265459 8.40964339,15.7375631 8.52566926,14.3986718 L8.53106074,14.3364562 L8.58147091,14.2995963 C10.949778,12.5678897 13.3692425,11.2948478 15.8397268,10.4810065 Z M27.4583404,10.1531424 C22.1827427,9.7502539 18.3365178,9.94789914 15.9257295,10.742075 C13.4834415,11.5466278 11.0894812,12.8062501 8.74371081,14.5214779 L8.79485863,14.4842251 L8.79239195,14.5271865 C8.73241175,15.7395406 9.42827373,17.2049949 10.8902848,18.9178712 L10.9543332,18.9925 C13.1008924,21.4801238 16.261027,23.6637571 18.0149843,24.0575063 C19.8958624,24.4797482 21.1913837,24.5989384 21.9893261,24.3503591 C22.0802128,24.3220456 22.1622384,24.2973644 22.3152312,24.2519418 C22.3405653,24.2444213 22.3405653,24.2444213 22.365882,24.2369051 C23.5224259,23.8934686 23.9215497,23.6730473 23.9215497,23.2514036 C23.9215497,22.0958791 24.1997745,20.9593216 24.9358721,19.9678919 C25.1767857,19.6434119 25.4746515,19.3459227 25.8490362,19.0370339 C25.9347467,18.9663178 26.0892497,18.8466529 26.2530444,18.7212979 L26.3236375,18.6673521 C26.5714901,18.4782053 26.8211234,18.2901606 26.8717215,18.2492169 C27.1581647,18.0174286 27.2851361,17.860059 27.2851361,17.7461955 C27.2851361,17.3860242 27.3540015,14.8159215 27.4919869,10.0245626 L27.4881839,10.1554427 L27.4583404,10.1531424 Z" id="路径-7" fill="#000000" fill-rule="nonzero"></path>
        <path d="M9.88826323,14.8038072 C10.5670435,14.8038072 11.4672324,16.1969678 11.2659826,16.6786144 C11.2468034,16.7245154 11.2260518,16.7666677 11.195278,16.8245461 C11.1914772,16.8316945 11.1674502,16.8765302 11.1608273,16.8890664 C11.1486735,16.9120718 11.1393389,16.930425 11.1311311,16.9476377 C11.0430448,17.1323652 11.0688384,17.2568423 11.3209575,17.5157428 C11.3739123,17.5701218 11.3727576,17.657133 11.3183786,17.7100878 C11.2639995,17.7630425 11.1769883,17.7618878 11.1240336,17.7075088 C10.7945415,17.3691542 10.7433696,17.1222044 10.8830253,16.8293297 C10.8930901,16.8082227 10.9040229,16.7867274 10.9177894,16.7606693 C10.9248746,16.747258 10.9491416,16.7019746 10.9525815,16.6955049 C10.979695,16.6445107 10.997137,16.6090811 11.0123624,16.5726424 C11.0275988,16.5361775 11.0134691,16.4225213 10.9623467,16.2740247 C10.9053657,16.1085101 10.8106182,15.9176958 10.695582,15.7396622 C10.4354518,15.3370765 10.1279842,15.0786767 9.88826323,15.0786767 C9.69897189,15.0786767 9.60997708,15.3357009 9.62889452,15.8230028 C9.63470228,15.9726071 9.65006029,16.1305823 9.67395287,16.3109518 C9.67930031,16.3513206 9.68487851,16.3914279 9.69162528,16.4384818 C9.69309417,16.4487263 9.69716898,16.476896 9.70085529,16.5024079 L9.70723064,16.5466408 C9.71919991,16.6305314 9.72382009,16.6696457 9.72382009,16.699624 C9.72382009,16.7755271 9.66228845,16.8370588 9.58638533,16.8370588 C9.51048222,16.8370588 9.44895058,16.7755271 9.44895058,16.699624 C9.44895058,16.6799815 9.40166092,16.3485363 9.40146364,16.347047 C9.37654658,16.1589435 9.36041972,15.9930598 9.3542319,15.8336654 C9.32968443,15.2013372 9.46732946,14.8038072 9.88826323,14.8038072 Z" id="路径-13" fill="#000000" fill-rule="nonzero"></path>
        <path d="M9.41441655,14.3956021 C9.92209917,14.0673948 10.4988688,14.2295511 11.1162189,14.8438179 C11.1700247,14.897355 11.1702426,14.9843736 11.1167055,15.0381794 C11.0631684,15.0919852 10.9761498,15.092203 10.922344,15.0386659 C10.3866732,14.5056705 9.94327599,14.3810113 9.56364578,14.6264351 C8.99408881,14.994643 9.18049064,16.6196013 9.95250606,17.6806872 C10.7399026,18.7629134 11.6034479,18.8095995 11.9358859,17.7213909 C11.9580619,17.6487995 12.0348861,17.6079298 12.1074774,17.6301058 C12.1800688,17.6522818 12.2209385,17.729106 12.1987625,17.8016974 C11.787898,19.1466286 10.6337612,19.0842321 9.73024073,17.842401 C8.87810766,16.6711986 8.67211809,14.8754841 9.41441655,14.3956021 Z" id="路径-14" fill="#000000" fill-rule="nonzero"></path>
        <path d="M15.8827282,10.6115408 C18.3391143,9.80234377 22.2546598,9.60800314 27.6293647,10.0285189 C27.4915021,14.8156148 27.4225708,17.3881737 27.4225708,17.7461955 C27.4225708,18.2832283 25.9138,18.8812968 25.0462179,20.0498193 C24.1786359,21.2183419 24.0589844,22.5384188 24.0589844,23.2514036 C24.0589844,23.9643883 22.9610121,24.1916036 22.0302029,24.4815742 C21.3471024,24.6943773 20.3464227,24.6313952 19.2321506,24.4413625 C18.5980123,23.9363639 18.208673,23.7127737 17.9277286,23.1935533 C17.0611321,21.5919746 17.7836796,20.4959517 17.2333513,19.5662602 C16.683023,18.6365687 15.0742504,19.1478723 13.9141037,17.6871835 C13.2104213,16.8012086 13.3506499,14.6337951 14.3347892,11.1849432 C14.8490061,10.9731292 15.3647628,10.782172 15.8827282,10.6115408 Z" id="形状结合" fill="#A1B849"></path>
        <path d="M15.8397268,10.4810065 C18.3173594,9.66481038 22.248729,9.46968435 27.6400848,9.89150287 L27.7705084,9.90170719 L27.7667425,10.0324752 C27.6317147,14.7211349 27.5627775,17.2868947 27.5600875,17.7225277 L27.5600056,17.7461955 C27.5600056,17.9749233 27.395142,18.1792569 27.0446264,18.4628922 C26.9918673,18.5055846 26.7506378,18.6874401 26.5088958,18.8717917 L26.4365458,18.9270354 C26.2685704,19.0554744 26.1095538,19.1784398 26.0239657,19.2490549 C25.6653718,19.5449154 25.3825283,19.8274013 25.1565638,20.1317468 C24.4610942,21.0684558 24.1964192,22.1496617 24.1964192,23.2514036 C24.1964192,23.8180122 23.7376779,24.1059049 22.6917036,24.4260626 L22.6026949,24.4530685 C22.5569345,24.4668456 22.5120436,24.4802347 22.4441277,24.5004024 C22.4187795,24.507928 22.4187795,24.507928 22.3934631,24.5154433 C22.3493444,24.5285418 22.3199651,24.5372812 22.2903507,24.5461264 L22.2018401,24.5727088 C22.1549602,24.5868812 22.1119941,24.6000434 22.0710797,24.6127893 C21.4147637,24.8172483 20.4680687,24.791544 19.2092699,24.5768795 L19.1744133,24.5709353 L19.1467537,24.5489068 C19.0870896,24.5013894 18.5111395,24.0586721 18.3751905,23.9419393 C18.1209935,23.7236728 17.9493557,23.5223181 17.8068541,23.2589572 C17.3955838,22.4988784 17.3125939,21.9530734 17.3266506,20.9333426 C17.3364436,20.2229135 17.3033431,19.954302 17.1150839,19.6362683 C16.9402287,19.3408784 16.6777935,19.2073004 16.0474438,19.0350042 C15.3946759,18.8565804 15.2727885,18.8191466 14.9727189,18.6825112 C14.5181856,18.4755413 14.1362699,18.1878791 13.8064838,17.7726602 C13.0638713,16.8376701 13.2061023,14.6394541 14.2026668,11.1471015 L14.2209364,11.0830775 L14.282502,11.0577294 C14.798902,10.8451138 15.317963,10.652889 15.8397268,10.4810065 Z M27.4583404,10.1531424 C22.1827427,9.7502539 18.3365178,9.94789914 15.9257295,10.742075 C15.4102857,10.9118756 14.8974429,11.1017976 14.3871502,11.3118986 L14.4485873,11.2868056 L14.438082,11.3243108 C13.5020708,14.6368307 13.3662893,16.7304939 14.0020214,17.5762074 L14.0217236,17.6017068 C14.3233509,17.9814722 14.670249,18.2427588 15.0866267,18.4323547 C15.3676425,18.5603141 15.4838127,18.595992 16.1199166,18.769861 C16.8158867,18.9600935 17.1284009,19.1191614 17.3516187,19.4962521 C17.5745428,19.8728466 17.6119772,20.1766284 17.6014939,20.9371312 C17.5880291,21.9139276 17.6648005,22.4188342 18.0486031,23.1281494 C18.1737671,23.3594682 18.32393,23.5356301 18.5542544,23.7333983 C18.6626703,23.8264897 19.0808315,24.1494924 19.2511766,24.2817476 L19.289589,24.3116345 L19.3400362,24.3201294 C20.488839,24.5102309 21.3570767,24.5331597 21.9466815,24.363144 L21.9893261,24.3503591 C22.031028,24.3373679 22.0747201,24.3239833 22.1225377,24.3095277 L22.2114863,24.2828136 C22.2414771,24.2738559 22.2709794,24.2650799 22.3152312,24.2519418 L22.3277968,24.2482117 C22.341578,24.2441207 22.3456287,24.2429181 22.365882,24.2369051 C22.4334916,24.2168283 22.4781011,24.2035231 22.5231712,24.1899542 L22.6115759,24.1631316 C23.5377983,23.8796279 23.9215497,23.6387967 23.9215497,23.2514036 C23.9215497,22.0958791 24.1997745,20.9593216 24.9358721,19.9678919 C25.1767857,19.6434119 25.4746515,19.3459227 25.8490362,19.0370339 C26.0755567,18.8501415 26.7825724,18.3213558 26.8717215,18.2492169 C27.1581647,18.0174286 27.2851361,17.860059 27.2851369,17.7457246 L27.2852214,17.7212083 C27.2879338,17.2818764 27.356804,14.7186109 27.4919869,10.0245626 L27.4881217,10.1554427 L27.4583404,10.1531424 Z" id="形状结合" fill="#000000" fill-rule="nonzero"></path>
        <path d="M13.579479,18.2973598 C13.8258442,19.9308458 14.2190145,21.3539615 14.7589899,22.5667068 C14.0716034,22.093616 13.3539155,21.5355892 12.6540562,20.9103483 C12.1450515,19.3738217 11.8547102,17.6129995 11.7822335,15.6284157 C11.7373209,14.3986034 11.773493,13.306915 11.8907498,12.3533505 C12.6218773,11.9540842 13.3577681,11.5976111 14.0982633,11.2835108 C13.4202433,13.7611382 13.2478378,16.0984652 13.579479,18.2973598 Z" id="形状结合" fill="#2D2F12"></path>
        <path d="M14.3046121,11.0466811 L14.2298466,11.3201709 C13.5577901,13.778533 13.3866256,16.0971303 13.7153768,18.2768634 C13.9598226,19.8976232 14.3493637,21.3081041 14.8834496,22.5083509 L15.0811527,22.9526477 L14.6801404,22.6775563 C13.963626,22.1860331 13.2442353,21.6219976 12.5611587,21.0116476 L12.5337672,20.9871725 L12.5222393,20.9522951 C12.0100592,19.4027075 11.717794,17.6297076 11.6448903,15.6334314 C11.5997168,14.3964752 11.636151,13.2974121 11.7544155,12.3359831 L11.7630356,12.265906 L11.825023,12.2321026 C12.5599556,11.8313234 13.2994529,11.473099 14.0436026,11.1574089 L14.3046121,11.0466811 Z M13.8913406,11.5225162 L13.7500373,11.5848947 C13.1493201,11.852834 12.5515328,12.1490003 11.9566212,12.4734222 L12.0187921,12.4397557 L12.013651,12.483725 C11.9125144,13.3642353 11.8794407,14.3621554 11.9146033,15.4772837 L11.9195767,15.6233999 C11.9915769,17.5949347 12.2796448,19.3424726 12.7832223,20.8660332 L12.7717971,20.8311094 L12.8796311,20.9265665 C13.3775017,21.3638556 13.8932446,21.775617 14.4114289,22.1515331 L14.4446529,22.1753587 L14.4407894,22.1656951 C14.0091686,21.0838303 13.6845275,19.8508332 13.46653,18.466731 L13.4435812,18.3178561 C13.1212883,16.1809441 13.270702,13.9161435 13.8910389,11.5242408 L13.8913406,11.5225162 Z" id="形状结合" fill="#000000" fill-rule="nonzero"></path>
        <path d="M8.31219683,15.2180198 C8.31348479,16.0145217 8.24372009,16.4797472 8.10290274,16.6136963 C7.89167671,16.8146198 6.97435751,16.6767478 7.36346798,16.0559783 C7.75257844,15.4352089 7.79034003,14.9342156 7.79034003,12.4904833 C7.79034003,10.046751 8.03939296,3.26015042 15.3752455,1.7940034 C22.711098,0.327856383 25.9777024,5.30058181 27.1361589,7.46358013 C28.2946155,9.62657844 29.4643963,10.29718 29.0909385,11.1268645 C28.8419666,11.6799875 28.3468385,11.9704045 27.6055543,11.9981154 L27.6055543,10.628501 C23.5073217,10.1550435 19.7984834,10.3211647 16.4790393,11.1268645 C13.1595952,11.9325643 10.4373144,13.2962827 8.31219683,15.2180198 Z" id="路径-6" fill="#2D2F12"></path>
        <path d="M27.1361589,7.46358013 C28.0738021,9.21428944 29.018864,9.98731133 29.147051,10.6583286 C27.1532687,10.0030597 25.1018473,9.67536248 22.9928803,9.67536248 C19.8077949,9.67536248 16.7420419,10.1324687 13.7956214,11.0466811 C13.1235742,8.09144837 13.407268,5.06370033 14.6467027,1.96343695 C14.8817174,1.90052127 15.1243362,1.84415026 15.3752455,1.7940034 C22.711098,0.327856383 25.9777024,5.30058181 27.1361589,7.46358013 Z" id="形状结合" fill="#3D3F17"></path>
        <path d="M15.3483104,1.65923393 C18.6906209,0.991238132 21.4350099,1.58590414 23.6516545,3.15570443 C25.2291381,4.27285883 26.3557535,5.71535939 27.2573117,7.39869323 C27.2656358,7.41423547 27.2739832,7.42974208 27.2823539,7.44521382 C27.515264,7.87570459 27.7605015,8.26978482 28.0358572,8.66754877 C28.143593,8.82317816 28.2527086,8.97492834 28.3813512,9.14935763 C28.4427941,9.23266948 28.6496995,9.51040896 28.6898278,9.56475532 C29.1769247,10.2244385 29.335,10.5355501 29.2938843,10.9052436 C29.2834664,10.9989156 29.2576988,11.0912195 29.2162625,11.1832754 C28.9443695,11.7873207 28.4012242,12.1059021 27.6106884,12.1354542 L27.4681196,12.1407837 L27.4680043,10.7512028 L27.4016212,10.7437104 C23.4560664,10.305546 19.8770285,10.4658414 16.6641727,11.2238728 L16.5114564,11.2604214 C13.2133327,12.0609462 10.5116754,13.4143333 8.40437756,15.3199561 L8.44950841,15.2792656 L8.44930013,15.3382922 C8.44381814,16.0852942 8.37355358,16.5264796 8.21067659,16.7001219 L8.19762497,16.7132754 C8.04577306,16.8577208 7.70607654,16.8751665 7.45485601,16.7696913 C7.13374371,16.634872 7.02672666,16.3344301 7.24701887,15.9829858 C7.26147133,15.959929 7.27541852,15.9371152 7.28887767,15.9143977 L7.30870252,15.8803752 C7.31519024,15.8690462 7.3215581,15.8577229 7.32780826,15.8463868 L7.34620779,15.8123223 C7.36125008,15.783873 7.37557021,15.7552296 7.38920185,15.7261052 L7.4052315,15.6909068 C7.61461125,15.2180265 7.65118461,14.5926403 7.65284412,12.6394784 L7.65290528,12.4904833 C7.65290528,10.3233604 7.90164175,8.51549684 8.70642877,6.71944998 C9.87533758,4.11079089 12.0139181,2.32564717 15.3483104,1.65923393 Z M23.4927969,3.38002009 C21.3375141,1.85367551 18.6699948,1.27566594 15.4021806,1.92877288 C12.1573198,2.57729232 10.0906949,4.30237225 8.95726734,6.83184774 C8.17188567,8.58458758 7.92777478,10.3588316 7.92777478,12.4904833 L7.92771104,12.6414414 C7.92574168,14.8931251 7.87653172,15.4354359 7.55824528,15.9980013 L7.53686708,16.0351413 C7.51872306,16.0661463 7.499752,16.0973272 7.47991708,16.1289709 C7.35222416,16.3326865 7.39234935,16.4453348 7.56126233,16.5162531 C7.7215281,16.5835408 7.94739141,16.5719412 8.00818051,16.5141171 C8.10879957,16.4184057 8.17597855,15.970423 8.17476226,15.218242 L8.17466338,15.1570957 L8.22001609,15.1160834 C10.3629534,13.178232 13.1058578,11.8041823 16.4466222,10.9933076 C19.7826529,10.1835819 23.5076771,10.0167358 27.6213269,10.4919743 L27.7429891,10.5060296 L27.7428738,11.8516429 L27.7557833,11.8506088 C28.3431493,11.7947368 28.7347356,11.5482633 28.9477895,11.1086112 L28.9656144,11.0704536 C28.9954833,11.0040959 29.0135063,10.9395347 29.0206991,10.8748611 C29.0510938,10.6015663 28.9129397,10.3296622 28.468705,9.72802796 C28.4290554,9.67432985 28.2220879,9.396507 28.160136,9.31250504 C28.0299851,9.13603052 27.9193305,8.98214015 27.8098564,8.8239998 C27.5290572,8.41837231 27.2785726,8.01586037 27.0405993,7.57601123 C27.0320443,7.56019895 27.0235133,7.54435114 27.0150061,7.52846703 C26.1318039,5.87940639 25.029955,4.46861644 23.4927969,3.38002009 Z" id="路径-6" fill="#000000" fill-rule="nonzero"></path>
        <polygon id="路径-11" fill="#000000" fill-rule="nonzero" points="14.6985184 2.53596281 15.0211425 2.64942206 14.3437666 3.80933028 14.0211425 3.69587103"></polygon>
        <path d="M13.7567115,5.41187973 L14.2754173,5.47318765 C13.655812,6.87203125 13.655812,8.62362777 14.2790567,10.7269671 L13.7530721,10.7685555 C13.1204463,8.63355697 13.1204463,6.84833508 13.7567115,5.41187973 Z" id="路径-12" fill="#000000" fill-rule="nonzero"></path>
        <ellipse id="椭圆形" fill="#C76E27" cx="17.4206695" cy="15.0099593" rx="2.74869504" ry="3.09228192"></ellipse>
        <path d="M17.4206695,11.9176774 C18.9387319,11.9176774 20.1693645,13.3021391 20.1693645,15.0099593 C20.1693645,16.0507227 19.7123309,16.9713969 19.0117325,17.5318294 C18.0187223,17.5393216 17.1154265,17.1206839 16.3016089,16.2764338 C15.2660273,15.202127 15.1742209,13.8917917 16.0261897,12.3454281 C16.4353558,12.0732015 16.9118684,11.9176774 17.4206695,11.9176774 Z" id="形状结合" fill="#F4BC2E"></path>
        <ellipse id="椭圆形" fill="#000000" cx="18.795017" cy="14.9412419" rx="1" ry="1"></ellipse>
        <ellipse id="椭圆形" fill="#C76E27" cx="25.6667546" cy="15.2848288" rx="1.92408653" ry="2.81741242"></ellipse>
        <path d="M25.6667546,12.4674164 C26.7293983,12.4674164 27.5908412,13.7288149 27.5908412,15.2848288 C27.5908412,16.168412 27.3130653,16.9569953 26.8784078,17.4735551 C26.1444004,17.3669148 25.5432983,17.0459699 25.0751456,16.5105316 C24.2914503,15.6141995 24.2110212,14.3588086 24.8338582,12.7443589 C25.0859295,12.5668439 25.3684124,12.4674164 25.6667546,12.4674164 Z" id="形状结合" fill="#F4BC2E"></path>
        <path d="M17.4206695,11.9176774 C18.9387319,11.9176774 20.1693645,13.3021391 20.1693645,15.0099593 C20.1693645,16.7177794 18.9387319,18.1022412 17.4206695,18.1022412 C15.9026072,18.1022412 14.6719745,16.7177794 14.6719745,15.0099593 C14.6719745,13.3021391 15.9026072,11.9176774 17.4206695,11.9176774 Z M17.4206695,12.1925469 C16.0620964,12.1925469 14.946844,13.4472059 14.946844,15.0099593 C14.946844,16.5727127 16.0620964,17.8273717 17.4206695,17.8273717 C18.7792426,17.8273717 19.894495,16.5727127 19.894495,15.0099593 C19.894495,13.4472059 18.7792426,12.1925469 17.4206695,12.1925469 Z" id="椭圆形" fill="#000000" fill-rule="nonzero"></path>
        <path d="M25.6667546,12.4674164 C26.7293983,12.4674164 27.5908412,13.7288149 27.5908412,15.2848288 C27.5908412,16.8408427 26.7293983,18.1022412 25.6667546,18.1022412 C24.604111,18.1022412 23.7426681,16.8408427 23.7426681,15.2848288 C23.7426681,13.7288149 24.604111,12.4674164 25.6667546,12.4674164 Z M25.6667546,12.7422859 C24.7831003,12.7422859 24.0175376,13.8632885 24.0175376,15.2848288 C24.0175376,16.7063691 24.7831003,17.8273717 25.6667546,17.8273717 C26.5504089,17.8273717 27.3159717,16.7063691 27.3159717,15.2848288 C27.3159717,13.8632885 26.5504089,12.7422859 25.6667546,12.7422859 Z" id="椭圆形" fill="#000000" fill-rule="nonzero"></path>
        <circle id="椭圆形" fill="#000000" transform="translate(26.6975, 15.2848) rotate(2) translate(-26.6975, -15.2848)" cx="26.6975153" cy="15.2848288" r="1"></circle>
        <path d="M22.4243999,18.1732919 C21.9292459,18.1601608 21.3458568,18.4766246 21.3458568,18.9463062 C21.3458568,19.4159879 21.923005,19.5191442 22.3756772,19.5191442 C22.8283493,19.5191442 23.3422454,19.3249895 23.3422454,18.9463062 C23.3422454,18.567623 22.9195538,18.1864229 22.4243999,18.1732919 Z" id="路径-15" fill="#4A7335"></path>
        <path d="M22.5193966,18.1815497 C22.922593,18.2481946 23.2598838,18.637578 23.3292043,19.060359 C22.9815811,18.9143284 22.7025009,18.6360013 22.5561407,18.2849638 Z M21.38345,19.0266426 L21.3626869,19.0338694 C21.4449584,18.5911329 21.8162037,18.2778248 22.1951333,18.1939107 C22.0357872,18.5642926 21.7443892,18.8596863 21.38345,19.0266426 Z" id="形状结合" fill="#000000"></path>
        <path d="M18.660752,23.8273992 C18.8511487,22.0637434 19.2525925,20.9358545 19.8650834,20.4437326 C20.7838197,19.7055498 24.0838257,20.1545358 24.4917366,20.8567116 C23.9644496,21.2548781 23.6671352,21.6221247 23.5997935,21.9584514 C23.498781,22.4629415 23.700806,23.4284387 23.5997935,23.4284387 C23.553044,23.4284387 22.7685934,23.6992177 21.1998945,23.8273992 C20.7392426,23.8650399 19.8928618,23.8650399 18.660752,23.8273992 Z" id="路径-17" fill="#79292A"></path>
        <path d="M19.7790017,20.336596 C20.7103748,19.5882599 24.1298145,19.9600984 24.6105743,20.787676 L24.6717551,20.8929924 L24.5745566,20.9663892 C24.0715958,21.3461863 23.7938569,21.6892531 23.7345535,21.985434 C23.7078648,22.1187262 23.7022523,22.3016828 23.7136266,22.5372304 C23.7183817,22.6357024 23.7254741,22.7352381 23.7367578,22.8712675 C23.7390301,22.8986606 23.7414738,22.9276299 23.7460657,22.9819577 C23.749754,23.0257661 23.7522737,23.0563859 23.7545641,23.0856054 C23.7604836,23.1611241 23.7640383,23.2176269 23.7655674,23.2652904 C23.7674866,23.3251173 23.7662172,23.3707301 23.7603925,23.4074808 C23.7462065,23.4969872 23.7070103,23.5658734 23.5997935,23.5658734 C23.6414341,23.5658734 23.2322759,23.6692282 22.8042556,23.7528378 L22.7027422,23.7722103 C22.6576573,23.7806024 22.6127412,23.788668 22.5684978,23.7962636 C22.1599455,23.8664025 21.7088102,23.9237075 21.2110873,23.9643774 C20.7437864,24.0025614 19.8936033,24.0025614 18.6565554,23.9647698 L18.5081781,23.9602369 L18.5241112,23.812648 C18.7181063,22.01566 19.1301784,20.8579102 19.7790017,20.336596 Z M24.2916361,20.8253471 C23.6593068,20.2195929 20.7172677,19.9353239 19.9511651,20.5508692 C19.3942119,20.9983679 19.0104515,22.0393305 18.816752,23.6712257 L18.8139918,23.6943998 L18.8299061,23.6949084 C19.9408201,23.7266672 20.7176404,23.7258894 21.1571449,23.6928928 L21.1887017,23.6904209 C21.6782897,23.6504158 22.1213781,23.5941329 22.5219895,23.5253573 C22.5981698,23.5122789 22.6783623,23.497248 22.7592007,23.481247 L22.8632267,23.4602169 C23.105548,23.4102602 23.3406989,23.3553605 23.477792,23.3220393 L23.4914461,23.3186532 L23.4915141,23.3135414 C23.4915195,23.3077159 23.4914679,23.3015093 23.4913565,23.2949327 L23.4908392,23.2741038 C23.4894739,23.2315466 23.4861518,23.1787396 23.4805351,23.1070853 C23.4793027,23.0913631 23.4765384,23.0578274 23.4735462,23.0218463 L23.4705264,22.9856192 C23.4660278,22.9317633 23.4619948,22.8839313 23.4628292,22.8939901 C23.451306,22.7550748 23.4440156,22.6527602 23.439077,22.550488 C23.4267024,22.2942251 23.4329087,22.0919109 23.4650335,21.9314689 C23.5331186,21.5914292 23.7982316,21.2391898 24.2553717,20.8672676 L24.2986004,20.8324585 L24.2916361,20.8253471 Z" id="路径-17" fill="#000000" fill-rule="nonzero"></path>
        <path d="M22.5835888,23.6532327 L22.4528734,23.6763212 C22.1124441,23.7322222 21.6952731,23.7869208 21.1998945,23.8273992 C20.7392426,23.8650399 19.8928618,23.8650399 18.660752,23.8273992 C18.7518212,22.9838205 18.8911742,22.2856944 19.0788113,21.7330209 C20.778703,22.034172 21.9465273,22.6743329 22.5835888,23.6532327 Z" id="形状结合" fill="#B66162"></path>
        <path d="M18.9868022,21.5765653 L19.1029912,21.5971733 C20.8369483,21.9047185 22.0388195,22.5635759 22.6992849,23.5790468 L22.8124568,23.7530494 L22.6080784,23.7893022 L22.579519,23.7943665 C22.1681609,23.8653574 21.7134028,23.9233322 21.2110873,23.9643774 C20.7437864,24.0025614 19.8936033,24.0025614 18.6565554,23.9647698 L18.5081781,23.9602369 L18.5241112,23.812648 C18.6162132,22.9595015 18.7575359,22.2516328 18.948855,21.6882997 L18.9868022,21.5765653 Z M19.1722842,21.8893091 L19.1640623,21.91529 C19.0170977,22.3874567 18.9025618,22.9613539 18.8209035,23.6365522 L18.8139918,23.6943771 L18.8299061,23.6949084 C19.9408201,23.7266672 20.7176404,23.7258894 21.1571449,23.6928928 L21.1887017,23.6904209 C21.600451,23.6567761 21.9792371,23.6116277 22.3271114,23.5572948 L22.3463398,23.5541936 L22.3344488,23.5382736 C21.7197301,22.7320628 20.6855965,22.1845479 19.2253672,21.8995391 L19.1722842,21.8893091 Z" id="形状结合" fill="#000000" fill-rule="nonzero"></path>
        <path d="M20.718469,23.0291269 C20.9058134,23.0291269 21.0171361,23.2979745 21.0524371,23.8356697 C20.8748743,23.8474483 20.6539792,23.8533458 20.390467,23.8550845 C20.4193025,23.3041745 20.5289768,23.0291269 20.718469,23.0291269 Z M21.9553818,23.1665617 C22.1084424,23.1665617 22.2107592,23.3460151 22.2623322,23.7049221 C22.0753075,23.7341719 21.8690863,23.7611486 21.6429132,23.7855236 C21.6872811,23.3723609 21.7914703,23.1665617 21.9553818,23.1665617 Z M22.6425556,23.1665617 C22.7777839,23.1665617 22.8734034,23.3066365 22.9294142,23.5867862 C22.7653055,23.6222777 22.5696824,23.6586055 22.3429767,23.6938941 C22.3908599,23.341878 22.4912696,23.1665617 22.6425556,23.1665617 Z M23.2599869,22.7542574 C23.3996442,22.7542574 23.4867817,22.9851622 23.5213993,23.4469716 C23.4271583,23.4725435 23.2531756,23.5196915 22.9969388,23.5742707 C23.0199003,23.0275757 23.1080436,22.7542574 23.2599869,22.7542574 Z M21.0261923,20.1058695 C20.9234963,20.6980541 20.7846979,20.9941464 20.609797,20.9941464 C20.4174368,20.9941464 20.3464084,20.724903 20.3967119,20.1864163 L20.3943484,20.2016394 C20.5419562,20.1628907 20.7055364,20.1348692 20.8800244,20.1165288 Z M24.3058329,20.7187121 C24.2271086,20.904607 24.141846,20.9941464 24.0456658,20.9941464 C23.8930355,20.9941464 23.8167933,20.8246361 23.8169393,20.4856155 C24.0113746,20.5560326 24.1779545,20.6349957 24.3058329,20.7187121 Z M21.6891628,20.0944959 L21.6868923,20.1105499 C21.5872449,20.6079911 21.457271,20.8567116 21.2969708,20.8567116 C21.1046105,20.8567116 21.0335822,20.5874683 21.0838857,20.0489815 L21.0797942,20.0999781 C21.2746481,20.087922 21.4798452,20.0865231 21.6891628,20.0944959 Z M22.7651056,20.2106684 L22.7555663,20.2523207 C22.6604249,20.655248 22.540719,20.8567116 22.3964488,20.8567116 C22.2040885,20.8567116 22.1330602,20.5874683 22.1833637,20.0489815 L22.1779714,20.1290766 C22.3759654,20.1493118 22.5733672,20.1768583 22.7651056,20.2106684 Z M23.4177271,20.3564134 L23.4101164,20.3791681 C23.3206941,20.6975305 23.2118628,20.8567116 23.0836226,20.8567116 C22.9141197,20.8567116 22.8388271,20.6476529 22.8577448,20.2295354 C23.054067,20.2646591 23.2420694,20.3078915 23.4177271,20.3564134 Z" id="形状结合" fill="#FFFFFF"></path>
        <path d="M20.718469,22.8916922 C21.0145311,22.8916922 21.1499049,23.2191742 21.1896854,23.828327 L21.1987146,23.96659 L21.0603827,23.974494 C20.8800435,23.9847982 20.657058,23.9907748 20.3903454,23.992523 L20.2443342,23.9934801 L20.2522099,23.8476783 C20.285807,23.225696 20.4188609,22.8916922 20.718469,22.8916922 Z M23.2599869,22.6168227 C23.5115363,22.6168227 23.6182073,22.8995522 23.6584644,23.4368969 L23.666961,23.5503073 L23.5571432,23.5798737 C23.3652948,23.6315252 23.2330021,23.6645339 23.024263,23.7089684 L23.0910087,23.6944212 L22.9875203,23.7166856 L22.8504848,23.7459607 L22.8504979,23.74431 L22.7684759,23.7602627 C22.6716946,23.7785254 22.5714522,23.7961903 22.4675282,23.8131899 L22.4178533,23.821136 L22.3641163,23.829657 L22.3623688,23.8299652 L22.1794318,23.8584167 L22.1796789,23.8568691 L22.1628969,23.8594622 C22.0416058,23.8766093 21.9165064,23.8926965 21.7876408,23.9076319 L21.6575214,23.9221799 L21.4879662,23.9404519 L21.5061443,23.7708866 C21.5572954,23.2937511 21.6909542,23.0291269 21.9553818,23.0291269 C22.1075536,23.0291269 22.2170078,23.1179247 22.2928313,23.2836144 L22.2996594,23.2991588 L22.3083995,23.2794271 C22.3791267,23.1251676 22.4801741,23.0385431 22.6190568,23.0298521 L22.6425556,23.0291269 C22.7379093,23.0291269 22.8166666,23.0647738 22.8808396,23.1321452 L22.8958514,23.1488052 L22.9004878,23.1196405 C22.9540824,22.7982038 23.0570898,22.6287338 23.240074,22.6174285 L23.2599869,22.6168227 Z M20.718469,23.1665617 C20.6488347,23.1665617 20.5740415,23.3324641 20.5390887,23.6950022 L20.5370587,23.7161359 L20.5934774,23.7153285 C20.7019011,23.7135203 20.8012874,23.7108564 20.8916849,23.7073355 L20.9037346,23.7066529 L20.9013964,23.6825554 C20.8644745,23.3409805 20.7929412,23.178362 20.7258978,23.1671821 L20.718469,23.1665617 Z M21.9553818,23.3039964 C21.9033734,23.3039964 21.8440909,23.4022985 21.8037284,23.6270346 L21.8033825,23.6288648 L21.8812375,23.6195589 C21.9225944,23.6144226 21.9635315,23.609165 22.0040472,23.6037893 L22.1028528,23.5901082 L22.0978349,23.5671682 C22.0582176,23.3921087 22.0073031,23.3121497 21.9624165,23.3045915 L21.9553818,23.3039964 Z M22.6425556,23.3039964 C22.6001231,23.3039964 22.5513196,23.3708638 22.5123889,23.5268014 L22.5235236,23.5250993 C22.5897039,23.5137312 22.6542874,23.5020887 22.7173394,23.4901918 L22.7619899,23.4813973 L22.7609242,23.477755 C22.7250984,23.362269 22.6848688,23.3106018 22.6495509,23.3045945 L22.6425556,23.3039964 Z M23.2599869,22.8916922 C23.2590984,22.8916922 23.2385756,22.9150621 23.2107257,23.0014741 C23.1817125,23.0914952 23.1596725,23.2199213 23.1453996,23.3854285 L23.1440585,23.4008606 L23.1500739,23.3995508 C23.2247397,23.3822079 23.293444,23.3651291 23.3679955,23.3456966 L23.3741243,23.3439626 L23.3738203,23.3402953 C23.3426709,23.0467857 23.2892984,22.9033819 23.2631147,22.8923792 L23.2599869,22.8916922 Z M21.2717737,19.9541189 C21.4083482,19.9505821 21.549979,19.9516426 21.6952722,19.9571942 L21.8557132,19.9633247 L21.8249057,20.1208994 L21.8216499,20.1375446 C21.7088776,20.7005051 21.5554296,20.9941464 21.2969708,20.9941464 C21.154029,20.9941464 21.0572669,20.9243727 20.9992914,20.7917363 L20.9936169,20.7779183 L20.9908564,20.785074 C20.8985832,21.0054082 20.7826534,21.1216683 20.6299276,21.1309741 L20.609797,21.1315811 C20.3367436,21.1315811 20.2318923,20.8785522 20.2446208,20.4153644 L20.2458345,20.382656 L20.2376191,20.3848055 L20.2584514,20.1870371 L20.2600334,20.172019 L20.3908281,20.1850248 L20.3602785,20.0684919 C20.5202021,20.0265672 20.6995824,19.9960892 20.8958984,19.9767853 L20.9518368,19.9717261 L20.9521059,19.9702751 L21.0396576,19.9648543 L21.1920546,19.9534044 L21.1913856,19.9570205 L21.2717737,19.9541189 Z M23.6797041,20.2872202 L23.8644899,20.3553607 C24.0701635,20.4312036 24.2442843,20.5143654 24.3797055,20.6028082 L24.4744174,20.664664 L24.4319253,20.7695015 L24.4283847,20.778224 C24.3350271,21.003099 24.2126818,21.1315811 24.0456658,21.1315811 C23.7868254,21.1315811 23.6790948,20.8914454 23.6795044,20.4841691 L23.6797041,20.2872202 Z M22.0500178,19.978208 L22.19044,19.9923961 C22.3904439,20.0126044 22.59167,20.0405304 22.7889795,20.0753231 L22.7276312,20.0650443 L22.7277875,20.0632975 L22.8291955,20.082361 L22.9308991,20.1003485 L22.9304849,20.1017393 L22.9820515,20.1118641 C23.1128979,20.1382783 23.2401999,20.167541 23.3623742,20.1992993 L23.4530188,20.2235804 L23.5852959,20.2600877 L23.5489931,20.392421 L23.5424308,20.4163329 C23.4374522,20.7900787 23.2979322,20.9941464 23.0836226,20.9941464 C22.9177265,20.9941464 22.8141684,20.8982105 22.7611388,20.7208313 L22.7545684,20.697519 L22.7515099,20.7044863 C22.6648644,20.8856208 22.5577079,20.984018 22.418669,20.9934049 L22.3964488,20.9941464 C22.0932292,20.9941464 21.9979876,20.6789155 22.0395666,20.1189577 L22.0500178,19.978208 Z M20.8572817,20.257178 L20.8553019,20.2575085 C20.7441079,20.270283 20.6396005,20.287029 20.542646,20.3076966 L20.5246896,20.3116022 L20.5226901,20.343864 C20.513554,20.5107507 20.5194893,20.6410781 20.5393754,20.7330315 L20.5451439,20.7571569 C20.5662971,20.837341 20.5852465,20.8567116 20.609797,20.8567116 C20.6732784,20.8567116 20.7725604,20.6610269 20.8571303,20.2585853 L20.8572817,20.257178 Z M23.9679799,20.6936708 L23.9701245,20.7068581 C23.9774921,20.7491768 23.9873036,20.7837834 23.9992588,20.8104319 C24.0164677,20.8487914 24.0271433,20.8567116 24.0456658,20.8567116 C24.053183,20.8567116 24.0639571,20.8513948 24.082219,20.8322168 C24.0932555,20.8206267 24.1046037,20.805893 24.1161013,20.7880932 L24.1261673,20.7715963 L24.1142159,20.7650711 C24.0723901,20.7426459 24.0272077,20.7204549 23.9788876,20.6986032 L23.9679799,20.6936708 Z M21.478741,20.2271145 C21.4111258,20.2266144 21.3446334,20.2272004 21.2794418,20.2288822 L21.2085649,20.2313403 L21.2079529,20.2459208 C21.2014747,20.4012433 21.2089557,20.5222913 21.2291949,20.6072852 L21.2350301,20.6295701 C21.2559185,20.7022191 21.2734146,20.7192769 21.2969708,20.7192769 C21.350827,20.7192769 21.4380008,20.5662005 21.5165324,20.2446213 L21.5204044,20.227767 L21.478741,20.2271145 Z M22.3061188,20.2817789 L22.3055473,20.3080637 C22.3029492,20.4507821 22.3135593,20.5603683 22.3361287,20.6350685 C22.356797,20.7034767 22.3734647,20.7192769 22.3964488,20.7192769 C22.4120863,20.7192769 22.4400781,20.6975426 22.4785454,20.63156 C22.5188828,20.5623697 22.5578234,20.4612576 22.5941087,20.3295227 L22.5961062,20.3219098 L22.5109214,20.3089046 C22.4723351,20.3032674 22.4336768,20.2979088 22.3949875,20.2928355 L22.3061188,20.2817789 Z M22.9928803,20.3948877 L22.9929197,20.3974472 C22.995676,20.5087564 23.0081721,20.5944016 23.0292111,20.6530167 C23.0487291,20.7073942 23.0626142,20.7192769 23.0836226,20.7192769 C23.0959782,20.7192769 23.1168724,20.7052475 23.147973,20.6597585 C23.18041,20.6123148 23.2126422,20.5430452 23.2435018,20.4529306 L23.2041532,20.4428678 C23.1443141,20.4282338 23.0832816,20.4142064 23.021254,20.4008315 L22.9928803,20.3948877 Z" id="形状结合" fill="#000000" fill-rule="nonzero"></path>
        <path d="M19.4946282,26.0505023 C19.8846759,25.9263863 20.2056005,25.9755172 20.4354278,26.2074293 C20.6186373,26.3923008 20.5101223,26.5853429 20.2362601,26.7123725 C20.0219211,26.8117926 19.6635275,26.9063084 19.1557919,26.9990994 C19.0811254,27.012745 19.0095343,26.9632778 18.9958887,26.8886114 C18.9822431,26.8139449 19.0317102,26.7423538 19.1063767,26.7287082 C19.5928605,26.6398011 19.9326974,26.5501791 20.1205999,26.4630215 C20.1743008,26.4381126 20.2114017,26.4151353 20.2319704,26.3980027 L20.2346853,26.3954752 L20.2211507,26.3826535 C20.0790696,26.2532885 19.8826364,26.2236883 19.6149251,26.3011967 L19.5779757,26.3124306 C19.5056462,26.3354464 19.4283536,26.2954697 19.4053378,26.2231402 C19.382322,26.1508106 19.4222987,26.073518 19.4946282,26.0505023 Z" id="路径-30" fill="#000000" fill-rule="nonzero"></path>
    </g>
</svg>