<?xml version="1.0" encoding="UTF-8"?>
<svg width="32px" height="32px" viewBox="0 0 32 32" version="1.1" xmlns="http://www.w3.org/2000/svg" xmlns:xlink="http://www.w3.org/1999/xlink">
    <title>curve</title>
    <g id="curve" stroke="none" stroke-width="1" fill="none" fill-rule="evenodd">
        <path d="M16.1871165,21.6673902 C16.2525718,20.46677 16.3573005,19.3289922 16.3573005,18.187907 C16.3573005,17.4933333 16.6027581,17.2651163 17.2736758,17.2419638 C18.406054,17.2055814 19.5417049,17.1096641 20.6675375,16.9674419 C21.3450007,16.881447 22.035555,16.7392248 22.6606539,16.4779328 C24.4377676,15.7403618 25.056321,14.1461499 24.077763,12.4824806 C23.5344833,11.5629974 22.758837,10.6368992 21.8620982,10.1077003 C19.8788001,8.93354005 17.7776823,7.95452196 15.6765645,7.00857881 C14.7667346,6.59844961 13.7325396,6.58521964 12.9732571,7.44186047 C12.2205202,8.28857881 12.3612493,9.25436693 12.8063459,10.2036176 C14.959828,14.8109561 15.0580111,19.5406718 13.5656283,24.33323 C13.0387125,26.0299742 12.0830639,27.4422739 10.1979488,27.8887855 C8.32265207,28.3352972 6.77463224,27.8358656 6.00553148,26.0729716 C5.28224949,24.4159173 4.77497026,22.5967959 4.54914919,20.8008269 C4.10077981,17.1989664 4.30041873,13.5937984 5.44588795,10.1077003 C5.72407333,9.25767442 6.1200784,8.43741602 6.56190224,7.66015504 C8.08701269,4.98108527 10.0506742,4.00206718 12.9994393,4.81901809 C17.2016749,5.98325581 21.2369993,7.63369509 24.5915878,10.5509044 C25.5832368,11.4108527 26.4537934,12.518863 27.0821651,13.6764858 C28.4501826,16.1934884 27.0887107,18.8758656 24.3395845,19.5373643 C21.6297316,20.1889406 18.9460609,20.9463566 16.1838437,21.6740052 L16.1871165,21.6673902 Z M12.1059733,20.0731783 C11.6346945,18.8097158 11.3270542,17.4767959 10.6659548,16.358863 C9.97212775,15.1880103 8.79720361,15.3004651 7.96592023,16.3952455 C6.65681255,18.1151421 6.75826839,21.9187597 8.15246807,23.6022739 C9.02957022,24.6573643 10.1946761,24.7036693 10.8590482,23.5228941 C11.4219645,22.5273385 11.6641494,21.3432558 12.1027005,20.0764858 L12.1059733,20.0731783 Z" id="形状" fill="#000000" fill-rule="nonzero"></path>
        <path d="M16.491484,15.4989147 C15.7583837,13.1737468 15.0743749,11.0073385 14.3936389,8.84423773 C14.4590943,8.78470284 14.534368,8.68217054 14.576914,8.69209302 C17.2965852,9.44950904 19.852618,10.5509044 21.9046442,12.565168 C22.290831,12.9422222 22.6671995,13.7194832 22.5297432,14.1395349 C22.3955596,14.5529716 21.6264589,14.9167959 21.0897247,15.0027907 C19.5417049,15.2508527 17.9675029,15.3500775 16.491484,15.4989147 L16.491484,15.4989147 Z" id="路径" fill="#000000" fill-rule="nonzero"></path>
        <path d="M12.1059733,20.0731783 C11.6641494,21.3399483 11.4219645,22.5207235 10.862321,23.5195866 C10.1946761,24.7003618 9.02957022,24.6540568 8.15574084,23.5989664 C6.75826839,21.9187597 6.66008532,18.1118346 7.969193,16.391938 C8.80047637,15.2971576 9.97540052,15.1847028 10.6692276,16.3555556 C11.330327,17.4734884 11.6379673,18.8064083 12.109246,20.0698708 L12.1059733,20.0731783 Z M9.1801176,21.9882171 L9.58266821,21.9650646 C10.224131,20.3807752 10.1161296,18.9056331 9.1801176,17.8108527 L9.1801176,21.9849096 L9.1801176,21.9882171 Z" id="形状" fill="#FFFFFF" fill-rule="nonzero"></path>
        <path d="M9.1801176,21.9882171 L9.1801176,17.8141602 C10.1161296,18.9056331 10.2274037,20.3840827 9.58266821,21.9683721 L9.1801176,21.9915245 L9.1801176,21.9882171 Z" id="路径" fill="#000000" fill-rule="nonzero"></path>
    </g>
</svg>