<?xml version="1.0" encoding="UTF-8"?>
<svg width="32px" height="32px" viewBox="0 0 32 32" version="1.1" xmlns="http://www.w3.org/2000/svg" xmlns:xlink="http://www.w3.org/1999/xlink">
    <title>debank</title>
    <g id="debank" stroke="none" stroke-width="1" fill="none" fill-rule="evenodd">
        <rect id="矩形" fill="#FFFFFF" x="0" y="0" width="32" height="32" rx="8"></rect>
        <g id="编组-40" transform="translate(8, 7)" fill-rule="nonzero">
            <path d="M11.0458355,0 C13.6779445,0 15.8251596,2.07607708 15.9393027,4.68005289 L15.9440752,4.89823968 C15.9440752,6.93544039 15.2583609,8.30269383 13.8869324,9 C15.1960233,9.69499262 15.8803208,10.980326 15.9398249,12.8560002 L15.9440752,13.1279696 C15.9440752,15.8187177 13.7627929,18 11.0720448,18 L0.00121808315,18 L0.00121808315,14.4 L10.2869324,14.4 C11.2810449,14.4 12.0869324,13.5941125 12.0869324,12.6 C12.0869324,11.6058875 11.2810449,10.8 10.2869324,10.8 L6.00121808,10.8 L6.00121808,7.2 L10.2869324,7.2 C11.2810449,7.2 12.0869324,6.39411255 12.0869324,5.4 C12.0869324,4.40588745 11.2810449,3.6 10.2869324,3.6 L0.00121808315,3.6 L0.00121808315,0 L11.0458355,0 Z" id="形状结合" fill="#FE9A7F"></path>
            <path d="M0.001,14.097 L0.00121808315,14.4 L9.00214428,14.3997678 C7.17774353,16.5859039 4.2729696,18 1.00121808,18 C0.663302044,18 0.329300687,17.9849153 4.6240789e-14,17.9554534 L0.000549493568,14.097 L0.001,14.097 Z M11.0012181,9 C11.0012181,9.64150059 10.9266445,10.2673253 10.7848739,10.8708354 C10.62628,10.8242673 10.4594401,10.8 10.2869324,10.8 L4.72709644,10.8001215 C4.96844932,10.1972139 5.10121808,9.53911185 5.10121808,8.85 C5.10121808,8.27374804 5.00837676,7.71918033 4.83683603,7.20043878 L10.2869324,7.2 C10.4594401,7.2 10.62628,7.17573275 10.7842244,7.13042578 C10.9266445,7.73267466 11.0012181,8.35849941 11.0012181,9 Z M1.00121808,0 C4.2729696,0 7.17774353,1.41409609 9.00214428,3.60023225 L0.00121808315,3.6 L4.51860771e-14,0.0445466306 C0.329300687,0.0150846733 0.663302044,0 1.00121808,0 Z" id="形状结合" fill="#DF876F"></path>
            <path d="M0.00121808315,0 C4.97178083,0 9.00121808,4.02943725 9.00121808,9 C9.00121808,13.9705627 4.97178083,18 0.00121808315,18 L0.000720160407,14.097 L0.0676226987,14.095621 C2.86676921,13.9821316 5.10121808,11.6770076 5.10121808,8.85 C5.10121808,6.0007405 2.83145519,3.68161253 0.00142064018,3.60210732 L0.00121808315,0 Z" id="形状结合" fill="#FF6238"></path>
        </g>
    </g>
</svg>