<?xml version="1.0" encoding="UTF-8"?>
<svg width="32px" height="32px" viewBox="0 0 32 32" version="1.1" xmlns="http://www.w3.org/2000/svg" xmlns:xlink="http://www.w3.org/1999/xlink">
    <title>DeFiLlama</title>
    <defs>
        <linearGradient x1="50%" y1="0%" x2="50%" y2="100%" id="linearGradient-1">
            <stop stop-color="#83B3FE" offset="0%"></stop>
            <stop stop-color="#7FB2FC" offset="73.4800966%"></stop>
            <stop stop-color="#4A95FF" offset="100%"></stop>
        </linearGradient>
        <linearGradient x1="50%" y1="0%" x2="50%" y2="100%" id="linearGradient-2">
            <stop stop-color="#0464EE" offset="0%"></stop>
            <stop stop-color="#0044A3" offset="58.8390004%"></stop>
            <stop stop-color="#013A88" offset="100%"></stop>
        </linearGradient>
        <linearGradient x1="50%" y1="0%" x2="50%" y2="100%" id="linearGradient-3">
            <stop stop-color="#013A88" offset="0%"></stop>
            <stop stop-color="#0044A3" offset="41.1609996%"></stop>
            <stop stop-color="#0464EE" offset="100%"></stop>
        </linearGradient>
        <linearGradient x1="10.8449914%" y1="15.4905058%" x2="80.5688883%" y2="63.8947879%" id="linearGradient-4">
            <stop stop-color="#83B3FE" offset="0%"></stop>
            <stop stop-color="#4A95FF" offset="100%"></stop>
        </linearGradient>
        <linearGradient x1="50%" y1="0%" x2="50%" y2="100%" id="linearGradient-5">
            <stop stop-color="#FFFFFF" offset="0%"></stop>
            <stop stop-color="#FFFFFF" offset="50.7938839%"></stop>
            <stop stop-color="#BBD8FF" offset="100%"></stop>
        </linearGradient>
    </defs>
    <g id="DeFiLlama" stroke="none" stroke-width="1" fill="none" fill-rule="evenodd">
        <path d="M6,2 L16,2 C23.1797017,2 29,7.82029825 29,15 L29,17 C29,24.1797017 23.1797017,30 16,30 L6,30 C4.34314575,30 3,28.6568542 3,27 L3,5 C3,3.34314575 4.34314575,2 6,2 Z" id="矩形" fill="url(#linearGradient-1)"></path>
        <path d="M16,2 C18.7393257,2 21.2807618,2.84726598 23.3765468,4.29403647 C23.4581393,5.01831275 23.5,5.75426782 23.5,6.5 C23.5,17.2695526 14.7695526,26 4,26 C3.66437815,26 3.33073666,25.9915211 2.99927805,25.9747657 L3,5 C3,3.34314575 4.34314575,2 6,2 L16,2 Z" id="形状结合" fill="url(#linearGradient-2)"></path>
        <path d="M29,15 L29,17 C29,23.4281259 24.3344678,28.7665585 18.2049211,29.8137799 C16.1880575,26.7714606 15,23.0367152 15,19 C15,12.6415495 17.9477038,7.03231979 22.4371379,3.70234059 C26.3577712,5.9421698 29,10.1625221 29,15 Z" id="形状结合" fill="url(#linearGradient-3)"></path>
        <path d="M9.91698565,1.99966678 C9.9715818,2.32498027 10,2.65917142 10,3 C10,6.3137085 7.3137085,9 4,9 C3.65917142,9 3.32498027,8.9715818 2.99966678,8.91698565 L3,5 C3,3.34314575 4.34314575,2 6,2 Z" id="形状结合" fill="url(#linearGradient-4)"></path>
        <path d="M22.6668313,5.63758786 C22.8762012,5.81327008 22.9369412,6.11003962 22.8134296,6.35385289 L21.0836114,9.7685348 C21.0324071,9.86961259 20.9697743,9.96448142 20.8969416,10.05128 C20.7484199,10.2282814 20.5673136,10.3618108 20.3697574,10.4504567 C20.6208512,10.8930756 20.801856,11.3826348 20.8977869,11.9029839 C21.4228535,12.2633947 21.7670746,12.8678483 21.7670746,13.552699 C21.7670746,14.152238 21.503271,14.6901624 21.0854081,15.0567279 L21.7051683,28.6844951 C19.9827932,29.5270556 18.0466276,30 16,30 L10.769,30 L11.4487412,15.0567279 C11.0308783,14.6901624 10.7670746,14.152238 10.7670746,13.552699 C10.7670746,12.8681278 11.1110149,12.2638882 11.6355204,11.903355 C11.7308503,11.3904619 11.9078719,10.9078105 12.1528918,10.4689196 C11.937965,10.3822995 11.7400576,10.2420348 11.5799953,10.05128 C11.5071626,9.96448142 11.4445297,9.86961259 11.3933255,9.7685348 L9.66350725,6.35385289 C9.5399957,6.11003962 9.60073569,5.81327008 9.81010562,5.63758786 C10.0194755,5.46190563 10.3222839,5.45362191 10.5409455,5.61759476 L13.15528,7.57860167 C13.3832834,7.20335829 13.7959067,6.95269896 14.2670746,6.95269896 C14.456892,6.95269896 14.6372075,6.99338114 14.7997777,7.06650202 C14.9286131,6.48658596 15.447174,6.05269896 16.0670746,6.05269896 C16.6869753,6.05269896 17.2055362,6.48658596 17.3356337,7.06723623 C17.4963661,6.99351115 17.6769543,6.95269896 17.8670746,6.95269896 C18.4126572,6.95269896 18.8797421,7.28878724 19.0725873,7.76522173 L21.9359914,5.61759476 C22.154653,5.45362191 22.4574614,5.46190563 22.6668313,5.63758786 Z" id="形状结合" fill="url(#linearGradient-5)"></path>
        <path d="M18.5949366,12.4031288 C18.4866936,12.7165566 18.4325721,13.0510267 18.4325721,13.4065391 C18.4325721,13.7905926 18.6508952,14.2735754 19.0875413,14.8554876 L19.0890893,14.8543246 C19.3869064,15.2507568 19.3492536,15.8055564 19.0006045,16.1581146 C18.113377,17.0527614 17.1462844,17.499632 16.1002424,17.499632 C15.0542005,17.499632 14.0870009,17.0525682 13.1986436,16.1584405 L13.1995665,16.1575263 C12.8508141,15.805463 12.8125112,15.2510812 13.109532,14.8544006 C13.5451571,14.2734116 13.7625721,13.7905926 13.7625721,13.4065391 C13.7625721,13.0490238 13.7085734,12.7127886 13.6005759,12.3978334 L13.599849,12.3980809 C13.5056238,12.1212681 13.537278,11.8170821 13.6864786,11.5656007 L13.7273264,11.5 L13.7273264,11.5 C13.8812693,11.7560244 14.1688122,11.9282523 14.4981265,11.9282523 C14.8274408,11.9282523 15.1149837,11.7560244 15.2689266,11.5 C15.3383944,12.0212797 15.6154996,12.2819196 16.1002424,12.2819196 C16.5849852,12.2819196 16.8620905,12.0212797 16.9315583,11.5 C17.0855012,11.7560244 17.3730441,11.9282523 17.7023584,11.9282523 C18.0316726,11.9282523 18.3192155,11.7560244 18.4731584,11.5 L18.5112086,11.5671956 C18.6609789,11.8199677 18.6920093,12.1258146 18.5960594,12.4035167 Z" id="路径" fill="#B1D3FF" fill-rule="nonzero"></path>
        <path d="M16.1645856,13.5405662 C16.2966193,13.5405662 16.7801531,13.5343418 16.9394335,13.5218929 L17.1032595,13.5074272 C17.2946315,13.4885603 17.4697052,13.5386612 17.4864468,13.7543281 C17.4939276,13.8506968 17.4631599,13.91063 17.4115666,13.9879436 L16.6205068,14.6323557 C16.5961338,14.6688792 16.577582,14.7099007 16.5656805,14.7535873 L16.3541636,15.7102749 C16.3152217,15.8532177 16.1808286,15.9335194 16.0539883,15.8896338 C15.9778618,15.8632947 15.9182633,15.7961564 15.8948616,15.7103759 L15.680855,14.7456403 C15.6703535,14.7071463 15.6546796,14.6706931 15.634379,14.6375501 L14.867205,13.9742919 C14.7573987,13.7951789 14.7824779,13.6230057 14.9400465,13.5405662 C15.0165618,13.5005336 15.1038694,13.4952529 15.1848327,13.5030675 C15.4258294,13.5281346 15.9779914,13.5405662 16.1645856,13.5405662 Z" id="矩形" fill="#003580"></path>
        <path d="M8.35,9 C8.54869114,9 8.71505579,9.15055795 8.7348263,9.34826302 L8.93532258,11.3532258 C8.96764906,11.6764906 8.73179699,11.9647542 8.40853226,11.9970807 C8.38908213,11.9990257 8.36954714,12 8.35,12 C8.02512296,12 7.76175808,11.7366351 7.76175808,11.4117581 C7.76175808,11.3922109 7.7627324,11.372676 7.76467742,11.3532258 L7.9651737,9.34826302 C7.98494421,9.15055795 8.15130886,9 8.35,9 Z" id="矩形" fill="#FFFFFF" transform="translate(8.35, 10.5) rotate(-60) translate(-8.35, -10.5)"></path>
        <path d="M5.51453018,16.4578411 C6.02617276,16.6502915 6.42132937,16.7465168 6.7,16.7465168 C7.2,16.7465168 7.4,16.3732584 7.4,16 C7.4,15.6267416 7.2,15.2534832 6.7,15.2534832 C6.42122304,15.2534832 6.02587119,15.3514061 5.51394445,15.547252 L5.51394262,15.5472472 C5.32486715,15.619581 5.2,15.8010438 5.2,16.0034832 C5.2,16.2056557 5.32530259,16.3866609 5.5145314,16.4578378 Z" id="矩形" fill="#B3D3FF"></path>
        <path d="M8.35,20 C8.54869114,20 8.71505579,20.1505579 8.7348263,20.348263 L8.93532258,22.3532258 C8.96764906,22.6764906 8.73179699,22.9647542 8.40853226,22.9970807 C8.38908213,22.9990257 8.36954714,23 8.35,23 C8.02512296,23 7.76175808,22.7366351 7.76175808,22.4117581 C7.76175808,22.3922109 7.7627324,22.372676 7.76467742,22.3532258 L7.9651737,20.348263 C7.98494421,20.1505579 8.15130886,20 8.35,20 Z" id="矩形备份" fill="#FFFFFF" transform="translate(8.35, 21.5) scale(1, -1) rotate(-60) translate(-8.35, -21.5)"></path>
        <path d="M23.8240381,9 C24.0227292,9 24.1890939,9.15055795 24.2088644,9.34826302 L24.4093607,11.3532258 C24.4416872,11.6764906 24.2058351,11.9647542 23.8825704,11.9970807 C23.8631202,11.9990257 23.8435852,12 23.8240381,12 C23.4991611,12 23.2357962,11.7366351 23.2357962,11.4117581 C23.2357962,11.3922109 23.2367705,11.372676 23.2387155,11.3532258 L23.4392118,9.34826302 C23.4589823,9.15055795 23.625347,9 23.8240381,9 Z" id="矩形" fill="#FFFFFF" transform="translate(23.824, 10.5) scale(-1, 1) rotate(-60) translate(-23.824, -10.5)"></path>
        <path d="M25.0885683,16.4578411 C25.6002109,16.6502915 25.9953675,16.7465168 26.2740381,16.7465168 C26.7740381,16.7465168 26.9740381,16.3732584 26.9740381,16 C26.9740381,15.6267416 26.7740381,15.2534832 26.2740381,15.2534832 C25.9952611,15.2534832 25.5999093,15.3514061 25.0879826,15.547252 L25.0879807,15.5472472 C24.8989053,15.619581 24.7740381,15.8010438 24.7740381,16.0034832 C24.7740381,16.2056557 24.8993407,16.3866609 25.0885695,16.4578378 Z" id="矩形" fill="#B3D3FF" transform="translate(25.874, 16) scale(-1, 1) translate(-25.874, -16)"></path>
        <path d="M23.8240381,20 C24.0227292,20 24.1890939,20.1505579 24.2088644,20.348263 L24.4093607,22.3532258 C24.4416872,22.6764906 24.2058351,22.9647542 23.8825704,22.9970807 C23.8631202,22.9990257 23.8435852,23 23.8240381,23 C23.4991611,23 23.2357962,22.7366351 23.2357962,22.4117581 C23.2357962,22.3922109 23.2367705,22.372676 23.2387155,22.3532258 L23.4392118,20.348263 C23.4589823,20.1505579 23.625347,20 23.8240381,20 Z" id="矩形备份" fill="#FFFFFF" transform="translate(23.824, 21.5) scale(-1, -1) rotate(-60) translate(-23.824, -21.5)"></path>
    </g>
</svg>