<?xml version="1.0" encoding="UTF-8"?>
<svg width="32px" height="32px" viewBox="0 0 32 32" version="1.1" xmlns="http://www.w3.org/2000/svg" xmlns:xlink="http://www.w3.org/1999/xlink">
    <title>Dexscreener</title>
    <g id="Dexscreener" stroke="none" stroke-width="1" fill="none" fill-rule="evenodd">
        <path d="M24,32 L8,32 C3.581722,32 5.41083001e-16,28.418278 0,24 L0,8 C-5.41083001e-16,3.581722 3.581722,8.11624501e-16 8,0 L24,0 C28.418278,-8.11624501e-16 32,3.581722 32,8 L32,24 C32,28.418278 28.418278,32 24,32 Z" id="路径" fill="#000000" fill-rule="nonzero"></path>
        <path d="M3.95434783,25.0869565 C4.08826087,24.8086957 4.22565217,24.5326087 4.35521739,24.2521739 C5.40695652,21.9778261 6.02652174,19.5856522 6.16391304,17.0891304 C6.26043478,15.3330435 6.24695652,13.5695652 6.25478261,11.8095652 C6.26217391,10.1117391 6.68869565,8.53130435 7.4926087,7.04478261 C7.51217391,7.00826087 7.53695652,6.97434783 7.5726087,6.91869565 C7.73695652,7.13391304 7.88130435,7.33913043 8.04217391,7.53086957 C8.37217391,7.92521739 8.70347826,8.31869565 9.05,8.69826087 C9.15391304,8.81217391 9.15608696,8.89086957 9.08913043,9.01608696 C8.83478261,9.49347826 8.65434783,9.99608696 8.61913043,10.5413043 C8.52913043,11.9226087 9.36826087,13.1321739 10.7813043,13.5978261 C11.1813043,13.7295652 11.616087,13.7573913 12.0356522,13.8282609 C12.103913,13.84 12.1756522,13.83 12.2408696,13.83 C12.2086957,14.3047826 12.1834783,14.7521739 12.1417391,15.1982609 C12.136087,15.2569565 12.0552174,15.3234783 11.993913,15.3595652 C11.0804348,15.8921739 10.1643478,16.4204348 9.24913043,16.95 C9.18652174,16.986087 9.12478261,17.0234783 9.04086957,17.0730435 C9.09652174,17.1121739 9.1373913,17.1465217 9.18304348,17.1721739 C9.89652174,17.5730435 10.606087,17.9817391 11.326087,18.3704348 C11.8478261,18.6521739 12.2695652,19.0356522 12.6126087,19.5147826 C13.3243478,20.5082609 13.8278261,21.61 14.2095652,22.7591304 C14.796087,24.5243478 15.3243478,26.3091304 15.8773913,28.0856522 C15.9091304,28.1882609 15.9417391,28.2904348 15.9947826,28.4582609 C16.0395652,28.3221739 16.066087,28.2447826 16.0904348,28.1669565 C16.6269565,26.4304348 17.1404348,24.6865217 17.7078261,22.96 C18.0878261,21.8030435 18.5821739,20.6891304 19.2695652,19.6721739 C19.6447826,19.1169565 20.1065217,18.6643478 20.7078261,18.3473913 C21.3930435,17.986087 22.0621739,17.5934783 22.7378261,17.213913 C22.8056522,17.176087 22.8708696,17.133913 22.9643478,17.0778261 C22.4904348,16.8034783 22.0417391,16.543913 21.5926087,16.2843478 C21.066087,15.9795652 20.5413043,15.6713043 20.0108696,15.373913 C19.8882609,15.3052174 19.8404348,15.2286957 19.8347826,15.0865217 C19.8186957,14.676087 19.7817391,14.266087 19.753913,13.8643478 C20.0904348,13.8217391 20.4326087,13.806087 20.7613043,13.7313043 C21.7926087,13.4965217 22.6213043,12.9673913 23.0986957,11.99 C23.53,11.1069565 23.4765217,10.2034783 23.0486957,9.34956522 C22.8434783,8.94 22.9008696,8.7126087 23.2104348,8.40043478 C23.6517391,7.95521739 24.0204348,7.43782609 24.4313043,6.93782609 C24.4621739,6.98913043 24.5,7.04608696 24.5321739,7.10608696 C25.3256522,8.5826087 25.7373913,10.1543478 25.7404348,11.8352174 C25.7430435,13.3930435 25.7230435,14.9521739 25.7873913,16.5078261 C25.9095652,19.4621739 26.6165217,22.2765217 27.9608696,24.9204348 C27.9869565,24.9717391 28.0104348,25.023913 28.0080248,25.1069565 C26.9321739,24.2404348 25.8569565,23.373913 24.763913,22.4934783 C23.9782609,23.7673913 23.203913,25.0230435 22.4130435,26.3047826 C21.5908696,25.5317391 20.7813043,24.7704348 19.943913,23.9826087 C18.6313043,26.1117391 17.3269565,28.2278261 15.9973913,30.3847826 C14.6752174,28.2404348 13.3713043,26.1247826 12.0508696,23.9834783 C11.2278261,24.7573913 10.4178261,25.5191304 9.58217391,26.3043478 C8.7973913,25.0326087 8.02130435,23.7743478 7.23086957,22.4934783 C6.13913043,23.3730435 5.06086957,24.2421739 3.9826087,25.1108696 C3.97391304,25.1030435 3.96478261,25.0956522 3.95608696,25.0878261 L3.95434783,25.0869565 Z" id="路径" fill="#FFFFFF" fill-rule="nonzero"></path>
        <path d="M6.69173913,3.15956522 C7.06565217,3.48652174 7.4326087,3.8226087 7.81782609,4.13608696 C7.9726087,4.26217391 8.16391304,4.34652174 8.34565217,4.43478261 C8.72434783,4.61869565 9.01869565,4.61173913 9.3773913,4.27086957 C13.0756522,0.753478261 18.9886957,0.77826087 22.6682609,4.31652174 C22.956087,4.59347826 23.2030435,4.61695652 23.5313043,4.48304348 C24.1786957,4.21956522 24.6973913,3.79 25.1421739,3.26173913 C25.1869565,3.20869565 25.2286957,3.15347826 25.2721739,3.09913043 C25.2934783,3.11086957 25.3147826,3.1226087 25.336087,3.13434783 C25.136087,3.54 24.9591304,3.95913043 24.7317391,4.34869565 C23.9421739,5.70347826 22.8773913,6.82652174 21.7086957,7.85608696 C20.5191304,8.90391304 19.24,9.82347826 17.8208696,10.54 C17.6895652,10.606087 17.5991304,10.6073913 17.4691304,10.5234783 C16.4869565,9.8873913 15.4973913,9.8926087 14.513913,10.5252174 C14.4178261,10.5869565 14.3426087,10.6295652 14.2217391,10.5652174 C11.456087,9.09782609 9.09913043,7.16391304 7.37043478,4.52565217 C7.08869565,4.09521739 6.89043478,3.61043478 6.65347826,3.15043478 C6.66652174,3.15347826 6.67913043,3.15652174 6.69217391,3.15913043 L6.69173913,3.15956522 Z" id="路径" fill="#FFFFFF" fill-rule="nonzero"></path>
        <path d="M19.7704348,17.0447826 C19.7417391,17.076087 19.7308696,17.0956522 19.7143478,17.1052174 C18.3291304,17.906087 17.486087,19.1482609 16.9204348,20.5978261 C16.6104348,21.3926087 16.3617391,22.2113043 16.0843478,23.0191304 C16.0621739,23.0843478 16.0343478,23.1473913 15.9895652,23.2613043 C15.8386957,22.7930435 15.7230435,22.3695652 15.5665217,21.9613043 C15.2691304,21.1852174 14.9895652,20.3978261 14.6278261,19.6517391 C14.0986957,18.5604348 13.3034783,17.6873913 12.2030435,17.0647826 C12.3517391,16.9752174 12.476087,16.8986957 12.6021739,16.8252174 C12.846087,16.6830435 13.083913,16.5282609 13.3373913,16.4047826 C13.6395652,16.2578261 13.7265217,16.0291304 13.7373913,15.7047826 C13.7578261,15.0773913 13.7782609,14.443913 13.8847826,13.8273913 C14.0226087,13.0295652 14.443913,12.3743478 15.116087,11.8991304 C15.6852174,11.4969565 16.3282609,11.5017391 16.8947826,11.9113043 C17.736087,12.52 18.1065217,13.3869565 18.2113043,14.3821739 C18.2595652,14.8413043 18.2582609,15.3069565 18.2586957,15.77 C18.2586957,16.0552174 18.3656522,16.2482609 18.6169565,16.3847826 C19.003913,16.5947826 19.3813043,16.8208696 19.7708696,17.0447826 L19.7704348,17.0447826 Z" id="路径" fill="#FFFFFF" fill-rule="nonzero"></path>
        <path d="M13.4443478,11.9134783 C12.803913,12.3713043 11.2995652,12.4921739 10.5082609,11.6121739 C10.116087,11.176087 10.0734783,10.5404348 10.3791304,9.97869565 C11.4047826,10.626087 12.4317391,11.2743478 13.4447826,11.9134783 L13.4443478,11.9134783 Z" id="路径" fill="#FFFFFF" fill-rule="nonzero"></path>
        <path d="M18.5186957,11.9313043 C19.5626087,11.2730435 20.5830435,10.6295652 21.6065217,9.98391304 C21.99,10.4956522 21.8591304,11.3665217 21.2769565,11.8056522 C20.6130435,12.306087 19.8656522,12.3626087 19.086087,12.1486957 C18.8865217,12.093913 18.6978261,12.0008696 18.5186957,11.9313043 L18.5186957,11.9313043 Z" id="路径" fill="#FFFFFF" fill-rule="nonzero"></path>
    </g>
</svg>