<?xml version="1.0" encoding="UTF-8"?>
<svg width="32px" height="32px" viewBox="0 0 32 32" version="1.1" xmlns="http://www.w3.org/2000/svg" xmlns:xlink="http://www.w3.org/1999/xlink">
    <title>etherscan</title>
    <g id="etherscan" stroke="none" stroke-width="1" fill="none" fill-rule="evenodd">
        <path d="M6.66230662,15.2187449 C6.66230662,14.4801076 7.26909017,13.873324 8.00644738,13.873324 L8.00644738,13.873324 L10.2735648,13.873324 C11.0122021,13.873324 11.6445884,14.4801076 11.6445884,15.2456277 L11.6445884,15.2456277 L11.6445884,23.7956431 C11.908296,23.7162748 12.2244891,23.6369065 12.5944478,23.5575382 C13.0949803,23.4256843 13.464939,22.9776374 13.464939,22.4489421 L13.464939,11.8404711 C13.464939,11.1018338 14.0717225,10.4681674 14.8359626,10.4681674 L17.10308,10.4681674 C17.8417173,10.4681674 18.4741036,11.074951 18.4741036,11.8404711 L18.4741036,21.684702 C18.4741036,21.684702 19.0284016,21.4465971 19.5814195,21.2097723 C20.0038638,21.025433 20.2675714,20.6298716 20.2675714,20.1536617 L20.2675714,8.410992 C20.2675714,7.67235465 20.8743549,7.03868829 21.6129923,7.03868829 L23.8801097,7.03868829 C24.618747,7.03868829 25.2255306,7.64547183 25.2255306,8.410992 L25.2255306,18.0964863 C27.1764549,16.6716971 29.1811448,14.9563174 30.7633905,12.8978619 C31.2383202,12.2910783 31.370174,11.4986753 31.1064664,10.760038 C28.2056827,2.42124475 19.0834474,-2.01313962 10.7510548,0.890204418 C2.41866223,3.79354846 -2.01060161,12.9234645 0.88890203,21.2635379 C1.20509514,22.2133974 1.62753938,23.1107714 2.1280718,23.9812625 C2.52363322,24.6674144 3.26227057,25.0629758 4.05339342,24.9836075 C4.47583766,24.9567247 5.00325289,24.9042392 5.66124179,24.8248709 C6.24114252,24.7723854 6.66358676,24.2705728 6.66358676,23.689392 L6.66230662,15.2187449 L6.66230662,15.2187449 Z" id="Path_1" fill="#21325B" fill-rule="nonzero"></path>
        <path d="M6.60854099,28.941782 C13.7542493,34.1404064 23.7482559,32.5568806 28.9417597,25.4060517 C30.9195669,22.6614443 32,19.3625388 32,15.9855452 C32,15.6155865 31.9731172,15.2469079 31.9475145,14.8769491 C26.1216244,23.6113038 15.336495,27.7013321 6.60854099,28.941782 L6.60854099,28.941782 Z" id="Path_2" fill="#979695" fill-rule="nonzero"></path>
    </g>
</svg>