<?xml version="1.0" encoding="UTF-8"?>
<svg width="32px" height="32px" viewBox="0 0 32 32" version="1.1" xmlns="http://www.w3.org/2000/svg" xmlns:xlink="http://www.w3.org/1999/xlink">
    <title>galxe</title>
    <defs>
        <linearGradient x1="65.8268929%" y1="0%" x2="31.9667578%" y2="100%" id="linearGradient-1">
            <stop stop-color="#732FF2" offset="0%"></stop>
            <stop stop-color="#A547E6" offset="40.6356494%"></stop>
            <stop stop-color="#D0729F" offset="100%"></stop>
        </linearGradient>
    </defs>
    <g id="galxe" stroke="none" stroke-width="1" fill="none" fill-rule="evenodd">
        <rect id="矩形" fill="url(#linearGradient-1)" x="0" y="0" width="32" height="32" rx="8"></rect>
        <path d="M12.2,1.99743407 C12.8275773,1.99743407 13.3363293,2.506186 13.3363293,3.13376332 C13.3363293,3.15440467 13.3357668,3.1750422 13.3346426,3.19565292 L12.2,23.9974341 L12.2,23.9974341 L11.0653574,3.19565292 C11.0311767,2.56900711 11.5114646,2.03330139 12.1381104,1.99912071 C12.1587211,1.99799649 12.1793586,1.99743407 12.2,1.99743407 Z" id="矩形" fill="#FFFFFF" transform="translate(12.2, 12.9974) rotate(57) translate(-12.2, -12.9974)"></path>
        <path d="M16.9264192,13.7068188 C17.394546,13.7068188 17.7740377,14.0863106 17.7740377,14.5544374 C17.7740377,14.5713707 17.7735303,14.5883003 17.7725161,14.6052032 L16.9264192,28.7068188 L16.9264192,28.7068188 L16.0803222,14.6052032 C16.0522851,14.1379168 16.4083669,13.7363776 16.8756534,13.7083404 C16.8925563,13.7073263 16.9094858,13.7068188 16.9264192,13.7068188 Z" id="矩形" fill="#FFFFFF" transform="translate(16.9264, 21.2068) rotate(64) translate(-16.9264, -21.2068)"></path>
        <path d="M15.2866698,0.932973586 C16.2755542,0.932973586 17.0772035,1.73462282 17.0772035,2.72350726 C17.0772035,2.75890594 17.0761537,2.79429684 17.0740556,2.82963329 L15.2866698,32.9329736 L15.2866698,32.9329736 L13.499284,2.82963329 C13.4406722,1.84248736 14.1933978,0.99473322 15.1805438,0.93612143 C15.2158802,0.934023329 15.2512711,0.932973586 15.2866698,0.932973586 Z" id="矩形" fill="#FFFFFF" transform="translate(15.2867, 16.933) rotate(60) translate(-15.2867, -16.933)"></path>
    </g>
</svg>