<?xml version="1.0" encoding="UTF-8"?>
<svg width="32px" height="32px" viewBox="0 0 32 32" version="1.1" xmlns="http://www.w3.org/2000/svg" xmlns:xlink="http://www.w3.org/1999/xlink">
    <title>jinse</title>
    <g id="jinse" stroke="none" stroke-width="1" fill="none" fill-rule="evenodd">
        <path d="M28.5,4 L28.5,28.5 L28.5,28.5 L4,28.5 C3.72385763,28.5 3.5,28.2761424 3.5,28 L3.5,22 C3.5,21.7238576 3.72385763,21.5 4,21.5 L21,21.5 C21.2761424,21.5 21.5,21.2761424 21.5,21 L21.5,4 C21.5,3.72385763 21.7238576,3.5 22,3.5 L28,3.5 C28.2761424,3.5 28.5,3.72385763 28.5,4 Z M10.5,13 L10.5,19 C10.5,19.2761424 10.2761424,19.5 10,19.5 L4,19.5 C3.72385763,19.5 3.5,19.2761424 3.5,19 L3.5,13 C3.5,12.7238576 3.72385763,12.5 4,12.5 L10,12.5 C10.2761424,12.5 10.5,12.7238576 10.5,13 Z M19.5,4 L19.5,10 C19.5,10.2761424 19.2761424,10.5 19,10.5 L13,10.5 C12.7238576,10.5 12.5,10.2761424 12.5,10 L12.5,4 C12.5,3.72385763 12.7238576,3.5 13,3.5 L19,3.5 C19.2761424,3.5 19.5,3.72385763 19.5,4 Z" id="形状" fill="#F29700"></path>
    </g>
</svg>