<?xml version="1.0" encoding="UTF-8"?>
<svg width="32px" height="32px" viewBox="0 0 32 32" version="1.1" xmlns="http://www.w3.org/2000/svg" xmlns:xlink="http://www.w3.org/1999/xlink">
    <title>Layer3</title>
    <g id="Layer3" stroke="none" stroke-width="1" fill="none" fill-rule="evenodd">
        <rect id="矩形" fill="#101114" x="0" y="0" width="32" height="32" rx="8"></rect>
        <path d="M8.5,9 L14.5,9 C14.7761424,9 15,9.22385763 15,9.5 L15,19 L15,19 L8,12 L8,9.5 C8,9.22385763 8.22385763,9 8.5,9 Z" id="矩形" fill="#FFFFFF"></path>
        <path d="M17,17.5 L23,17.5 C23.2761424,17.5 23.5,17.7238576 23.5,18 L23.5,27.5 L23.5,27.5 L16.5,20.5 L16.5,18 C16.5,17.7238576 16.7238576,17.5 17,17.5 Z" id="矩形" fill="#FFFFFF" transform="translate(20, 22.5) scale(1, -1) rotate(90) translate(-20, -22.5)"></path>
        <path d="M8.5,19 L15,19 L15,19 L15,26 L8.5,26 C8.22385763,26 8,25.7761424 8,25.5 L8,19.5 C8,19.2238576 8.22385763,19 8.5,19 Z" id="矩形" fill="#FFFFFF"></path>
    </g>
</svg>