<?xml version="1.0" encoding="UTF-8"?>
<svg width="32px" height="32px" viewBox="0 0 32 32" version="1.1" xmlns="http://www.w3.org/2000/svg" xmlns:xlink="http://www.w3.org/1999/xlink">
    <title>ledger</title>
    <g id="ledger" stroke="none" stroke-width="1" fill="none" fill-rule="evenodd">
        <path d="M0,21.9424 L0,29.8528 L12.032,29.8528 L12.032,28.0992 L1.7536,28.0992 L1.7536,21.9424 L0,21.9424 Z M30.2464,21.9424 L30.2464,28.0992 L19.968,28.0992 L19.968,29.8528 L32,29.8528 L32,21.9424 L30.2464,21.9424 Z M12.0576,9.9104 L12.0576,21.9424 L19.968,21.9424 L19.968,20.3552 L13.8112,20.3552 L13.8112,9.8976 L12.0576,9.8976 L12.0576,9.9104 Z M0,2 L0,9.9104 L1.7536,9.9104 L1.7536,3.7536 L12.032,3.7536 L12.032,2 L0,2 Z M19.968,2 L19.968,3.7536 L30.2464,3.7536 L30.2464,9.9104 L32,9.9104 L32,2 L19.968,2 Z" id="形状" fill="#000000" fill-rule="nonzero"></path>
    </g>
</svg>