<?xml version="1.0" encoding="UTF-8"?>
<svg width="32px" height="32px" viewBox="0 0 32 32" version="1.1" xmlns="http://www.w3.org/2000/svg" xmlns:xlink="http://www.w3.org/1999/xlink">
    <title>metamask</title>
    <g id="metamask" stroke="none" stroke-width="1" fill="none" fill-rule="evenodd">
        <polygon id="路径" fill="#E2761B" fill-rule="nonzero" points="30.4064085 1 17.9196969 10.273642 20.2292682 4.80214273"></polygon>
        <polygon id="路径" fill="#E4761B" fill-rule="nonzero" points="1.58096403 1 13.9672869 10.3614032 11.7707318 4.80214273"></polygon>
        <polygon id="路径" fill="#E4761B" fill-rule="nonzero" points="25.913541 22.4964386 22.5880867 27.5916382 29.7036876 29.548902 31.749344 22.6094548"></polygon>
        <polygon id="路径" fill="#E4761B" fill-rule="nonzero" points="0.263283547 22.6094548 2.29631237 29.548902 9.41191326 27.5916382 6.08645897 22.4964386"></polygon>
        <polygon id="路径" fill="#E4761B" fill-rule="nonzero" points="9.0103585 13.8876349 7.02720833 16.8872995 14.0922992 17.2010931 13.8416432 9.60880374"></polygon>
        <polygon id="路径" fill="#E4761B" fill-rule="nonzero" points="22.977014 13.8876349 18.0832232 9.52104256 17.9196969 17.2010931 24.9727917 16.8872995"></polygon>
        <polygon id="路径" fill="#E4761B" fill-rule="nonzero" points="9.41191326 27.5916382 13.6534933 25.5207269 9.98899039 22.6593335"></polygon>
        <polygon id="路径" fill="#E4761B" fill-rule="nonzero" points="18.3338792 25.5207269 22.5880867 27.5916382 21.9983821 22.6593335"></polygon>
        <polygon id="路径" fill="#D7C1B3" fill-rule="nonzero" points="22.5880867 27.5916382 18.3338792 25.5207269 18.6729278 28.2943591 18.6350453 29.4611408"></polygon>
        <polygon id="路径" fill="#D7C1B3" fill-rule="nonzero" points="9.41191326 27.5916382 13.3649547 29.4611408 13.3396997 28.2943591 13.6534933 25.5207269"></polygon>
        <polygon id="路径" fill="#233447" fill-rule="nonzero" points="13.4274609 20.8277134 9.8886017 19.785944 12.3856915 18.6437859"></polygon>
        <polygon id="路径" fill="#233447" fill-rule="nonzero" points="18.5599116 20.8277134 19.601681 18.6437859 22.1113983 19.785944"></polygon>
        <polygon id="路径" fill="#CD6116" fill-rule="nonzero" points="9.41191326 27.5916382 10.0142454 22.4964386 6.08645897 22.6094548"></polygon>
        <polygon id="路径" fill="#CD6116" fill-rule="nonzero" points="21.9857546 22.4964386 22.5880867 27.5916382 25.913541 22.6094548"></polygon>
        <polygon id="路径" fill="#CD6116" fill-rule="nonzero" points="24.9727917 16.8872995 17.9196969 17.2010931 18.5725391 20.8277134 19.6143085 18.6437859 22.1240258 19.785944"></polygon>
        <polygon id="路径" fill="#CD6116" fill-rule="nonzero" points="9.8886017 19.785944 12.398319 18.6437859 13.4274609 20.8277134 14.0922992 17.2010931 7.02720833 16.8872995"></polygon>
        <polygon id="路径" fill="#E4751F" fill-rule="nonzero" points="7.02720833 16.8872995 9.98899039 22.6593335 9.8886017 19.785944"></polygon>
        <polygon id="路径" fill="#E4751F" fill-rule="nonzero" points="22.1240258 19.785944 21.9983821 22.6593335 24.9727917 16.8872995"></polygon>
        <polygon id="路径" fill="#E4751F" fill-rule="nonzero" points="14.0922992 17.2010931 13.4274609 20.8277134 14.2558254 25.1065446 14.4439753 19.4721504"></polygon>
        <polygon id="路径" fill="#E4751F" fill-rule="nonzero" points="17.9196969 17.2010931 17.5812797 19.4595229 17.7315471 25.1065446 18.5725391 20.8277134"></polygon>
        <polygon id="路径" fill="#F6851B" fill-rule="nonzero" points="18.5725391 20.8277134 17.7315471 25.1065446 18.3338792 25.5207269 21.9983821 22.6593335 22.1240258 19.785944"></polygon>
        <polygon id="路径" fill="#F6851B" fill-rule="nonzero" points="9.8886017 19.785944 9.98899039 22.6593335 13.6534933 25.5207269 14.2558254 25.1065446 13.4274609 20.8277134"></polygon>
        <polygon id="路径" fill="#C0AD9E" fill-rule="nonzero" points="18.6350453 29.4611408 18.6729278 28.2943591 18.3591342 28.0178166 13.6282383 28.0178166 13.3396997 28.2943591 13.3649547 29.4611408 9.41191326 27.5916382 10.7920999 28.7205375 13.5903557 30.6658051 18.3970168 30.6658051 21.2079001 28.7205375 22.5880867 27.5916382"></polygon>
        <polygon id="路径" fill="#161616" fill-rule="nonzero" points="18.3338792 25.5207269 17.7315471 25.1065446 14.2558254 25.1065446 13.6534933 25.5207269 13.3396997 28.2943591 13.6282383 28.0178166 18.3591342 28.0178166 18.6729278 28.2943591"></polygon>
        <polygon id="路径" fill="#763D16" fill-rule="nonzero" points="30.9336069 10.8759742 32 5.75615098 30.4064085 1 18.3338792 9.95984847 22.977014 13.8876349 29.5401614 15.8076475 30.9961131 14.1136673 30.3685259 13.6622339 31.3724128 12.7461082 30.5945583 12.143776 31.5984452 11.3779176"></polygon>
        <polygon id="路径" fill="#763D16" fill-rule="nonzero" points="0 5.75615098 1.06639307 10.8759742 0.388927254 11.3779176 1.39281416 12.143776 0.627587159 12.7461082 1.63147406 13.6622339 1.0038869 14.1136673 2.4472111 15.8076475 9.0103585 13.8876349 13.6534933 9.95984847 1.58096403 1"></polygon>
        <polygon id="路径" fill="#F6851B" fill-rule="nonzero" points="29.5401614 15.8076475 22.977014 13.8876349 24.9727917 16.8872995 21.9983821 22.6593335 25.913541 22.6094548 31.749344 22.6094548"></polygon>
        <polygon id="路径" fill="#F6851B" fill-rule="nonzero" points="9.0103585 13.8876349 2.4472111 15.8076475 0.263283547 22.6094548 6.08645897 22.6094548 9.98899039 22.6593335 7.02720833 16.8872995"></polygon>
        <polygon id="路径" fill="#F6851B" fill-rule="nonzero" points="17.9196969 17.2010931 18.3338792 9.95984847 20.2418957 4.80214273 11.7707318 4.80214273 13.6534933 9.95984847 14.0922992 17.2010931 14.2431979 19.4847779 14.2558254 25.1065446 17.7315471 25.1065446 17.7568021 19.4847779"></polygon>
    </g>
</svg>