<?xml version="1.0" encoding="UTF-8"?>
<svg width="32px" height="32px" viewBox="0 0 32 32" version="1.1" xmlns="http://www.w3.org/2000/svg" xmlns:xlink="http://www.w3.org/1999/xlink">
    <title>okx</title>
    <g id="okx" stroke="none" stroke-width="1" fill="none" fill-rule="evenodd">
        <rect fill="#FFFFFF" x="0" y="0" width="32" height="32"></rect>
        <path d="M0,8 L0,24 C5.41083001e-16,28.418278 3.581722,32 8,32 L24,32 C28.418278,32 32,28.418278 32,24 L32,8 C32,3.581722 28.418278,-8.11624501e-16 24,0 L8,0 C3.581722,8.11624501e-16 -5.41083001e-16,3.581722 0,8 Z M6.92240684,7.39216003 C6.92240684,7.16760768 7.1056622,6.98435231 7.33021455,6.98435231 L12.5697693,6.98435231 C12.7943217,6.98435231 12.977577,7.16760768 12.977577,7.39216003 L12.977577,12.6317148 C12.977577,12.8588482 12.7943217,13.0421036 12.5697693,13.0421036 L7.33021455,13.0421036 C7.1056622,13.0421036 6.92240684,12.8588482 6.92240684,12.6317148 L6.92240684,7.39216003 L6.92240684,7.39216003 Z M12.977577,24.60784 C12.977577,24.8323923 12.7943217,25.0156477 12.5697693,25.0156477 L7.33021455,25.0156477 C7.1056622,25.0156477 6.92240684,24.8323923 6.92240684,24.60784 L6.92240684,19.3682852 C6.92240684,19.1411518 7.1056622,18.9578964 7.33021455,18.9578964 L12.5697693,18.9578964 C12.7943217,18.9578964 12.977577,19.1411518 12.977577,19.3682852 L12.977577,24.60784 Z M18.6197774,19.0275851 L13.3802226,19.0275851 C13.1556703,19.0275851 12.9698338,18.8443297 12.9698338,18.6171963 L12.9698338,13.3776416 C12.9698338,13.1530892 13.1530892,12.9672528 13.3802226,12.9672528 L18.6197774,12.9672528 C18.8443297,12.9672528 19.0301662,13.1505081 19.0301662,13.3776416 L19.0301662,18.6171963 C19.0301662,18.8417487 18.8469108,19.0275851 18.6197774,19.0275851 Z M25.0853363,24.60784 C25.0853363,24.8323923 24.902081,25.0156477 24.6749476,25.0156477 L19.4353928,25.0156477 C19.2108405,25.0156477 19.0275851,24.8323923 19.0275851,24.60784 L19.0275851,19.3682852 C19.0275851,19.1411518 19.2108405,18.9578964 19.4353928,18.9578964 L24.6749476,18.9578964 C24.8994999,18.9578964 25.0853363,19.1411518 25.0853363,19.3682852 L25.0853363,24.60784 Z M25.0853363,12.6291337 C25.0853363,12.8562671 24.902081,13.0395225 24.6749476,13.0395225 L19.4353928,13.0395225 C19.2108405,13.0395225 19.0275851,12.8562671 19.0275851,12.6291337 L19.0275851,7.38957896 C19.0275851,7.16502662 19.2108405,6.98177125 19.4353928,6.98177125 L24.6749476,6.98177125 C24.8994999,6.98177125 25.0853363,7.16502662 25.0853363,7.38957896 L25.0853363,12.6291337 Z" id="形状" fill="#000000" fill-rule="nonzero"></path>
    </g>
</svg>