<?xml version="1.0" encoding="UTF-8"?>
<svg width="32px" height="32px" viewBox="0 0 32 32" version="1.1" xmlns="http://www.w3.org/2000/svg" xmlns:xlink="http://www.w3.org/1999/xlink">
    <title>Rabby</title>
    <defs>
        <linearGradient x1="29.5553446%" y1="48.3270296%" x2="98.7853861%" y2="65.3214162%" id="linearGradient-1">
            <stop stop-color="#8797FF" offset="0%"></stop>
            <stop stop-color="#AAA8FF" offset="100%"></stop>
        </linearGradient>
        <linearGradient x1="132.80751%" y1="95.7432964%" x2="-12.0576493%" y2="14.639931%" id="linearGradient-2">
            <stop stop-color="#3B22A0" offset="0%"></stop>
            <stop stop-color="#5156D8" stop-opacity="0" offset="100%"></stop>
        </linearGradient>
        <linearGradient x1="102.887168%" y1="69.9786299%" x2="2.37455752%" y2="23.4417045%" id="linearGradient-3">
            <stop stop-color="#3B1E8F" offset="0%"></stop>
            <stop stop-color="#6A6FFB" stop-opacity="0" offset="100%"></stop>
        </linearGradient>
        <linearGradient x1="27.8395875%" y1="41.9476758%" x2="78.2605577%" y2="81.0749828%" id="linearGradient-4">
            <stop stop-color="#8898FF" offset="0%"></stop>
            <stop stop-color="#5F47F1" offset="98.39%"></stop>
        </linearGradient>
    </defs>
    <g id="Rabby" stroke="none" stroke-width="1" fill="none" fill-rule="evenodd">
        <path d="M31.8381109,17.8490491 C33.0886525,15.0437803 26.8697433,7.16874863 20.9212215,3.92410038 C17.169597,1.38921893 13.2827788,1.72720313 12.4716167,2.84255096 C10.7478973,5.27603715 18.217348,7.37153914 23.219514,9.77122691 C22.1379646,10.2444048 21.124012,11.0893653 20.5494389,12.1371163 C18.6905258,10.1092111 14.6009171,8.3516933 9.80154158,9.77122691 C6.55689334,10.7175826 3.88681821,12.9820767 2.83906722,16.3619187 C2.60247828,16.2605234 2.29829251,16.1929266 2.02790516,16.1929266 C0.91255732,16.1929266 0,17.1054839 0,18.2208317 C0,19.3361796 0.91255732,20.2487369 2.02790516,20.2487369 C2.23069567,20.2487369 2.87286564,20.1135432 2.87286564,20.1135432 L13.2827788,20.18114 C9.1255732,26.8056302 5.81332811,27.751986 5.81332811,28.9011322 C5.81332811,30.0502785 8.9565811,29.7460927 10.1395258,29.3067132 C15.8176602,27.2788081 21.9013757,20.8909068 22.9491267,19.0657922 C27.3429212,19.6403653 31.0269489,19.6741638 31.8381109,17.8490491 Z" id="路径" fill="url(#linearGradient-1)" fill-rule="nonzero"></path>
        <path d="M23.2533124,9.77122691 C23.2533124,9.77122691 23.2533124,9.77122691 23.2533124,9.77122691 C23.4899014,9.66983165 23.456103,9.33184746 23.3885061,9.0614601 C23.2533124,8.45308856 20.718431,5.95200553 18.3525417,4.8366577 C15.1078934,3.31572883 12.7420041,3.38332567 12.4040199,4.09309247 C13.0461898,5.44502924 16.121846,6.69557076 19.2988974,8.04750753 C20.6170357,8.58828224 22.0027709,9.16285536 23.2533124,9.77122691 C23.2533124,9.77122691 23.2533124,9.77122691 23.2533124,9.77122691 Z" id="路径" fill="url(#linearGradient-2)"></path>
        <path d="M19.1299053,23.3581914 C18.4877353,23.1216025 17.7441701,22.8850136 16.8992096,22.6822231 C17.7779685,21.0936974 17.980759,18.6940096 17.1357986,17.2068791 C15.9528539,15.1113772 14.4657234,13.9960293 10.9844863,13.9960293 C9.09177478,13.9960293 3.95441505,14.6381993 3.8530198,18.9305985 C3.8530198,19.369978 3.8530198,19.775559 3.88681821,20.18114 L13.2827788,20.18114 C12.0322373,22.1752468 10.8492926,23.6623772 9.80154158,24.7777251 C11.0520831,25.0819108 12.0660357,25.3522982 13.0123914,25.6226855 C13.8911503,25.8592745 14.7361108,26.062065 15.5810713,26.2986539 C16.8654112,25.3522982 18.0821543,24.3383456 19.1299053,23.3581914 Z" id="路径" fill="url(#linearGradient-3)"></path>
        <path d="M2.70387354,19.6741638 C3.07565615,22.918812 4.93456921,24.2031519 8.71999217,24.5749345 C12.5054151,24.9467172 14.668514,24.7101282 17.5413796,24.9467172 C19.9410674,25.1495077 22.1041662,26.4000492 22.8815298,25.9606697 C23.5912966,25.5888871 23.1857156,24.2031519 22.2393599,23.324393 C20.9888184,22.1752468 19.265099,21.3978831 16.2570397,21.0936974 C16.8654112,19.4375748 16.6964191,17.1054839 15.7500634,15.8549424 C14.3981266,14.0298277 11.8970436,13.2186657 8.71999217,13.5566499 C5.40774708,13.9622309 2.23069567,15.6183534 2.70387354,19.6741638 Z" id="路径" fill="url(#linearGradient-4)" fill-rule="nonzero"></path>
    </g>
</svg>