<?xml version="1.0" encoding="UTF-8"?>
<svg width="32px" height="32px" viewBox="0 0 32 32" version="1.1" xmlns="http://www.w3.org/2000/svg" xmlns:xlink="http://www.w3.org/1999/xlink">
    <title>Revoke</title>
    <g id="Revoke" stroke="none" stroke-width="1" fill="none" fill-rule="evenodd">
        <path d="M18.7126176,19.4275547 C17.7319399,19.3029703 16.7832567,18.549647 16.2296562,17.4516564 C15.8636593,16.7249951 15.7027177,16.063777 15.7051145,15.2930021 C15.7075653,13.873613 16.3173985,12.716966 17.3223143,12.2195981 C17.6689206,12.0489612 17.888034,12 18.3102635,12 C18.8003599,12 19.0858859,12.0731994 19.527506,12.3073404 C20.3642087,12.7513843 21.0225183,13.5808155 21.3739722,14.6269363 C21.7152461,15.6439713 21.7103984,16.6930007 21.3594293,17.6441077 C21.023003,18.5588575 20.2764664,19.2467377 19.4470351,19.4052555 C19.2613705,19.4396738 18.9050689,19.4517929 18.7126176,19.4275547 Z M19.227437,19.0494387 C19.5153869,19.0227767 19.8862314,18.8860732 20.1324915,18.7178601 C20.332699,18.5787328 20.6201641,18.2859353 20.7738343,18.0590658 C21.0225183,17.6954927 21.1810361,17.3028339 21.2615069,16.8393994 C21.5930855,14.9662712 20.5930173,12.9903729 19.0538915,12.4779773 C18.4954433,12.2927975 17.9563857,12.3243071 17.4488377,12.5729911 C16.7071488,12.9341403 16.2097809,13.6976437 16.0391439,14.7316454 C15.9974542,14.9730579 15.9974542,15.6876001 16.0391439,15.9391926 C16.1171909,16.4443167 16.3222461,17.0342746 16.558811,17.4492326 C17.0440598,18.3029021 17.809987,18.8981923 18.5904571,19.0348958 C18.8541687,19.0809484 18.8735593,19.0833722 19.227437,19.0494387 Z" id="形状" fill="#000000" fill-rule="nonzero" transform="translate(18.6657, 15.7201) scale(-1, 1) rotate(-180) translate(-18.6657, -15.7201)"></path>
        <path d="M19.1590853,16.5331263 C19.1251518,16.4938604 18.9957198,16.3329188 18.8711354,16.1719771 C18.7441273,16.0110354 18.3931581,15.5597201 18.0858177,15.1670612 C17.6786159,14.6449704 17.5297933,14.4374914 17.5297933,14.3914388 C17.5297933,14.3449014 17.6519539,14.1718407 17.9835325,13.7549436 C18.2322164,13.4403317 18.4518146,13.1843763 18.4712051,13.1843763 C18.4905957,13.1843763 18.8003599,13.3210798 19.1590853,13.4868691 C19.6908714,13.735553 19.8154558,13.8014809 19.8324225,13.8528659 C19.8493893,13.8969795 19.7907328,14.2382533 19.5934339,15.2262025 C19.4494589,15.9480161 19.3176031,16.5530016 19.305484,16.5704531 C19.2662181,16.616021 19.227437,16.6063257 19.1590853,16.5331263 Z" id="路径" fill="#000000" fill-rule="nonzero" transform="translate(18.6825, 14.8912) scale(-1, 1) rotate(-180) translate(-18.6825, -14.8912)"></path>
        <path d="M17.4735607,18.2050533 C17.4493225,18.1808151 17.431871,18.1391254 17.431871,18.1148872 C17.431871,18.0344163 17.9975906,16.0173132 18.0295851,15.9828949 C18.0465518,15.9659282 18.0809701,15.9586567 18.1052083,15.968352 C18.1318703,15.9756235 18.4784766,16.3464679 18.8784069,16.788088 C19.4736972,17.4468823 19.6026444,17.6029763 19.6026444,17.661148 C19.6026444,17.7004139 19.5856776,17.7440427 19.5687109,17.7610094 C19.529445,17.7925191 19.4320074,17.753738 18.7368558,17.4197355 L18.370859,17.2466748 L18.3097787,17.3247218 C17.9365104,17.8075468 17.5729373,18.2491668 17.5462753,18.2491668 C17.5268848,18.248682 17.4953751,18.2292915 17.4735607,18.2050533 Z" id="路径" fill="#000000" fill-rule="nonzero" transform="translate(18.5173, 17.1066) scale(-1, 1) rotate(-180) translate(-18.5173, -17.1066)"></path>
        <path d="M1.09144467,18.9506407 C0.879118023,17.60639 0.820461574,17.2234265 0.77440899,16.9311137 C0.745323148,16.758053 0.679395238,16.3333997 0.625586429,15.9921258 C0.571777621,15.6508519 0.505849711,15.2334701 0.479187689,15.0652569 C0.452525666,14.8965591 0.386597757,14.479662 0.332788948,14.1379033 C0.278980139,13.7966294 0.21305223,13.3840952 0.188814027,13.2231536 C0.162152005,13.0622119 0.113190837,12.7451762 0.0768335338,12.5158828 C0.0429000508,12.2890133 0.00848180383,12.0815343 0.0012103432,12.0597199 C-0.0109087579,12.0180302 0.0501715115,12.0156063 1.02309294,12.0156063 L2.06000323,12.0156063 L2.07212233,12.071839 C2.08181761,12.1009248 2.15259316,12.554664 2.23548781,13.0767548 C2.48901941,14.7230135 2.53070912,14.9770299 2.53798058,14.9843013 C2.54282822,14.989149 2.60148467,14.6328474 2.72316044,13.8329867 C2.871983,12.8523091 2.99414354,12.071839 3.00383882,12.0476008 C3.01838174,12.0010634 5.1867313,12.0010634 5.1867313,12.0476008 C5.1867313,12.0621437 5.16006928,12.1697613 5.12807485,12.2841656 C5.09414137,12.3985699 4.97925229,12.8111041 4.86969562,13.1989154 C4.63555459,14.0307705 4.31124744,15.1820851 4.29379594,15.2383177 C4.28652448,15.2649797 4.31076268,15.284855 4.38638587,15.3066694 C4.56671809,15.3604782 4.87648231,15.5165723 5.0277287,15.6309766 C5.28368411,15.8263365 5.53527665,16.1845771 5.64968096,16.5190643 C5.88139817,17.1899777 5.86685525,18.0533425 5.61332366,18.553619 C5.40826847,18.958397 4.97198083,19.2366515 4.35487621,19.3559035 C3.9302229,19.4412219 3.61318722,19.4557649 2.36685887,19.4557649 L1.1719155,19.4557649 L1.09144467,18.9506407 Z M3.45757796,17.8919161 C3.74795162,17.7944785 3.86477976,17.501681 3.79885185,17.0479419 C3.72322866,16.5306986 3.47939235,16.2432336 3.05231522,16.1647018 C2.92288323,16.1404636 2.72316044,16.1283445 2.72316044,16.1453112 C2.72316044,16.147735 2.73527954,16.2160868 2.74739864,16.2965576 C2.76194156,16.3770284 2.82059801,16.7624158 2.88167828,17.1502271 C2.94275855,17.5404621 2.99899118,17.8720407 3.00383882,17.8894922 C3.01838174,17.9287581 3.34317365,17.9287581 3.45757796,17.8919161 Z" id="形状" fill="#000000" fill-rule="nonzero" transform="translate(2.907, 15.7342) scale(-1, 1) rotate(-180) translate(-2.907, -15.7342)"></path>
        <path d="M6.7626992,19.3854741 C6.75542774,19.3462082 6.70889039,19.0708622 6.66283781,18.7683695 C6.61678523,18.4658767 6.51159143,17.8022347 6.4311206,17.2927477 C6.35064977,16.7827759 6.24109309,16.0852005 6.18728428,15.7439266 C6.13347548,15.4026527 6.06754757,14.9901185 6.04330936,14.8291768 C6.01664734,14.6682352 5.95556707,14.2852716 5.90902972,13.9755074 C5.86006856,13.668167 5.80432069,13.316713 5.78444537,13.1950373 C5.7529357,12.9948297 5.64531809,12.3219772 5.6113846,12.1048029 L5.59684168,12.012213 L7.428765,12.012213 C8.87287708,12.012213 9.26553595,12.0194845 9.27280741,12.0412988 C9.27765505,12.0582656 9.3120733,12.2536255 9.34600678,12.4756474 C9.44102054,13.1024473 9.55106197,13.797599 9.56318107,13.8732222 L9.577724,13.9391501 L8.77301569,13.9391501 L7.96830738,13.9391501 L7.98042648,13.9953827 C7.98769794,14.0244685 8.01969236,14.2295237 8.05362585,14.4515457 C8.08755933,14.6735676 8.12197758,14.8786228 8.12924904,14.9101324 L8.13894432,14.9639413 L8.85833416,14.9639413 C9.51955231,14.9639413 9.57530018,14.9663651 9.58790404,15.0080548 C9.5951755,15.0298692 9.62426134,15.2034147 9.65383195,15.3910184 C9.73430278,15.9349236 9.79538305,16.3300063 9.82204507,16.4885242 C9.83416417,16.568995 9.84628327,16.6494658 9.84628327,16.6664326 C9.84628327,16.688247 9.68776543,16.6955184 9.14143636,16.6955184 C8.7512013,16.6955184 8.42931798,16.7027899 8.42204652,16.714909 C8.41719888,16.7246043 8.44628472,16.9393547 8.48797443,17.1904625 L8.56359762,17.6466255 L9.35085442,17.6466255 L10.138596,17.6466255 L10.1628342,17.7028581 C10.1749533,17.7319439 10.2093715,17.9103371 10.2360336,18.0979408 C10.3504379,18.8469012 10.3824323,19.0563193 10.413942,19.2516792 L10.4478755,19.4518868 L8.6111045,19.4518868 L6.77675736,19.4518868 L6.7626992,19.3854741 Z" id="路径" fill="#000000" fill-rule="nonzero" transform="translate(8.0224, 15.732) scale(-1, 1) rotate(-180) translate(-8.0224, -15.732)"></path>
        <path d="M10.6849251,19.3006404 C10.6946203,19.2153219 10.7164347,18.90071 10.7363101,18.5982173 C10.7755759,18.0198938 10.8361714,17.1541052 10.9190661,15.9761286 C10.9457281,15.5883173 10.9898417,14.9566698 11.0165037,14.5737062 C11.0431657,14.1907426 11.0872792,13.5663665 11.1139412,13.1834029 C11.1406033,12.8004393 11.1701739,12.3811184 11.1774453,12.2516864 L11.1944121,12.0126978 L12.3336076,12.0126978 C13.2241191,12.0126978 13.4776507,12.0199692 13.487346,12.0442074 C13.4994651,12.0781409 13.64344,12.4465616 14.2363064,13.9881112 C14.6313891,15.0124177 15.1117903,16.2616546 15.5902524,17.5007115 C15.7075653,17.8032042 15.843784,18.1595058 15.895169,18.2933007 C15.946554,18.4275803 16.0658059,18.7397684 16.1608197,18.9860285 C16.2558334,19.2322886 16.3338805,19.4373438 16.3338805,19.4421915 C16.3338805,19.4470391 15.870446,19.4494629 15.3047264,19.4470391 L14.2779961,19.4397677 L14.1854062,19.1469702 C14.058398,18.7397684 13.8441323,18.0640073 13.5537587,17.1468337 C13.2488421,16.1884552 13.0534822,15.5635944 12.8876929,15.0371406 L12.7606847,14.6347865 L12.7534132,17.0445485 L12.7485656,19.4518868 L11.7092315,19.4518868 L10.6698974,19.4518868 L10.6849251,19.3006404 Z" id="路径" fill="#000000" fill-rule="nonzero" transform="translate(13.5019, 15.7323) scale(-1, 1) rotate(-180) translate(-13.5019, -15.7323)"></path>
        <path d="M22.6639293,19.4228009 C22.6125443,19.2812498 22.4884447,18.6762643 22.4079739,18.183744 C22.3541651,17.8545892 22.2984172,17.520102 22.2858134,17.4396312 C22.2712704,17.3591604 22.2223093,17.0469723 22.1762567,16.7444796 C22.1297193,16.4419868 22.0250103,15.7783448 21.9445395,15.2688578 C21.8640686,14.7593708 21.7322128,13.9246071 21.651742,13.4151201 C21.5712712,12.9056331 21.4883765,12.3908137 21.4689859,12.2686532 C21.4495954,12.1464926 21.4326286,12.0417836 21.4326286,12.0320883 C21.4326286,12.0199692 21.8984869,12.0126978 22.4695389,12.0126978 C23.0401062,12.0126978 23.5064492,12.022393 23.5064492,12.0345121 C23.5064492,12.0442074 23.5209921,12.1464926 23.5403827,12.2589579 C23.5597733,12.3709384 23.5990391,12.6055642 23.6257012,12.7810488 C23.6746623,13.0859654 23.7478617,13.5542474 23.8477231,14.171352 C23.8743851,14.3322937 23.9233463,14.6372103 23.9572798,14.8471131 C23.9912133,15.0570159 24.01836,15.2518911 24.01836,15.2790379 C24.01836,15.3081237 24.0256315,15.3304229 24.0377506,15.3304229 C24.0474459,15.3304229 24.1696064,14.5838862 24.3087337,13.6715603 L24.5646891,12.0126978 L25.6844941,12.0126978 L26.8067228,12.0126978 L26.7921799,12.0907448 C26.7849084,12.1348583 26.7044376,12.478556 26.6166953,12.8542481 C26.528953,13.2299403 26.3946734,13.8005076 26.3190502,14.1228756 C26.138718,14.9009219 26.1018759,15.0594398 26.0432195,15.3056999 C26.0165574,15.4201042 25.9675963,15.6275832 25.9360866,15.7691343 L25.8750063,16.0250897 L26.8993127,17.7324287 L27.9211953,19.4397677 L26.8794374,19.4470391 C26.0669729,19.4518868 25.830408,19.4446153 25.8085937,19.4228009 C25.7940507,19.4058342 25.5817241,19.0131753 25.3403116,18.5497409 C25.0988991,18.0863064 24.7988302,17.5104068 24.671822,17.2689943 C24.5448138,17.0275818 24.3935674,16.7396319 24.3378196,16.6300753 C24.2791631,16.5180948 24.2258391,16.4225963 24.215659,16.4153248 C24.2059637,16.4104772 24.2059637,16.4618621 24.2180828,16.5326377 C24.2398972,16.6741888 24.3984151,17.6912238 24.4939136,18.2937855 C24.6034702,19.0083277 24.6548552,19.3180919 24.6669743,19.3864436 L24.6815173,19.4523715 L23.6766014,19.4523715 C22.8980703,19.4523715 22.6712008,19.4451001 22.6639293,19.4228009 Z" id="路径" fill="#000000" fill-rule="nonzero" transform="translate(24.6769, 15.7325) scale(-1, 1) rotate(-180) translate(-24.6769, -15.7325)"></path>
        <path d="M28.3109456,19.4300724 C28.3109456,19.4106818 28.2038128,18.717954 28.0913475,18.0131071 C28.0646855,17.844894 27.9987576,17.4275121 27.9449488,17.0862382 C27.89114,16.7449643 27.8252121,16.3275825 27.79855,16.1593694 C27.771888,15.9911563 27.7059601,15.5737744 27.6521513,15.2325005 C27.5983425,14.8912266 27.5324146,14.4738448 27.5057526,14.3056317 C27.4790905,14.1374186 27.4131626,13.7200367 27.3598386,13.3787628 C27.1916255,12.3079191 27.1669025,12.1494012 27.1523596,12.0810495 L27.1353928,12.0126978 L28.9794353,12.0126978 C29.9940464,12.0126978 30.8234777,12.022393 30.8234777,12.0345121 C30.8234777,12.0442074 30.8574112,12.2613817 30.896677,12.5149133 C31.0013861,13.1712838 31.1162752,13.912488 31.1162752,13.927031 C31.1162752,13.9343024 30.7599736,13.9391501 30.3236859,13.9391501 C29.7065813,13.9391501 29.5310967,13.9464215 29.5310967,13.9706597 C29.5310967,13.9852027 29.5650302,14.2169199 29.6067199,14.4830553 L29.6847669,14.9634565 L30.4114282,14.9634565 C31.0115661,14.9634565 31.1409981,14.9683041 31.1409981,14.99739 C31.1409981,15.0143567 31.1899593,15.3464201 31.2505548,15.7342313 C31.3116351,16.1220425 31.3702915,16.4977347 31.377563,16.5685102 L31.3921059,16.6955184 L30.6799875,16.6955184 L29.970293,16.6955184 L29.970293,16.751751 C29.970293,16.8128313 30.0876059,17.534645 30.1069964,17.6029967 C30.1191155,17.6422626 30.1850434,17.6471102 30.9170371,17.6519579 L31.714474,17.6592293 L31.792521,18.1595058 C31.9146815,18.9617903 31.9704294,19.3132442 31.9854571,19.3864436 L32,19.4523715 L30.1559576,19.4523715 C29.1403769,19.4523715 28.3109456,19.4426762 28.3109456,19.4300724 Z" id="路径" fill="#000000" fill-rule="nonzero" transform="translate(29.5677, 15.7325) scale(-1, 1) rotate(-180) translate(-29.5677, -15.7325)"></path>
    </g>
</svg>