<?xml version="1.0" encoding="UTF-8"?>
<svg width="32px" height="32px" viewBox="0 0 32 32" version="1.1" xmlns="http://www.w3.org/2000/svg" xmlns:xlink="http://www.w3.org/1999/xlink">
    <title>symbol</title>
    <g id="symbol" stroke="none" stroke-width="1" fill="none" fill-rule="evenodd">
        <path d="M6.64971902,15.1811365 C6.64974539,15.0025473 6.68504668,14.8256981 6.75361924,14.6607918 C6.82219179,14.4958591 6.92263833,14.346112 7.04923788,14.2201188 C7.17583743,14.0941257 7.32608541,13.994391 7.49133447,13.9266357 C7.65658352,13.8588804 7.83359088,13.8244228 8.01220645,13.82524 L10.2710672,13.8326219 C10.6312247,13.8326219 10.9766448,13.9756989 11.2313203,14.2303744 C11.4859957,14.4850499 11.6290727,14.83047 11.6290727,15.1906275 L11.6290727,23.7325642 C11.8834846,23.6571634 12.209079,23.576727 12.5673647,23.4923625 C12.815581,23.4339664 13.0368006,23.2934467 13.1951424,23.0935555 C13.3534841,22.8936642 13.4396941,22.6461597 13.4397468,22.3911415 L13.4397468,11.7962727 C13.4397468,11.4360888 13.5827974,11.0906424 13.8374729,10.8359405 C14.0921484,10.5812123 14.4375685,10.4380826 14.7977524,10.4380035 L17.0634677,10.4380035 C17.4236516,10.4380826 17.7690717,10.5812123 18.0237208,10.8359405 C18.2783963,11.0906424 18.4214733,11.4360888 18.4214733,11.7962727 L18.4214733,21.6300151 C18.4214733,21.6300151 18.9882976,21.400649 19.5400944,21.167592 C19.7451266,21.080881 19.920104,20.9356949 20.0431708,20.750172 C20.1662376,20.5646491 20.2319628,20.3470149 20.2321474,20.1243716 L20.2321474,8.40112698 C20.2321474,8.04102219 20.3751716,7.69565483 20.6297944,7.44097935 C20.8844171,7.18630388 21.2297581,7.04320052 21.5898893,7.04312143 L23.8532319,7.04312143 C24.2131521,7.04349052 24.5582295,7.18669934 24.8126149,7.44134845 C25.0670268,7.69599756 25.2099192,8.04120674 25.2099192,8.40112698 L25.2099192,18.0548038 C27.1722386,16.632734 29.1608691,14.9222428 30.7390134,12.8655933 C30.9678522,12.5670746 31.1194448,12.2165136 31.1800818,11.8451778 C31.2404552,11.4738419 31.2082912,11.0933051 31.0859626,10.7374976 C30.3554184,8.63581861 29.1940877,6.70974965 27.6765804,5.08259482 C26.1589413,3.45544 24.3183442,2.16299624 22.272583,1.28799089 C20.2268218,0.412988181 18.0208999,-0.0253165624 15.7960222,0.00112928951 C13.5711446,0.0275750781 11.3762691,0.518188134 9.35188908,1.44157128 C7.3274827,2.36495442 5.51815318,3.70078265 4.03963814,5.36355513 C2.56114156,7.02632761 1.44602944,8.97944595 0.765668918,11.0979188 C0.0853078695,13.2163653 -0.145317645,15.4535549 0.0885485226,17.6662787 C0.322414954,19.8789762 1.01562261,22.0185139 2.1238142,23.947931 C2.31688774,24.2807755 2.60094053,24.5516121 2.94260904,24.7286195 C3.28425908,24.9056005 3.66933051,24.9814231 4.05260919,24.9471236 C4.48075926,24.9094232 5.01383774,24.8561681 5.6476264,24.7818219 C5.92344574,24.7504488 6.17812121,24.6187083 6.36309048,24.4116988 C6.54808611,24.2046893 6.65048358,23.9368846 6.65077358,23.6592461 L6.65077358,15.1811365" id="路径" fill="#12161C" fill-rule="nonzero"></path>
        <path d="M6.6012885,28.8800933 C8.98701242,30.6156302 11.8063701,31.6575324 14.7474236,31.8900622 C17.6884508,32.1228556 20.6365699,31.5373129 23.2655273,30.198553 C25.8945112,28.8597931 28.1018304,26.8197529 29.6433289,24.3043185 C31.1848273,21.7888578 32.000527,18.8959447 32,15.9457165 C32,15.5766217 31.9828632,15.2133268 31.9583447,14.8510866 C26.115309,23.5656806 15.3266917,27.6396709 6.6012885,28.8800933 Z" id="路径" fill="#F0B90B" fill-rule="nonzero"></path>
    </g>
</svg>