<?xml version="1.0" encoding="UTF-8"?>
<svg width="32px" height="32px" viewBox="0 0 32 32" version="1.1" xmlns="http://www.w3.org/2000/svg" xmlns:xlink="http://www.w3.org/1999/xlink">
    <title>logo_left</title>
    <g id="logo_left" stroke="none" stroke-width="1" fill="none" fill-rule="evenodd">
        <path d="M0,8.18632546 L12.9133842,3 L25.852,8.185 L32,5.71559214 L32,6.91944173 L13.48,14.35 L13.48,17.979 L32,10.5450856 L32,11.7419767 L13.48,19.18 L13.48,22.807 L32,15.3674795 L32,16.5713513 L13.48,24.002 L13.480231,27.6298773 L31.9999257,20.1967798 L31.9999257,21.393671 L14.4671074,28.4277552 L13.480231,28.8267684 L12.9763589,29.0297283 L12.3744601,28.7847358 L11.4855362,28.4279037 L1.11286299,24.2634027 L0,23.8154503 L0,8.18632546 Z M1.112,9.836 L1.11286299,23.0665115 L12.3744601,27.5879931 L12.374,14.356 L1.112,9.836 Z" id="形状结合" fill="#C23631" fill-rule="nonzero"></path>
    </g>
</svg>