<?xml version="1.0" encoding="UTF-8"?>
<svg width="32px" height="32px" viewBox="0 0 32 32" version="1.1" xmlns="http://www.w3.org/2000/svg" xmlns:xlink="http://www.w3.org/1999/xlink">
    <title>uniswap</title>
    <g id="uniswap" stroke="none" stroke-width="1" fill="none" fill-rule="evenodd">
        <path d="M15.6752999,25.0155038 C18.1136081,25.0404851 19.5020435,26.2402458 19.8576986,28.6568597 C19.9181796,29.0677367 19.9852348,29.4779562 20.0628083,29.8855462 C20.3257696,31.2575465 21.2776893,31.8413205 22.6871616,31.498156 C22.8764937,31.4521378 23.0625388,31.3903419 23.2617319,31.3324905 C22.4951999,32.0793004 20.9917189,32.2929564 20.1390671,31.4863228 C19.7505418,31.1188344 19.4395902,30.6507634 19.1667679,30.1846646 C18.8413533,29.6298164 18.6152066,29.0184314 18.3095142,28.4510925 C17.9078409,27.70494 17.3023726,27.1869063 16.4589244,26.9949446 C15.572745,26.7931219 14.7437596,27.2151747 14.5176129,27.9757901 C14.3749565,28.4570092 14.476854,28.8948397 14.8390831,29.2419485 C15.2315527,29.6179831 15.7009386,29.8125744 16.2498702,29.6567699 C16.6824414,29.5338355 16.9835321,29.0920606 16.9848469,28.6318784 C16.9861617,28.1979923 16.753441,27.8982165 16.2945736,27.7430694 C15.7374244,27.5544769 15.299879,27.8292765 15.2354452,28.3757124 L15.227,28.485 L15.205543,28.3937783 C15.1261871,27.9538796 15.4574365,27.5557095 15.9507518,27.5188949 C16.4727298,27.4794507 16.9302824,27.6451163 17.1715494,28.119104 C17.4239922,28.6154433 17.3884924,29.1426806 17.0663649,29.6160109 C16.5982938,30.3029972 15.5885226,30.4712924 14.7641391,29.9992769 C14.5761218,29.8914628 14.4104562,29.7428897 14.2415036,29.604835 C14.1740102,29.5496132 14.1094386,29.4894243 14.048568,29.4260214 L13.9601351,29.3287257 C13.0364837,28.2558438 11.9057503,27.572802 10.4686671,27.4590712 C10.3851769,27.4524972 10.3036589,27.4248863 10.1761227,27.3275906 C10.7362302,26.9377505 11.2753007,26.5124107 11.8617043,26.1666167 C13.0338541,25.4750286 14.2783182,25.0010409 15.6752999,25.0155038 Z M23.0776591,18.8516921 C24.4279651,19.6905385 25.789447,20.4103949 27.0089298,21.3215556 C29.8416798,23.4383937 28.9226303,28.1808999 25.8085117,29.5358077 C25.8571595,29.4069567 25.8867426,29.3103184 25.9294738,29.2202542 C26.4231836,28.1651222 26.3916282,27.1014439 25.8578169,26.0923301 C25.6679589,25.733651 25.4602195,25.3845436 25.2466318,25.0384866 L24.6003572,24.0029452 C24.4937317,23.8297063 24.3886524,23.6555997 24.2866234,23.4798101 C23.8599688,22.7448334 23.4162217,22.0111715 23.0842331,21.2321488 C22.7745962,20.5070332 22.7745962,19.7234086 23.0776591,18.8516921 Z M2,0 C2.12950842,0.138054657 2.26033164,0.27545191 2.38786785,0.415478776 C5.81359554,4.18502831 9.23866583,7.95392044 12.6630787,11.7241274 C13.2093807,12.3256512 13.2074085,13.0481373 12.6604491,13.670698 C12.2291927,14.1617782 11.6651408,14.4069895 11.039293,14.5345257 L10.3937231,14.6502287 C9.70147764,14.7902556 9.40696104,15.1222441 9.33924851,15.8289525 C9.30966537,16.1339876 9.2735082,16.4377078 9.24458246,16.7427428 C9.17095331,17.5053305 8.90601985,18.207437 8.5792905,18.8924511 C8.42414336,19.2178656 8.27885727,19.5491968 8.15197847,19.8857872 C7.79500857,20.8304755 8.00143315,21.658146 8.74232647,22.3280398 C9.13874056,22.6869819 9.58380248,22.992017 10.0124293,23.3141445 C10.6672028,23.8065394 10.9288493,24.4514519 10.7191377,25.2455949 C10.6520826,25.4993525 10.5146853,25.7570545 10.3431031,25.9562477 C9.66203345,26.747761 8.73706725,27.152064 7.77331426,27.4669601 C7.30853025,27.6188202 6.82533895,27.7141436 6.41709161,27.8180133 C6.05289028,27.1882211 5.72550352,26.6005027 5.37773727,26.0246176 C4.70521387,24.9116341 4.4166139,23.7158178 4.71047309,22.4417706 C4.81500019,21.9888198 5.07796144,21.5542763 5.34355231,21.1618067 C5.74719783,20.5642272 6.21658366,20.0106938 6.65704375,19.4380957 C7.45710336,18.3974265 7.92254477,17.227249 8.053368,15.9177019 C8.13028416,15.1524847 8.36694929,14.4431467 8.9158809,13.8698912 C9.17424033,13.6003559 9.20711048,13.3176726 9.01777838,12.9777951 C8.02707187,11.2001771 7.05017082,9.41532759 6.06801055,7.63310771 C5.9943814,7.49965488 5.91943744,7.36685944 5.84515089,7.23340661 C5.85764155,7.22486037 5.87013221,7.21697153 5.88262287,7.20842529 C6.90159772,8.77698915 7.91991516,10.3462104 8.94283443,11.9121447 C9.18212917,12.2789756 9.42273871,12.6458066 9.68701477,12.9942302 C10.1932152,13.6595222 11.4317627,13.6450593 11.9458519,12.9791099 C12.1509617,12.7135191 12.0747029,12.4656781 11.8893152,12.2316426 C11.4324201,11.6577297 10.9761823,11.0825019 10.5120557,10.5145056 C7.73321267,7.11310184 4.95239744,3.71432767 2.17289702,0.314238695 C2.09926787,0.224174466 2.02826833,0.132138029 2,0 Z M6.00292764,22.8335828 C5.73865158,22.8993231 5.6571336,23.1050903 5.85501194,23.2687837 C6.02067753,23.4055235 5.9509928,23.5080784 5.90760419,23.6625682 C5.86947481,23.7986506 5.86947481,24.0386028 5.94770578,24.0918524 C6.07458458,24.1773148 6.329657,24.2220182 6.43944332,24.1477317 C6.6254884,24.0228251 6.73987655,23.7914192 6.88450524,23.6053741 C6.81810752,23.0879978 6.414462,22.7310279 6.00292764,22.8335828 Z M21.5814095,18.2928994 C22.5412181,19.4006237 22.6457452,21.3951848 21.1317458,22.5627327 C20.4204356,23.1110069 19.5973669,23.3233482 18.7263078,23.4166994 C17.5548154,23.5429208 16.383323,23.673744 15.2131455,23.8137709 C15.0224985,23.83678 14.8377683,23.915011 14.5656034,23.9912697 C15.4110238,23.416042 16.2768237,23.1451919 17.1846974,22.9821559 C17.8611653,22.8605363 18.5389479,22.740889 19.2121287,22.6028343 C20.9318953,22.2498088 22.1973963,20.7962905 21.6708164,18.7445354 C21.6386036,18.6202862 21.6208537,18.4920926 21.5814095,18.2928994 Z M19.6006539,13.4826807 C20.8937659,14.543072 22.5004591,14.5535904 24.0262918,14.8244405 C25.1057477,15.0164022 26.1713982,15.2359749 27.1529011,15.7559808 C29.7687081,17.1431014 30.2801677,20.0205548 29.2749983,22.2373182 C29.2283227,22.3398731 29.1678416,22.4358539 29.0797496,22.5982325 C29.0225555,22.2971419 28.9975742,22.0709952 28.9344635,21.8560244 C28.7392148,21.1894176 28.3257082,20.6759858 27.7721748,20.270368 C27.0159421,19.7166155 26.173411,19.3334712 25.3185074,18.975558 L24.584427,18.6715636 C23.4129347,18.1850853 22.2315812,17.7183291 21.1895973,16.9734913 C20.380334,16.395634 19.7577733,15.679722 19.5934225,14.6620619 C19.5329414,14.2879996 19.5414876,13.9027613 19.5191359,13.5227823 C19.5460895,13.5096343 19.5737004,13.4958288 19.6006539,13.4826807 Z M13.9535611,14.8310146 C14.6103068,14.8112925 15.1408311,15.1209293 15.3873573,15.6685461 C15.5668283,16.0669324 15.4885974,16.3916896 15.1309701,16.6447898 C14.7056302,16.945223 14.2191519,17.0484353 13.7063775,17.0517223 C12.8451794,17.0714444 12.4980705,16.5790495 12.7958742,15.7599252 C12.9871785,15.2333453 13.4703698,14.8454774 13.9535611,14.8310146 Z M14.1468376,14.9861617 L14.1139674,14.9861617 C13.7221552,14.9953653 13.4204071,15.2109936 13.4144905,15.4864455 C13.4092313,15.7474345 13.780664,16.012368 14.1422358,16.0051365 C14.5143259,15.9979051 14.8719532,15.7323142 14.863407,15.4706678 C14.8542033,15.2077065 14.5281314,14.9868191 14.1468376,14.9861617 Z M15.9139372,7.57065441 C16.3951563,7.98218877 16.8323294,8.44697278 17.2754191,8.90123834 C17.4108441,9.0399504 17.52326,9.09320006 17.7277124,9.05901509 C19.5552931,8.75660966 21.3513185,8.85916454 23.0776591,9.57573395 C23.5496745,9.77164008 23.9947364,10.0372309 24.4404558,10.2923034 C24.5502421,10.3554141 24.6666024,10.4895243 24.6896115,10.6085143 C24.8362124,11.3559816 24.907212,12.1027916 24.5456403,12.8233054 C24.3996968,13.1138776 24.4759555,13.3880147 24.713278,13.5438192 C24.9814985,13.7200033 25.2608949,13.664124 25.4120976,13.4281163 C25.6612534,13.0382762 25.8446688,12.6050476 26.0432046,12.1843096 C26.097769,12.0679492 26.1096023,11.9318668 26.1556205,11.7477939 C27.0464017,12.772028 27.7018327,13.8652894 27.9569051,15.1952159 C27.9095721,15.1787808 27.8819611,15.177466 27.8740723,15.1643179 C27.2160118,14.1137877 26.1865185,13.8291322 25.0354056,13.7397254 L24.6035666,13.709143 L23.7390553,13.6538003 C22.8748867,13.5944393 22.0135425,13.5072238 21.17119,13.24996 C20.2120388,12.9567582 19.3777943,12.4775114 18.7289374,11.720183 C17.9387388,10.797189 17.1912715,9.8380378 16.4201376,8.89860873 C15.5674857,7.85925439 14.5879551,6.98162121 13.2882691,6.53984631 C12.9089475,6.4109953 12.511876,6.33210692 12.084564,6.21969099 C13.5597766,6.18616343 14.8279072,6.64108639 15.9139372,7.57065441 Z M11.8912875,7.01449137 C12.9924377,7.21171231 13.8155064,7.72645896 14.1297451,8.85784974 C14.225726,9.20430119 14.3309105,9.55009523 14.395336,9.90312071 C14.5347054,10.6670231 14.819361,11.3658427 15.2519322,12.0094403 C15.3176726,12.1073934 15.3275336,12.2428184 15.3630334,12.361151 C15.2407564,12.3867897 15.0994147,12.4643633 14.998832,12.4282061 C14.6135938,12.2908089 14.2020594,12.1737911 13.8727005,11.9450148 C12.7367079,11.1581033 12.2114428,9.98332389 11.9333613,8.67772128 C11.8170009,8.13273409 11.7473162,7.58051546 11.8912875,7.01449137 Z M25.1984416,7.15254603 C25.2253951,7.16240707 25.2523486,7.17226812 25.2799595,7.18212917 C25.1931823,8.23857599 25.2273673,9.249662 26.1155189,10.0411754 C26.5211366,10.4027471 26.8656159,10.8333461 27.2081229,11.2632878 C26.8340605,10.973373 26.4659148,10.6755694 26.0833062,10.3974879 C25.7776137,10.1752856 25.6711144,10.2259056 25.6244388,10.6025976 C25.5600133,11.1219461 25.5113654,11.6439242 25.4515418,12.1639301 C25.4443103,12.2244112 25.4120976,12.2822626 25.3700238,12.4005952 C25.3417554,11.777377 25.3220333,11.2185844 25.2898206,10.6604491 C25.2549782,10.0661567 24.9492858,9.6276688 24.4516316,9.32657817 C23.9947364,9.04981145 23.5233784,8.79671125 23.0684554,8.49890763 C23.5615078,8.66917504 24.0539027,8.83944245 24.5469551,9.00905246 C24.9216748,9.13790347 24.9722949,9.09648707 25.0123965,8.70007299 C25.0656461,8.18335413 25.1353309,7.66795008 25.1984416,7.15254603 Z" id="形状结合" fill="#FF007A" fill-rule="nonzero"></path>
    </g>
</svg>